<?xml version="1.0" encoding="UTF-8"?><svg id="_Layer_" xmlns="http://www.w3.org/2000/svg" xmlns:xlink="http://www.w3.org/1999/xlink" viewBox="0 0 329.57 329.57"><defs><style>.cls-1{fill:url(#linear-gradient);}.cls-2{clip-path:url(#clippath);}.cls-3{fill:#ffc29a;}.cls-4{fill:#44b9d0;}.cls-5{fill:#80e3f5;}.cls-6{fill:#322313;}.cls-7{clip-rule:evenodd;fill:none;}.cls-8{fill:url(#radial-gradient-3);}.cls-9{fill:url(#radial-gradient-2);}.cls-9,.cls-10,.cls-11,.cls-12{fill-rule:evenodd;}.cls-10{fill:url(#radial-gradient-4);}.cls-13{fill:url(#linear-gradient-3);}.cls-14{fill:url(#linear-gradient-4);}.cls-15{fill:url(#linear-gradient-2);}.cls-16{fill:url(#linear-gradient-5);}.cls-17{fill:url(#radial-gradient);}.cls-11{fill:url(#linear-gradient-6);}.cls-12{fill:url(#linear-gradient-7);}</style><clipPath id="clippath"><path class="cls-7" d="M8.17,189.19c8.94-22.67,17.95-34.19,11.28-56.23-5.04-16.66-12.71-41.17-1.05-58.73,11.66-17.56,36.49-38.59,111.31-13.51,55.75,18.69,68.24-19.15,145.4-7.65,39.96,5.95,60.76,39.69,52.75,74.75-8.01,35.07-24.02,38.62-12.18,81.67,17.6,63.96-67.4,89.59-122.79,56.3-54.04-32.48-96.93,9.11-150.06,.79C-.21,259.84-8.85,232.35,8.17,189.19Z"/></clipPath><linearGradient id="linear-gradient" x1="189.28" y1="126.92" x2="189.28" y2="61.62" gradientTransform="matrix(1, 0, 0, 1, 0, 0)" gradientUnits="userSpaceOnUse"><stop offset="0" stop-color="#80e3f5"/><stop offset=".05" stop-color="#87e4f3"/><stop offset=".35" stop-color="#b4f0ea"/><stop offset=".62" stop-color="#d5f8e4"/><stop offset=".85" stop-color="#e9fde0"/><stop offset="1" stop-color="#f1ffdf"/></linearGradient><linearGradient id="linear-gradient-2" x1="-5.23" y1="231.51" x2="345.71" y2="231.51" gradientTransform="matrix(1, 0, 0, 1, 0, 0)" gradientUnits="userSpaceOnUse"><stop offset="0" stop-color="#ffe5be"/><stop offset=".28" stop-color="#ffe2ba"/><stop offset=".52" stop-color="#ffd9af"/><stop offset=".75" stop-color="#ffca9d"/><stop offset=".97" stop-color="#ffb684"/><stop offset="1" stop-color="#ffb381"/></linearGradient><linearGradient id="linear-gradient-3" x1="143.69" y1="188.24" x2="299.72" y2="280.93" gradientTransform="matrix(1, 0, 0, 1, 0, 0)" gradientUnits="userSpaceOnUse"><stop offset="0" stop-color="#b9774b"/><stop offset=".23" stop-color="#d18c5e"/><stop offset=".52" stop-color="#eaa171"/><stop offset=".78" stop-color="#f9ae7c"/><stop offset="1" stop-color="#ffb381"/></linearGradient><radialGradient id="radial-gradient" cx="169.06" cy="237.19" fx="169.06" fy="237.19" r="195.32" gradientTransform="matrix(1, 0, 0, 1, 0, 0)" gradientUnits="userSpaceOnUse"><stop offset="0" stop-color="#fff0b5"/><stop offset="1" stop-color="#fff"/></radialGradient><linearGradient id="linear-gradient-4" x1="170.24" y1="188.61" x2="170.24" y2="115.51" gradientTransform="matrix(1, 0, 0, 1, 0, 0)" gradientUnits="userSpaceOnUse"><stop offset="0" stop-color="#15a7c4"/><stop offset=".43" stop-color="#14a5c1"/><stop offset=".64" stop-color="#139eba"/><stop offset=".81" stop-color="#1293ac"/><stop offset=".96" stop-color="#108299"/><stop offset="1" stop-color="#107d93"/></linearGradient><linearGradient id="linear-gradient-5" x1="170.24" y1="188.61" x2="170.24" y2="155.15" xlink:href="#linear-gradient"/><linearGradient id="linear-gradient-6" x1="172.94" y1="174.36" x2="172.94" y2="128.18" xlink:href="#linear-gradient"/><radialGradient id="radial-gradient-2" cx="210.76" cy="178.43" fx="210.76" fy="178.43" r="68.92" gradientTransform="matrix(1, 0, 0, 1, 0, 0)" gradientUnits="userSpaceOnUse"><stop offset="0" stop-color="#fecea3"/><stop offset=".13" stop-color="#f9c89d"/><stop offset=".29" stop-color="#edb98e"/><stop offset=".46" stop-color="#daa075"/><stop offset=".65" stop-color="#bf7e52"/><stop offset=".69" stop-color="#b9774b"/><stop offset="1" stop-color="#b9774b"/></radialGradient><radialGradient id="radial-gradient-3" cx="151.84" cy="163.14" fx="151.84" fy="163.14" r="52.04" gradientTransform="matrix(1, 0, 0, 1, 0, 0)" gradientUnits="userSpaceOnUse"><stop offset="0" stop-color="#fecea3"/><stop offset=".16" stop-color="#fbca9f"/><stop offset=".3" stop-color="#f2bf94"/><stop offset=".44" stop-color="#e4ae82"/><stop offset=".57" stop-color="#d19569"/><stop offset=".69" stop-color="#b9774b"/><stop offset="1" stop-color="#b9774b"/></radialGradient><radialGradient id="radial-gradient-4" cx="159.01" cy="85.11" fx="159.01" fy="85.11" r="88.09" gradientTransform="matrix(1, 0, 0, 1, 0, 0)" gradientUnits="userSpaceOnUse"><stop offset="0" stop-color="#7f5723"/><stop offset=".19" stop-color="#785223"/><stop offset=".44" stop-color="#664725"/><stop offset=".49" stop-color="#634526"/><stop offset="1" stop-color="#322313"/></radialGradient><linearGradient id="linear-gradient-7" x1="156.9" y1="103.85" x2="189.21" y2="114.05" gradientTransform="matrix(1, 0, 0, 1, 0, 0)" gradientUnits="userSpaceOnUse"><stop offset="0" stop-color="#634526"/><stop offset=".28" stop-color="#5e4124"/><stop offset=".58" stop-color="#51381f"/><stop offset=".88" stop-color="#3c2a16"/><stop offset="1" stop-color="#322313"/></linearGradient></defs><g class="cls-2"><g><rect class="cls-5" x="-5.23" y="29.61" width="350.94" height="95.68"/><path class="cls-1" d="M142.97,76.29c.37-.15,.78-.23,1.21-.23,1.78,0,3.21,1.44,3.21,3.21,0,.56-.15,1.09-.4,1.55,.93,.56,1.55,1.58,1.55,2.75,0,.68-.21,1.31-.57,1.83,1.57,1.25,2.74,2.98,3.28,4.97,.61-.2,1.26-.31,1.94-.31,2.1,0,3.96,1.04,5.09,2.63,1.1-.96,2.53-1.53,4.1-1.53,.68,0,1.34,.11,1.96,.31,.63-2.77,3.12-4.84,6.08-4.84s5.46,2.08,6.09,4.86c1.11-1.01,2.58-1.62,4.19-1.62,2.82,0,5.21,1.87,5.98,4.44,1.45,.28,2.72,1.07,3.62,2.17,.85-2.43,3.17-4.17,5.89-4.17,1.68,0,3.2,.66,4.32,1.74,.11-.06,.22-.11,.33-.16-.16-.47-.24-.96-.24-1.48,0-1.16,.43-2.23,1.13-3.05-.9-.85-1.45-2.05-1.45-3.38,0-2.57,2.09-4.66,4.66-4.66,.84,0,1.64,.22,2.32,.62,.45-1.2,1.37-2.16,2.54-2.66v-.14c0-2.57,2.08-4.66,4.66-4.66,.07,0,.15,0,.22,0,.23-.36,.51-.68,.82-.96-1.05-.85-1.72-2.16-1.72-3.62,0-2.57,2.09-4.66,4.66-4.66,1.52,0,2.87,.73,3.72,1.85,.58-.26,1.23-.41,1.9-.41,0-2.57,2.09-4.66,4.66-4.66,.96,0,1.85,.29,2.59,.79,.56-1.94,2.35-3.36,4.48-3.36,.6,0,1.17,.11,1.7,.32,.73-1.61,2.36-2.73,4.24-2.73,.66,0,1.29,.14,1.85,.38,.42-2.14,2.31-3.76,4.57-3.76,1.15,0,2.21,.42,3.02,1.11,.82-.72,1.9-1.17,3.08-1.17,2.57,0,4.66,2.09,4.66,4.66,0,.64-.13,1.24-.36,1.8,.17-.02,.34-.03,.52-.03,2.57,0,4.66,2.09,4.66,4.66,0,1.03-.33,1.98-.9,2.75,.45-.15,.93-.22,1.43-.22,2.57,0,4.66,2.09,4.66,4.66,0,.09,0,.17,0,.25,.81-2.16,2.9-3.69,5.34-3.69,3.15,0,5.7,2.55,5.7,5.7,0,.66-.11,1.3-.32,1.89,.24-.03,.48-.05,.72-.05,3.15,0,5.7,2.55,5.7,5.7,0,.95-.23,1.84-.64,2.62,2.8,.36,4.97,2.76,4.97,5.66,0,1.69-.74,3.21-1.91,4.26h.06c.28,0,.56,.02,.83,.06,.64-1.19,1.75-2.09,3.08-2.45,0-.07,0-.15,0-.22,0-2.75,2.23-4.98,4.98-4.98s4.98,2.23,4.98,4.98c0,.38-.04,.74-.12,1.1,.1,.07,.19,.15,.28,.23,.9-1.26,2.38-2.09,4.05-2.09,2.29,0,4.21,1.54,4.8,3.64,.5-.25,1.06-.39,1.66-.39,1.78,0,3.27,1.26,3.62,2.93,.28-.05,.56-.07,.85-.07,1.38,0,2.63,.56,3.53,1.47,.44-.35,.96-.6,1.53-.71-.03-.19-.04-.38-.04-.57,0-2.04,1.65-3.7,3.7-3.7,1.65,0,3.05,1.09,3.52,2.58,.36-1.67,1.84-2.92,3.61-2.92,1.44,0,2.69,.83,3.3,2.03,.52-.27,1.11-.43,1.73-.43,1.16,0,2.2,.54,2.88,1.38,.27-.27,.59-.49,.93-.66-.01-.13-.02-.27-.02-.41,0-2.04,1.65-3.7,3.7-3.7,1.71,0,3.15,1.16,3.57,2.73,.45-.2,.96-.31,1.48-.31,1.17,0,2.22,.55,2.9,1.4,.62-.48,1.4-.76,2.24-.76,1.99,0,3.61,1.57,3.69,3.55,.67-.98,1.79-1.62,3.06-1.62,1.48,0,2.75,.86,3.34,2.12,.6-.42,1.33-.67,2.12-.67,2.04,0,3.7,1.65,3.7,3.7v.13c.52-.29,1.13-.45,1.77-.45,1.62,0,3,1.04,3.5,2.5,.57-.36,1.24-.57,1.97-.57,.46,0,.9,.08,1.3,.24v70.46H-2.02V59.15c.99-.98,2.35-1.59,3.86-1.59,1.79,0,3.38,.86,4.38,2.19,.86-.57,1.9-.91,3.02-.91,.57,0,1.12,.09,1.64,.25,.93-1.68,2.72-2.82,4.78-2.82,3.02,0,5.46,2.45,5.46,5.46,0,.18,0,.36-.03,.54,.68-.31,1.44-.48,2.24-.48,2.74,0,5,2.01,5.4,4.64,.82-.5,1.79-.79,2.82-.79,3.02,0,5.46,2.45,5.46,5.46,0,1.3-.46,2.5-1.22,3.44,.68,.91,1.09,2.04,1.09,3.27,0,.65-.11,1.28-.33,1.86,1.8,.86,3.05,2.68,3.11,4.79,1.75,.49,3.25,1.59,4.25,3.05,1.28-.99,2.89-1.58,4.64-1.58,3.66,0,6.72,2.59,7.44,6.03,2.34,.54,4.15,2.46,4.54,4.85,.47-.12,.97-.18,1.48-.18h.19c1.07-1.6,2.91-2.66,4.98-2.66,1.36,0,2.61,.45,3.62,1.22,.98-1.98,3.02-3.35,5.38-3.35,1.55,0,2.97,.59,4.03,1.56,1.08-1.59,2.9-2.64,4.97-2.64s3.76,.97,4.85,2.47c1.46-1.31,3.39-2.11,5.51-2.11,1.55,0,3,.43,4.24,1.17,.15-.23,.31-.45,.48-.66-1.18-.47-2.02-1.63-2.02-2.98,0-.98,.44-1.86,1.13-2.45-.24-.83-.36-1.71-.36-2.62,0-5.05,3.91-9.19,8.87-9.55,.08-1.7,1.49-3.06,3.21-3.06,1.31,0,2.43,.78,2.93,1.9,.53-.39,1.18-.61,1.89-.61,1.39,0,2.57,.88,3.02,2.11h.26c.52,0,1.04,.04,1.54,.12,.01-1.77,1.45-3.19,3.21-3.19,1.2,0,2.25,.66,2.8,1.64,1.58-1.15,3.52-1.82,5.62-1.82,3.02,0,5.71,1.39,7.46,3.57,.11-.01,.23-.02,.35-.02,1.19,0,2.24,.65,2.79,1.62Z"/><path class="cls-15" d="M345.71,176.4v111.43H-5.23v-104.56c2.01-.56,4.17-1.27,6.48-2.14,17.1-6.48,23.58-5.31,34.78-4.13,11.2,1.18,32.3,12.38,45.39,12.38,27.71,0,38.12-7.07,55.42-11.79,19.45-5.31,28.89-.59,40.68,2.36,11.79,2.95,31.25,7.66,53.06,.59,21.81-7.07,27.71-4.13,37.73-1.77,10.02,2.36,20.63,6.48,40.09,1.77,14.11-3.42,29.76-4.05,37.3-4.14Z"/><path class="cls-13" d="M335.69,279.84c-8.43-5.45-17.41-13.12-19.6-14.24,6.53-.02-4.82-6.2-4.82-6.2,0,0,.75-.03,.95-.11,1.17-.48-.95-2.14-2.5-3.1-1.08-.67-4.5-1.51-6.91-1.84-2.5-2.04-11.86-7.39-18.86-11.45-7.13-4.13-12.76-8.26-18.99-12.35-5.11-3.36-10.11-8.55-14.55-11.51-1.81-1.2-5.19-3.36-8.97-4.19-5.84-1.29-10.19-.48-12.2-.31-2.41,.21-5.36,.18-7.94,.31-4.98,.25-10.8-.03-16.7-.32-2.97-.14-6.24-.46-9.1-.54-1.49-.04-3.34-.07-4.13,.23-.49,.19-.39,.48,.05,.77-2.5-.52-3.15,.23-1.52,1.08,0,0,.02,0,.03,.01-.87,.27,0,1.39,2.5,1.83,1.03,.87,3.53,2.18,6.04,2.09,.02,0,.03,0,.05,0,.54,.08,1.07,.12,1.58,.09,1.71-.08,2.29-.53,3.97-.57,1.8,.16,3.78,.47,5.75,.77,5.48,.85,23.9,2.49,31.13,7.36,3.68,2.48,11.24,13.43,12.23,15.12,.54,.93,2.02,3.12,3.36,4.43-7.51-.21-2.96,2.53-2.96,2.53l-.73,.29s-5.83-2.75-9.79-2.46c-.06-.02-14.78-5.46-21.36-8.32-6.19-2.69-22.7-10.81-25.83-12.17-3.08-1.34-12.88-4.93-16.99-2.24-2.17,1.42-2.7,3.32-5.55,4.53-2.61,1.11-5.46,2-5.11,4.01,.35,1.99,4.59,5.28,6.9,5.97,4.54,1.35,4.97-.04,5.03-.13,2.19,.63,3.93,.85,4.52,.34,.22-.19,.2-.47,.17-.76,1.93,.39,3.02,.2,3.59-.17,.26-.18,.42-.84,.31-.98,.21,.06,2.8,.12,4.23-.29,.82-.24,1.36-.62,2.31-.82,.07,0,.15,0,.22,0,4.68-.25,27.55,14,27.55,14,0,0-5.68,2.75,8.46,7.24-.19,.67,5.84,3.2,6.99,3.05,.3,.53,.45,1.1,1.53,1.68,1.26,.68,3.01,1.34,4.9,1.78,.76,.18,5.91,1.46,5.91,1.46l2.56,1.14,32.84,14.6,7.86,6.33h41.6v-8Z"/><path class="cls-17" d="M147.99,268.52c0,.36-.29,.65-.65,.65s-.65-.29-.65-.65,.29-.65,.65-.65,.65,.29,.65,.65Zm-59.61,14.97c-.36,0-.65,.29-.65,.65s.29,.65,.65,.65,.65-.29,.65-.65-.29-.65-.65-.65Zm77.52-5.6c-.36,0-.65,.29-.65,.65s.29,.65,.65,.65,.65-.29,.65-.65-.29-.65-.65-.65Zm-37.44-30.66c-.36,0-.65,.29-.65,.65s.29,.65,.65,.65,.65-.29,.65-.65-.29-.65-.65-.65Zm8.32,28.07c0-.36-.29-.65-.65-.65s-.65,.29-.65,.65,.29,.65,.65,.65,.65-.29,.65-.65Zm-91.38-50.11c0-.36-.29-.65-.65-.65s-.65,.29-.65,.65,.29,.65,.65,.65,.65-.29,.65-.65Zm-13.77,15.1c.36,0,.65-.29,.65-.65s-.29-.65-.65-.65-.65,.29-.65,.65,.29,.65,.65,.65Zm-2.06-15.31c0,.36,.29,.65,.65,.65s.65-.29,.65-.65-.29-.65-.65-.65-.65,.29-.65,.65Zm-2.42-17.62c0,.36,.29,.65,.65,.65s.65-.29,.65-.65-.29-.65-.65-.65-.65,.29-.65,.65Zm-2.44-9.22c.36,0,.65-.29,.65-.65s-.29-.65-.65-.65-.65,.29-.65,.65,.29,.65,.65,.65Zm1.85,51.08c0,.36,.29,.65,.65,.65s.65-.29,.65-.65-.29-.65-.65-.65-.65,.29-.65,.65Zm1.02-32.26c.36,0,.65-.29,.65-.65s-.29-.65-.65-.65-.65,.29-.65,.65,.29,.65,.65,.65Zm78.19,43.25c-.36,0-.65,.29-.65,.65s.29,.65,.65,.65,.65-.29,.65-.65-.29-.65-.65-.65Zm-34.49,19.75c-.36,0-.65,.29-.65,.65s.29,.65,.65,.65,.65-.29,.65-.65-.29-.65-.65-.65Zm20.63-10.02c-.36,0-.65,.29-.65,.65s.29,.65,.65,.65,.65-.29,.65-.65-.29-.65-.65-.65Zm-11.6-31.77c0-.36-.29-.65-.65-.65s-.65,.29-.65,.65,.29,.65,.65,.65,.65-.29,.65-.65Zm10.25-10.97c0-.36-.29-.65-.65-.65s-.65,.29-.65,.65,.29,.65,.65,.65,.65-.29,.65-.65Zm31.12,34.78c-.36,0-.65,.29-.65,.65s.29,.65,.65,.65,.65-.29,.65-.65-.29-.65-.65-.65Zm-10.19,16.51c-.36,0-.65,.29-.65,.65s.29,.65,.65,.65,.65-.29,.65-.65-.29-.65-.65-.65Zm14.67-23.65c-.36,0-.65,.29-.65,.65s.29,.65,.65,.65,.65-.29,.65-.65-.29-.65-.65-.65Zm-4.95,24.53c-.36,0-.65,.29-.65,.65s.29,.65,.65,.65,.65-.29,.65-.65-.29-.65-.65-.65Zm-68.07-23.43c-.36,0-.65,.29-.65,.65s.29,.65,.65,.65,.65-.29,.65-.65-.29-.65-.65-.65Zm-.74,26.68c-.36,0-.65,.29-.65,.65s.29,.65,.65,.65,.65-.29,.65-.65-.29-.65-.65-.65ZM11.15,200.96c-.36,0-.65,.29-.65,.65s.29,.65,.65,.65,.65-.29,.65-.65-.29-.65-.65-.65Zm8.38,59.84c0-.36-.29-.65-.65-.65s-.65,.29-.65,.65,.29,.65,.65,.65,.65-.29,.65-.65Zm58.36-4.88c.36,0,.65-.29,.65-.65s-.29-.65-.65-.65-.65,.29-.65,.65,.29,.65,.65,.65Zm-4.85-41.86c.36,0,.65-.29,.65-.65s-.29-.65-.65-.65-.65,.29-.65,.65,.29,.65,.65,.65ZM4.66,251.78c.36,0,.65-.29,.65-.65s-.29-.65-.65-.65c-.04,0-.07,0-.1,.01-.1-.33-.37-.6-.81-.6-1.14,0-1.14,1.77,0,1.77,.17,0,.3-.04,.42-.1,.12,.14,.3,.23,.49,.23Zm.29-39.48c-.36,0-.65,.29-.65,.65s.29,.65,.65,.65,.65-.29,.65-.65-.29-.65-.65-.65Zm30.78-4c0-.36-.29-.65-.65-.65s-.65,.29-.65,.65,.29,.65,.65,.65,.65-.29,.65-.65Zm12.17,27.07c-.36,0-.65,.29-.65,.65s.29,.65,.65,.65,.65-.29,.65-.65-.29-.65-.65-.65Zm18.65,16.7c.36,0,.65-.29,.65-.65s-.29-.65-.65-.65-.65,.29-.65,.65,.29,.65,.65,.65Zm-44.09-24.45c0-.36-.29-.65-.65-.65s-.65,.29-.65,.65,.29,.65,.65,.65,.65-.29,.65-.65Zm65.6,18.55c.36,0,.65-.29,.65-.65s-.29-.65-.65-.65-.65,.29-.65,.65,.29,.65,.65,.65ZM10.85,217.02c-.36,0-.65,.29-.65,.65s.29,.65,.65,.65,.65-.29,.65-.65-.29-.65-.65-.65Zm13.48-5.54c0,.36,.29,.65,.65,.65s.65-.29,.65-.65-.29-.65-.65-.65-.65,.29-.65,.65Zm56.09,17.6c.36,0,.65-.29,.65-.65s-.29-.65-.65-.65-.65,.29-.65,.65,.29,.65,.65,.65Zm-30.89,17.03c0-.65-.53-1.18-1.18-1.18s-1.18,.53-1.18,1.18,.53,1.18,1.18,1.18,1.18-.53,1.18-1.18Zm53.94,25.35c-.65,0-1.18,.53-1.18,1.18s.53,1.18,1.18,1.18,1.18-.53,1.18-1.18-.53-1.18-1.18-1.18ZM25.71,231.2c.84-.27,.75-1.72-.28-1.72-.02,0-.04,0-.06,0-.18-.1-.38-.17-.6-.17-.65,0-1.18,.53-1.18,1.18s.53,1.18,1.18,1.18c.39,0,.72-.19,.94-.47Zm52.12,47.34c-.65,0-1.18,.53-1.18,1.18s.53,1.18,1.18,1.18,1.18-.53,1.18-1.18-.53-1.18-1.18-1.18Zm-17.1,.88c-.65,0-1.18,.53-1.18,1.18s.53,1.18,1.18,1.18,1.18-.53,1.18-1.18-.53-1.18-1.18-1.18Zm9.08-41.21c.1,.33,.37,.6,.81,.6,1.14,0,1.14-1.77,0-1.77-.42,0-.68,.24-.79,.54-.13-.51-.59-.9-1.14-.9-.65,0-1.18,.53-1.18,1.18s.53,1.18,1.18,1.18c.53,0,.97-.35,1.12-.83Zm-4.66,25.88c-.65,0-1.18,.53-1.18,1.18s.53,1.18,1.18,1.18,1.18-.53,1.18-1.18-.53-1.18-1.18-1.18Zm22.99-4.42c-.65,0-1.18,.53-1.18,1.18s.53,1.18,1.18,1.18,1.18-.53,1.18-1.18-.53-1.18-1.18-1.18Zm-14.15,2.06c0-.65-.53-1.18-1.18-1.18s-1.18,.53-1.18,1.18,.53,1.18,1.18,1.18,1.18-.53,1.18-1.18Zm-66.03-2.95c.65,0,1.18-.53,1.18-1.18s-.53-1.18-1.18-1.18c-.1,0-.19,.01-.28,.04-.02-.42-.3-.83-.85-.83-1.13,0-1.14,1.73-.03,1.77-.01,.07-.02,.14-.02,.21,0,.65,.53,1.18,1.18,1.18Zm7.37-51.29c-.65,0-1.18,.53-1.18,1.18s.53,1.18,1.18,1.18,1.18-.53,1.18-1.18-.53-1.18-1.18-1.18Zm20.93,51.88c.65,0,1.18-.53,1.18-1.18s-.53-1.18-1.18-1.18-1.18,.53-1.18,1.18,.53,1.18,1.18,1.18Zm45.1,10.61c-.65,0-1.18,.53-1.18,1.18s.53,1.18,1.18,1.18,1.18-.53,1.18-1.18-.53-1.18-1.18-1.18Zm-42.15-36.55c0-.65-.53-1.18-1.18-1.18s-1.18,.53-1.18,1.18,.53,1.18,1.18,1.18,1.18-.53,1.18-1.18Zm-28.3,9.14c0,.65,.53,1.18,1.18,1.18s1.18-.53,1.18-1.18-.53-1.18-1.18-1.18-1.18,.53-1.18,1.18Zm-.59-17.39c0,.65,.53,1.18,1.18,1.18s1.18-.53,1.18-1.18-.53-1.18-1.18-1.18-1.18,.53-1.18,1.18Zm16.21,35.67c.65,0,1.18-.53,1.18-1.18s-.53-1.18-1.18-1.18-1.18,.53-1.18,1.18,.53,1.18,1.18,1.18Zm9.14-17.39c.65,0,1.18-.53,1.18-1.18s-.53-1.18-1.18-1.18-1.18,.53-1.18,1.18,.53,1.18,1.18,1.18Zm1.18,39.2c-.65,0-1.18,.53-1.18,1.18s.53,1.18,1.18,1.18,1.18-.53,1.18-1.18-.53-1.18-1.18-1.18Zm2.06-61.31c0-.65-.53-1.18-1.18-1.18s-1.18,.53-1.18,1.18,.53,1.18,1.18,1.18,1.18-.53,1.18-1.18ZM6.5,279.13c-.65,0-1.18,.53-1.18,1.18s.53,1.18,1.18,1.18,1.18-.53,1.18-1.18-.53-1.18-1.18-1.18Zm-4.13-40.38c0-.65-.53-1.18-1.18-1.18s-1.18,.53-1.18,1.18,.53,1.18,1.18,1.18,1.18-.53,1.18-1.18Zm39.2,32.13c.65,0,1.18-.53,1.18-1.18s-.53-1.18-1.18-1.18-1.18,.53-1.18,1.18,.53,1.18,1.18,1.18Zm-26.82-50.11c0,.65,.53,1.18,1.18,1.18s1.18-.53,1.18-1.18-.53-1.18-1.18-1.18-1.18,.53-1.18,1.18Zm287.99,0c.65,0,1.18-.53,1.18-1.18s-.53-1.18-1.18-1.18-1.18,.53-1.18,1.18,.53,1.18,1.18,1.18Zm-14.74,12.97c-.65,0-1.18,.53-1.18,1.18s.53,1.18,1.18,1.18,1.18-.53,1.18-1.18-.53-1.18-1.18-1.18Zm-28.89,34.49c-.65,0-1.18,.53-1.18,1.18s.53,1.18,1.18,1.18,1.18-.53,1.18-1.18-.53-1.18-1.18-1.18Zm3.54,8.55c-.65,0-1.18,.53-1.18,1.18s.53,1.18,1.18,1.18,1.18-.53,1.18-1.18-.53-1.18-1.18-1.18Zm56.6-30.36c-.65,0-1.18,.53-1.18,1.18s.53,1.18,1.18,1.18,1.18-.53,1.18-1.18-.53-1.18-1.18-1.18Zm-51.58,12.38c-.65,0-1.18,.53-1.18,1.18s.53,1.18,1.18,1.18,1.18-.53,1.18-1.18-.53-1.18-1.18-1.18Zm-30.66,10.91c-.65,0-1.18,.53-1.18,1.18s.53,1.18,1.18,1.18,1.18-.53,1.18-1.18-.53-1.18-1.18-1.18Zm38.32-7.37c-.65,0-1.18,.53-1.18,1.18s.53,1.18,1.18,1.18,1.18-.53,1.18-1.18-.53-1.18-1.18-1.18Zm-3.54-27.41c-.65,0-1.18,.53-1.18,1.18s.53,1.18,1.18,1.18,1.18-.53,1.18-1.18-.53-1.18-1.18-1.18Zm-19.45,22.99c-.65,0-1.18,.53-1.18,1.18s.53,1.18,1.18,1.18,1.18-.53,1.18-1.18-.53-1.18-1.18-1.18Zm51.29-26.23c0-.65-.53-1.18-1.18-1.18s-1.18,.53-1.18,1.18,.53,1.18,1.18,1.18,1.18-.53,1.18-1.18Zm-4.72,35.08c-.65,0-1.18,.53-1.18,1.18s.53,1.18,1.18,1.18,1.18-.53,1.18-1.18-.53-1.18-1.18-1.18Zm4.72,14.15c-.65,0-1.18,.53-1.18,1.18s.53,1.18,1.18,1.18,1.18-.53,1.18-1.18-.53-1.18-1.18-1.18Zm.59-25.64c-.65,0-1.18,.53-1.18,1.18s.53,1.18,1.18,1.18,1.18-.53,1.18-1.18-.53-1.18-1.18-1.18Zm7.07-17.1c-.65,0-1.18,.53-1.18,1.18s.53,1.18,1.18,1.18,1.18-.53,1.18-1.18-.53-1.18-1.18-1.18Zm4.42-10.61c-.65,0-1.18,.53-1.18,1.18s.53,1.18,1.18,1.18,1.18-.53,1.18-1.18-.53-1.18-1.18-1.18Zm-1.77,29.18c-.65,0-1.18,.53-1.18,1.18s.53,1.18,1.18,1.18,1.18-.53,1.18-1.18-.53-1.18-1.18-1.18Zm10.61-38.91c-.65,0-1.18,.53-1.18,1.18s.53,1.18,1.18,1.18,1.18-.53,1.18-1.18-.53-1.18-1.18-1.18Zm4.42,4.42c-.65,0-1.18,.53-1.18,1.18s.53,1.18,1.18,1.18,1.18-.53,1.18-1.18-.53-1.18-1.18-1.18Zm4.72,33.6c0-.65-.53-1.18-1.18-1.18s-1.18,.53-1.18,1.18,.53,1.18,1.18,1.18,1.18-.53,1.18-1.18Zm-8.55-50.11c-.65,0-1.18,.53-1.18,1.18s.53,1.18,1.18,1.18,1.18-.53,1.18-1.18-.53-1.18-1.18-1.18Zm14.15,30.07c-.65,0-1.18,.53-1.18,1.18s.53,1.18,1.18,1.18,1.18-.53,1.18-1.18-.53-1.18-1.18-1.18Zm-10.91,3.83c-.65,0-1.18,.53-1.18,1.18s.53,1.18,1.18,1.18,1.18-.53,1.18-1.18-.53-1.18-1.18-1.18Zm-48.64,38.02c-.65,0-1.18,.53-1.18,1.18s.53,1.18,1.18,1.18,1.18-.53,1.18-1.18-.53-1.18-1.18-1.18Zm61.9-62.79c-.65,0-1.18,.53-1.18,1.18s.53,1.18,1.18,1.18,1.18-.53,1.18-1.18-.53-1.18-1.18-1.18Zm-7.66,62.49c-.65,0-1.18,.53-1.18,1.18s.53,1.18,1.18,1.18,1.18-.53,1.18-1.18-.53-1.18-1.18-1.18ZM13.15,245.74c-1.14,0-1.14,1.77,0,1.77s1.14-1.77,0-1.77Zm2.65-10.76c1.14,0,1.14-1.77,0-1.77s-1.14,1.77,0,1.77Zm-1.88-9.41c-1.14,0-1.14,1.77,0,1.77s1.14-1.77,0-1.77Zm-.28,23.75c1.14,0,1.14-1.77,0-1.77s-1.14,1.77,0,1.77Zm1.77-20.44c1.14,0,1.14-1.77,0-1.77s-1.14,1.77,0,1.77Zm.69,17.88c1.14,0,1.14-1.77,0-1.77s-1.14,1.77,0,1.77Zm2.65,1.97c1.14,0,1.14-1.77,0-1.77s-1.14,1.77,0,1.77Zm1.57-8.45c-1.14,0-1.14,1.77,0,1.77s1.14-1.77,0-1.77Zm-12.18-2.36c-1.14,0-1.14,1.77,0,1.77s1.14-1.77,0-1.77Zm12.38-6.68c-1.14,0-1.14,1.77,0,1.77s1.14-1.77,0-1.77Zm.29-13.36c-1.14,0-1.14,1.77,0,1.77s1.14-1.77,0-1.77Zm-9.14,32.13c1.14,0,1.14-1.77,0-1.77s-1.14,1.77,0,1.77Zm5.6,2.95c1.14,0,1.14-1.77,0-1.77s-1.14,1.77,0,1.77Zm-.29-14.15c-1.14,0-1.14,1.77,0,1.77s1.14-1.77,0-1.77Zm2.95,3.83c-1.14,0-1.14,1.77,0,1.77s1.14-1.77,0-1.77Zm-1.14,11.67c1.14,0,1.14-1.77,0-1.77s-1.14,1.77,0,1.77Zm-5.63-31.71c1.14,0,1.14-1.77,0-1.77s-1.14,1.77,0,1.77Zm1.47-6.68c1.14,0,1.14-1.77,0-1.77s-1.14,1.77,0,1.77Zm-1.77,2.55c-1.14,0-1.14,1.77,0,1.77s1.14-1.77,0-1.77Zm3.83,4.72c-1.14,0-1.14,1.77,0,1.77s1.14-1.77,0-1.77Zm.57,13.6c-.02-.34-.3-.62-.65-.62-.08,0-.15,.02-.22,.04-.08-.02-.16-.04-.25-.04-1.14,0-1.14,1.77,0,1.77,.02,0,.03,0,.05,0,.1,.32,.37,.57,.8,.57,1.04,0,1.13-1.46,.27-1.72Zm.71-29.13c-1.14,0-1.14,1.77,0,1.77s1.14-1.77,0-1.77Zm-9.53,7.57c1.14,0,1.14-1.77,0-1.77s-1.14,1.77,0,1.77Zm3.72,17.86c-1.14,0-1.14,1.77,0,1.77s1.14-1.77,0-1.77Zm4.53-17.86c1.14,0,1.14-1.77,0-1.77s-1.14,1.77,0,1.77Zm0,2.36c-1.14,0-1.14,1.77,0,1.77s1.14-1.77,0-1.77Zm-5.6-6.78c-1.14,0-1.14,1.77,0,1.77s1.14-1.77,0-1.77Zm8.58,22.28c-1.14,0-1.14,1.77,0,1.77s1.14-1.77,0-1.77Zm-9.17-5.77c-1.14,0-1.14,1.77,0,1.77s1.14-1.77,0-1.77Zm-.88-22.11v.29c0,.48,.4,.88,.88,.88s.88-.4,.88-.88v-.29c0-.48-.4-.88-.88-.88s-.88,.4-.88,.88Zm-.1,19.55c1.14,0,1.14-1.77,0-1.77s-1.14,1.77,0,1.77Zm3.93,10.22c-1.14,0-1.14,1.77,0,1.77s1.14-1.77,0-1.77Zm4.32-9.43c-.14,0-.27,.03-.37,.08-.14-.22-.37-.37-.71-.37-1.14,0-1.14,1.77,0,1.77,.14,0,.27-.03,.37-.08,.14,.22,.37,.37,.71,.37,1.14,0,1.14-1.77,0-1.77Zm-4.32,5.31c-.12,0-.22,.02-.32,.06-.14-.12-.33-.21-.57-.21-1.14,0-1.14,1.77,0,1.77,.12,0,.22-.02,.32-.06,.14,.12,.33,.21,.57,.21,1.14,0,1.14-1.77,0-1.77Zm0,8.25c-.12,0-.22,.02-.32,.06-.14-.12-.33-.21-.57-.21-1.14,0-1.14,1.77,0,1.77,.12,0,.22-.02,.32-.06,.14,.12,.33,.21,.57,.21,1.14,0,1.14-1.77,0-1.77Zm-2.95-18.87c-1.14,0-1.14,1.77,0,1.77s1.14-1.77,0-1.77Zm17.39-7.96c1.14,0,1.14-1.77,0-1.77s-1.14,1.77,0,1.77Zm-4.72-2.36c1.14,0,1.14-1.77,0-1.77s-1.14,1.77,0,1.77Zm.59-2.95c1.14,0,1.14-1.77,0-1.77s-1.14,1.77,0,1.77Zm-1.67,5.6c1.14,0,1.14-1.77,0-1.77s-1.14,1.77,0,1.77Zm-2.81,2.57s-.09-.01-.13-.01c-1.14,0-1.14,1.77,0,1.77,.53,0,.81-.39,.85-.8,.04,0,.09,.01,.13,.01,1.14,0,1.14-1.77,0-1.77-.53,0-.81,.39-.85,.8Zm-.23-4.63c-1.14,0-1.14,1.77,0,1.77s1.14-1.77,0-1.77Zm2.06-4.42c-.57,0-.86,.45-.85,.89-.28,.52-.04,1.34,.74,1.34,.57,0,.86-.45,.85-.89,.28-.52,.04-1.34-.74-1.34Zm-13.41,41.71c-1.14,0-1.14,1.77,0,1.77s1.14-1.77,0-1.77Zm176.89,31.27c-1.14,0-1.14,1.77,0,1.77s1.14-1.77,0-1.77ZM26.12,199.32c-1.14,0-1.14,1.77,0,1.77s1.14-1.77,0-1.77Zm150.33,73.69c-1.14,0-1.14,1.77,0,1.77s1.14-1.77,0-1.77ZM24.94,194.6c-1.14,0-1.14,1.77,0,1.77s1.14-1.77,0-1.77Zm149.15,56.3c-1.14,0-1.14,1.77,0,1.77s1.14-1.77,0-1.77ZM11.97,199.91c-.1,0-.19-.02-.27-.04,0,.02,0,.04,0,.07,0,.47-.4,.9-.88,.88-.39-.01-.72-.15-1.01-.42-.01-.01-.03-.03-.05-.05-.32-.07-.57-.3-.67-.6-.59-.43-.42-1.61,.51-1.61,.43,0,.7,.25,.8,.56,.19,.07,.37,.17,.53,.33,.01,.01,.03,.03,.05,.05,.04,0,.08,.02,.12,.04-.04-.47,.24-.97,.85-.97,1.14,0,1.14,1.77,0,1.77Zm-2.09,.46h0Zm1.03-1.31h0Zm157.88,45.06c-1.14,0-1.14,1.77,0,1.77s1.14-1.77,0-1.77ZM8.72,213.17c1.14,0,1.14-1.77,0-1.77s-1.14,1.77,0,1.77Zm7.27-14.15c-1.14,0-1.14,1.77,0,1.77s1.14-1.77,0-1.77Zm-7.27,10.22c1.14,0,1.14-1.77,0-1.77s-1.14,1.77,0,1.77Zm181.58,51.68c-1.14,0-1.14,1.77,0,1.77s1.14-1.77,0-1.77ZM15.21,195.78c-1.14,0-1.14,1.77,0,1.77s1.14-1.77,0-1.77Zm-.59-2.36c-1.14,0-1.14,1.77,0,1.77s1.14-1.77,0-1.77Zm-2.16,21.91c1.14,0,1.14-1.77,0-1.77s-1.14,1.77,0,1.77Zm1.46-7.89c1.14,0,1.14-1.77,0-1.77s-1.14,1.77,0,1.77Zm12.49,14.86c-1.14,0-1.14,1.77,0,1.77,.31,0,.53-.13,.67-.32-.17,.52,.09,1.2,.8,1.2,1.14,0,1.14-1.77,0-1.77-.31,0-.53,.13-.67,.32,.17-.52-.09-1.2-.8-1.2Zm-12.4-18.03c-.46,.49-.26,1.52,.61,1.52,1.01,0,1.12-1.38,.35-1.7,.46-.49,.26-1.52-.61-1.52-1.01,0-1.12,1.38-.35,1.7Zm9.46,8.69c-1.14,0-1.14,1.77,0,1.77s1.14-1.77,0-1.77Zm1.47,4.62c1.14,0,1.14-1.77,0-1.77s-1.14,1.77,0,1.77Zm-1.12,17.92c.34,.34,.91,.34,1.25,0,.34-.34,.34-.91,0-1.25-.07-.07-.13-.13-.2-.2-.34-.34-.91-.34-1.25,0-.34,.34-.34,.91,0,1.25,.07,.07,.13,.13,.2,.2Zm2.59,7.43c1.14,0,1.14-1.77,0-1.77s-1.14,1.77,0,1.77Zm191.77,15.35c-1.14,0-1.14,1.77,0,1.77s1.14-1.77,0-1.77Zm11.94-18.57c-1.14,0-1.14,1.77,0,1.77s1.14-1.77,0-1.77Zm-201.35-5.62c1.14,0,1.14-1.77,0-1.77s-1.14,1.77,0,1.77Zm-2.91-32.4c-.48,0-.88,.4-.88,.88v.44c0,.48,.4,.88,.88,.88s.88-.4,.88-.88v-.44c0-.48-.4-.88-.88-.88Zm2.72,18.35c1.14,0,1.14-1.77,0-1.77s-1.14,1.77,0,1.77Zm-4.23,6.68c.18,0,.32-.05,.44-.12,.13,.24,.38,.41,.74,.41,1.03,0,1.13-1.42,.31-1.71,.47-.48,.28-1.53-.6-1.53-.7,0-.97,.67-.81,1.19-.03,0-.05,0-.08,0-1.14,0-1.14,1.77,0,1.77Zm.29-7.07c-.95,0-1.11,1.24-.46,1.64-.25,.52,0,1.31,.76,1.31,.95,0,1.11-1.24,.46-1.64,.25-.52,0-1.31-.76-1.31Zm6.19,.88c-1.14,0-1.14,1.77,0,1.77s1.14-1.77,0-1.77Zm162.15,24.49c-1.14,0-1.14,1.77,0,1.77s1.14-1.77,0-1.77Zm-163.03-13.88c1.14,0,1.14-1.77,0-1.77s-1.14,1.77,0,1.77Zm-.39-29.38c-1.14,0-1.14,1.77,0,1.77s1.14-1.77,0-1.77Zm-.49-4.81c-1.14,0-1.14,1.77,0,1.77s1.14-1.77,0-1.77Zm-.49,16.02c-1.14,0-1.14,1.77,0,1.77s1.14-1.77,0-1.77Zm-.51,27.63c-1.14,0-1.14,1.77,0,1.77s1.14-1.77,0-1.77Zm176.41-6.19c-1.14,0-1.14,1.77,0,1.77s1.14-1.77,0-1.77Zm-175.71,12.65c-.02-.43-.2-.77-.57-1.01-.17-.11-.42-.17-.61-.17-.48,0-.88,.41-.88,.88,0,.32,.18,.6,.43,.75,.15,.25,.42,.43,.74,.43,.47,0,.91-.4,.88-.88Zm183.93,20.34c-1.14,0-1.14,1.77,0,1.77s1.14-1.77,0-1.77ZM29.75,236.07c.11,.06,.24,.09,.4,.09,1.14,0,1.14-1.77,0-1.77-.42,0-.69,.25-.8,.55-.11-.06-.24-.09-.4-.09-.57,0-.86,.44-.86,.89-.01,0-.02,0-.03,0-1.14,0-1.14,1.77,0,1.77,.57,0,.86-.44,.86-.89,.01,0,.02,0,.03,0,.42,0,.69-.25,.8-.55Zm-15.13-22.71c1.14,0,1.14-1.77,0-1.77s-1.14,1.77,0,1.77Zm32.23,47.16c-1.14,0-1.14,1.77,0,1.77s1.14-1.77,0-1.77Zm.2-65.05c1.14,0,1.14-1.77,0-1.77s-1.14,1.77,0,1.77Zm-.39,75.85c1.14,0,1.14-1.77,0-1.77s-1.14,1.77,0,1.77Zm2.16-56.1c1.14,0,1.14-1.77,0-1.77s-1.14,1.77,0,1.77Zm.59,10.91c-1.14,0-1.14,1.77,0,1.77s1.14-1.77,0-1.77Zm.88,6.19c1.14,0,1.14-1.77,0-1.77s-1.14,1.77,0,1.77Zm-1.47-29.97c.48,0,.75-.31,.83-.67,.03,0,.06,0,.09,0,.18,0,.33-.05,.45-.12,0,.04-.01,.08-.01,.12,0,.36,.22,.66,.52,.8,.14,.31,.45,.53,.8,.53,.48,0,.89-.4,.88-.88,0-.25-.07-.47-.19-.69-.22-.42-.69-.62-1.14-.64-.18,0-.34,.05-.48,.14,.07-.48-.21-1.03-.84-1.03-.48,0-.75,.31-.83,.67-.03,0-.06,0-.09,0-1.14,0-1.14,1.77,0,1.77Zm-13.76,10.81c1.14,0,1.14-1.77,0-1.77s-1.14,1.77,0,1.77Zm16.41-8.84c-1.14,0-1.14,1.77,0,1.77s1.14-1.77,0-1.77Zm-3.44,37.73c1.14,0,1.14-1.77,0-1.77s-1.14,1.77,0,1.77Zm-.39-13.26c-1.14,0-1.14,1.77,0,1.77s1.14-1.77,0-1.77Zm-4.32,23.88c-.86,0-1.07,1-.64,1.49-.67,.39-.52,1.65,.44,1.65,.86,0,1.07-1,.64-1.49,.67-.39,.52-1.65-.44-1.65Zm-10.42-55.81c1.14,0,1.14-1.77,0-1.77s-1.14,1.77,0,1.77Zm13.85-4.03c1.14,0,1.14-1.77,0-1.77s-1.14,1.77,0,1.77Zm-29.92,12.15c.06,.06,.12,.12,.18,.19,0,.02,0,.05,0,.07,0,.48,.4,.88,.88,.88s.88-.4,.88-.88c0-.09,0-.18,0-.27-.01-.13-.03-.22-.05-.3,.12,.15,.3,.25,.51,.25,.36,0,.65-.29,.65-.65s-.29-.65-.65-.65-.65,.29-.65,.65c0,.02,0,.04,0,.06-.11-.23-.33-.42-.51-.6-.34-.34-.91-.34-1.25,0-.34,.34-.34,.91,0,1.25Zm16.54,6.89c1.14,0,1.14-1.77,0-1.77s-1.14,1.77,0,1.77Zm-.77-20.81c-1.14,0-1.14,1.77,0,1.77s1.14-1.77,0-1.77Zm-14.74,2.95c-1.14,0-1.14,1.77,0,1.77s1.14-1.77,0-1.77Zm27.71,21.81c1.14,0,1.14-1.77,0-1.77s-1.14,1.77,0,1.77Zm-40.24-10.33c-.34,.34-.34,.91,0,1.25,.34,.34,.91,.34,1.25,0,.15-.15,.29-.29,.44-.44,.34-.34,.34-.91,0-1.25-.12-.12-.27-.2-.43-.23,.19-.11,.32-.32,.32-.56,0-.36-.29-.65-.65-.65s-.65,.29-.65,.65c0,.28,.18,.52,.43,.61-.1,.04-.19,.1-.27,.18-.15,.15-.29,.29-.44,.44Zm47.02-6.47c1.14,0,1.14-1.77,0-1.77s-1.14,1.77,0,1.77Zm-35.08,70.58c-.34,.34-.34,.91,0,1.25l.44,.44c.34,.34,.91,.34,1.25,0,.34-.34,.34-.91,0-1.25l-.44-.44c-.34-.34-.91-.34-1.25,0Zm29.18-52.31c-1.14,0-1.14,1.77,0,1.77s1.14-1.77,0-1.77Zm25.06-18.57c1.14,0,1.14-1.77,0-1.77s-1.14,1.77,0,1.77Zm-.1,47.26h-.2c-.48,0-.88,.4-.88,.88s.4,.88,.88,.88h.2c.48,0,.88-.4,.88-.88s-.4-.88-.88-.88Zm-1.97-18.37c1.14,0,1.14-1.77,0-1.77s-1.14,1.77,0,1.77Zm-15.33-9.43c1.14,0,1.14-1.77,0-1.77s-1.14,1.77,0,1.77ZM6.96,252.96c1.14,0,1.14-1.77,0-1.77s-1.14,1.77,0,1.77Zm120.85-40.09c1.14,0,1.14-1.77,0-1.77s-1.14,1.77,0,1.77Zm-62.49,47.26c1.14,0,1.14-1.77,0-1.77s-1.14,1.77,0,1.77Zm48.93-33.11c1.14,0,1.14-1.77,0-1.77s-1.14,1.77,0,1.77Zm-32.23,21.13c.21,.01,.42,.05,.59,.17,.05,.04,.09,.07,.13,.1,.32,.13,.55,.42,.55,.81,0,.46-.4,.92-.88,.88-.21-.01-.42-.05-.59-.17-.05-.04-.09-.07-.13-.1-.32-.13-.55-.42-.55-.81,0-.46,.4-.92,.88-.88Zm-.14,1.75s-.02,0-.03,0h.03Zm.68-1.52s.02,0,.03,0h-.03Zm8.5,4.85h.01l.02,.02c.35,.29,.87,.28,1.2-.04,.34-.34,.34-.91,0-1.25-.28-.28-.63-.43-1.02-.46-.48-.03-.88,.43-.88,.88,0,.43,.29,.75,.68,.85Zm-9.52-34.16c1.14,0,1.14-1.77,0-1.77s-1.14,1.77,0,1.77Zm-17.39-.88c1.14,0,1.14-1.77,0-1.77s-1.14,1.77,0,1.77Zm-6.48,17.69c1.14,0,1.14-1.77,0-1.77s-1.14,1.77,0,1.77Zm4.13-4.72c1.14,0,1.14-1.77,0-1.77s-1.14,1.77,0,1.77Zm-7.24-39.04c.16,.25,.44,.43,.75,.43,.48,0,.88-.4,.88-.88,0-.35-.07-.61-.3-.88-.21-.25-.58-.3-.88-.3-.48,0-.88,.4-.88,.88,0,.32,.17,.59,.43,.75Zm6.35,18.11c1.14,0,1.14-1.77,0-1.77s-1.14,1.77,0,1.77Zm-4.42-.29c1.14,0,1.14-1.77,0-1.77s-1.14,1.77,0,1.77Zm2.95-11.5c1.14,0,1.14-1.77,0-1.77s-1.14,1.77,0,1.77Zm2.16,69.17c-1.14,0-1.14,1.77,0,1.77s1.14-1.77,0-1.77Zm-1.57-43.82c-1.14,0-1.14,1.77,0,1.77s1.14-1.77,0-1.77Zm-.59,21.42c1.14,0,1.14-1.77,0-1.77-.61,0-.89,.51-.85,.99-.14-.23-.38-.4-.72-.4-1.14,0-1.14,1.77,0,1.77,.61,0,.89-.51,.85-.99,.14,.23,.38,.4,.72,.4Zm.98,26.92c1.14,0,1.14-1.77,0-1.77s-1.14,1.77,0,1.77Zm6.39-68.68c1.14,0,1.14-1.77,0-1.77s-1.14,1.77,0,1.77ZM-2.28,231.84c-1.14,0-1.14,1.77,0,1.77s1.14-1.77,0-1.77Zm2.95,3.14c.62,0,.91-.53,.85-1.01,0,0,.02,0,.03,0,1.14,0,1.14-1.77,0-1.77-.62,0-.91,.53-.85,1.01,0,0-.02,0-.03,0-1.14,0-1.14,1.77,0,1.77Zm-3.14,2.06c.31,0,.53-.13,.67-.32,.14,.2,.37,.34,.69,.34,1.14,0,1.14-1.77,0-1.77-.31,0-.53,.13-.67,.32-.14-.2-.37-.34-.69-.34-1.14,0-1.14,1.77,0,1.77Zm4.13-9.73c1.14,0,1.14-1.77,0-1.77s-1.14,1.77,0,1.77Zm-4.13,12.58c1.14,0,1.14-1.77,0-1.77s-1.14,1.77,0,1.77Zm8.25-21.42c-1.14,0-1.14,1.77,0,1.77s1.14-1.77,0-1.77Zm.59,22.4c1.14,0,1.14-1.77,0-1.77s-1.14,1.77,0,1.77Zm-8.84,1.47c1.14,0,1.14-1.77,0-1.77s-1.14,1.77,0,1.77Zm6.94-31.71c-.03-.42-.31-.81-.85-.81-.96,0-1.11,1.24-.46,1.64,.03,.42,.31,.81,.85,.81,.96,0,1.11-1.24,.46-1.64Zm-1.93,11.67c1.14,0,1.14-1.77,0-1.77s-1.14,1.77,0,1.77Zm-.29-2.06c1.14,0,1.14-1.77,0-1.77s-1.14,1.77,0,1.77Zm-3.24,23.88c-1.14,0-1.14,1.77,0,1.77s1.14-1.77,0-1.77Zm38.02-14.74c1.14,0,1.14-1.77,0-1.77s-1.14,1.77,0,1.77ZM1.94,260.33c1.14,0,1.14-1.77,0-1.77s-1.14,1.77,0,1.77Zm1.18-7.96c-1.14,0-1.14,1.77,0,1.77s1.14-1.77,0-1.77Zm-2.95,.59c-1.14,0-1.14,1.77,0,1.77s1.14-1.77,0-1.77Zm5.78-11.47c-1.14,0-1.14,1.77,0,1.77s1.14-1.77,0-1.77Zm-7.55,5.58c-1.14,0-1.14,1.77,0,1.77s1.14-1.77,0-1.77Zm1.77,9.14c-1.14,0-1.14,1.77,0,1.77s1.14-1.77,0-1.77Zm-1.77,5.31c-1.14,0-1.14,1.77,0,1.77s1.14-1.77,0-1.77Zm7.33-26.72c.54-.46,.36-1.58-.55-1.58-.53,0-.81,.38-.85,.78-.54,.46-.36,1.58,.55,1.58,.53,0,.81-.38,.85-.78ZM.47,272.42c1.14,0,1.14-1.77,0-1.77s-1.14,1.77,0,1.77Zm1.03-24.91c-1.14,0-1.14,1.77,0,1.77s1.14-1.77,0-1.77Zm30.98-33.43c1.14,0,1.14-1.77,0-1.77s-1.14,1.77,0,1.77Zm2.57,5.58c-1.14,0-1.14,1.77,0,1.77s1.14-1.77,0-1.77Zm.08,2.82c-1.14,0-1.14,1.77,0,1.77s1.14-1.77,0-1.77Zm-25.53,10.15c-.7,0-.97,.67-.81,1.19-.03,0-.05,0-.08,0-.94,0-1.1,1.2-.49,1.62-.61,.42-.45,1.62,.49,1.62s1.1-1.2,.49-1.62c.33-.23,.43-.67,.31-1.04,.03,0,.05,0,.08,0,1.14,0,1.14-1.77,0-1.77Zm13.76-11.94c.36-.51,.13-1.42-.69-1.42-.94,0-1.1,1.2-.49,1.62-.15,.22-.2,.5-.14,.75-.85,.26-.76,1.72,.27,1.72,.66,0,.94-.6,.83-1.1,.69-.21,.76-1.2,.22-1.58Zm12.22,5.33c-.89,0-1.08,1.06-.59,1.54-.87,.25-.78,1.73,.26,1.73,.89,0,1.08-1.06,.59-1.54,.87-.25,.78-1.73-.26-1.73Zm-1.9,12.5c1.14,0,1.14-1.77,0-1.77s-1.14,1.77,0,1.77Zm.59-6.88c-1.14,0-1.14,1.77,0,1.77s1.14-1.77,0-1.77Zm-36.75,.1c1.14,0,1.14-1.77,0-1.77s-1.14,1.77,0,1.77Zm38.61,5.31c-1.14,0-1.14,1.77,0,1.77s1.14-1.77,0-1.77ZM-2.87,222.01c-1.14,0-1.14,1.77,0,1.77s1.14-1.77,0-1.77Zm6.48,1.77c-1.12,0-1.14,1.7-.06,1.76,.09,.04,.18,.07,.29,.07,.36,0,.65-.29,.65-.65,0-.07-.01-.14-.04-.2,.04-.47-.24-.98-.85-.98Zm-1.57,18.67c1.14,0,1.14-1.77,0-1.77s-1.14,1.77,0,1.77Zm2.55-10.41c1.14,0,1.14-1.77,0-1.77s-1.14,1.77,0,1.77Zm-.98,11.79c1.14,0,1.14-1.77,0-1.77s-1.14,1.77,0,1.77Zm.1,1.77c1.14,0,1.14-1.77,0-1.77s-1.14,1.77,0,1.77Zm.88-9.43c-.81,0-1.04,.88-.71,1.4-.83,.28-.73,1.72,.3,1.72,.23,0,.41-.07,.54-.18,.73-.1,.9-.99,.52-1.46,.41-.5,.19-1.47-.65-1.47Zm-3.54-5.31c.8,0,1.04-.87,.72-1.39,.52-.47,.33-1.56-.57-1.56-.8,0-1.04,.87-.72,1.39-.52,.47-.33,1.56,.57,1.56Zm-2.06-4.42c.77,0,1.02-.8,.75-1.33,.27-.52,.02-1.33-.75-1.33s-1.02,.8-.75,1.33c-.27,.52-.02,1.33,.75,1.33Zm7.37-11.5s-.02,0-.03,0c0-.44-.28-.89-.86-.89-1.14,0-1.14,1.77,0,1.77,.01,0,.02,0,.03,0,0,.1,.02,.2,.05,.3,0,.02-.01,.05-.02,.07-.1-.04-.22-.07-.35-.07-1.14,0-1.14,1.77,0,1.77,.47,0,.75-.3,.83-.66,.1,.04,.22,.07,.35,.07,.7,0,.97-.66,.81-1.18,.16-.51-.11-1.18-.81-1.18Zm-.29,12.97c-1.13,0-1.14,1.73-.03,1.77-.17,.5,.08,1.16,.75,1.2-.4,.08-.71,.44-.71,.87,0,.48,.4,.88,.88,.88h.59c.48,0,.88-.4,.88-.88s-.4-.88-.88-.88h-.49c.91-.2,.85-1.71-.18-1.74,.18-.52-.09-1.21-.8-1.21Zm7.07-38.02c.36,0,.6-.17,.74-.41,.12,.07,.27,.12,.44,.12,1.14,0,1.14-1.77,0-1.77-.36,0-.6,.17-.74,.41-.12-.07-.27-.12-.44-.12-1.14,0-1.14,1.77,0,1.77Zm124.13,92.28c-1.14,0-1.14,1.77,0,1.77s1.14-1.77,0-1.77Zm-126.48-10.34c-1.14,0-1.14,1.77,0,1.77s1.14-1.77,0-1.77Zm-1.73-6.46c-.32,0-.54,.14-.68,.34-.08-.35-.36-.65-.83-.65-.74,0-1,.75-.77,1.27-.11-.06-.25-.1-.41-.1-1.14,0-1.14,1.77,0,1.77,.74,0,1-.75,.77-1.27,.11,.06,.25,.09,.41,.09,.32,0,.54-.14,.68-.34,.08,.35,.36,.65,.83,.65,1.14,0,1.14-1.77,0-1.77Zm-4.75,15.01c-1.14,0-1.14,1.77,0,1.77s1.14-1.77,0-1.77Zm5.9-4.72c1.14,0,1.14-1.77,0-1.77s-1.14,1.77,0,1.77Zm.59,3.24c-.47,0-.75,.3-.83,.66-.1-.04-.22-.07-.35-.07-1.14,0-1.14,1.77,0,1.77,.47,0,.75-.3,.83-.66,.1,.04,.22,.07,.35,.07,1.14,0,1.14-1.77,0-1.77Zm-5.75,5.16c-1.14,0-1.14,1.77,0,1.77s1.14-1.77,0-1.77Zm-7.81-.44c-1.14,0-1.14,1.77,0,1.77s1.14-1.77,0-1.77Zm0-12.38c-1.14,0-1.14,1.77,0,1.77s1.14-1.77,0-1.77Zm3.98,14.15c-1.14,0-1.14,1.77,0,1.77s1.14-1.77,0-1.77Zm-1.92-5.9c-1.14,0-1.14,1.77,0,1.77s1.14-1.77,0-1.77Zm24.91-4.86c-1.14,0-1.14,1.77,0,1.77s1.14-1.77,0-1.77Zm-9.67-7.07c.96-.17,.91-1.75-.17-1.75-.94,0-1.1,1.19-.5,1.62-.96,.17-.91,1.75,.17,1.75,.94,0,1.1-1.19,.5-1.62Zm3.33,16.65c-1.14,0-1.14,1.77,0,1.77s1.14-1.77,0-1.77Zm2.06-10.02c-1.14,0-1.14,1.77,0,1.77s1.14-1.77,0-1.77Zm-1.18,3.54c-.19,0-.35,.05-.48,.14-.11-.2-.32-.33-.57-.33-.36,0-.65,.29-.65,.65s.29,.65,.65,.65c.07,0,.15-.02,.21-.04,.07,.37,.35,.69,.84,.69,1.14,0,1.14-1.77,0-1.77Zm4.92-6.17h.42c.48,0,.88-.4,.88-.88s-.4-.88-.88-.88h-.88c-.38,0-.71,.25-.83,.6-.06-.08-.13-.15-.22-.2,.85-.26,.76-1.72-.27-1.72-.96,0-1.11,1.24-.46,1.64-.85,.26-.76,1.72,.27,1.72,.45,0,.72-.28,.82-.62,.16,.21,.41,.34,.69,.34h.06c-.93,.2-.86,1.75,.2,1.75s1.14-1.55,.2-1.75Zm-1.97,11.18c-1.14,0-1.14,1.77,0,1.77s1.14-1.77,0-1.77Zm-4.42-16.21c-1.14,0-1.14,1.77,0,1.77s1.14-1.77,0-1.77Zm-20.93,10.46c-1.14,0-1.14,1.77,0,1.77s1.14-1.77,0-1.77Zm16.8-6.63h-.59c-.48,0-.88,.4-.88,.88s.4,.88,.88,.88h.59c.48,0,.88-.4,.88-.88s-.4-.88-.88-.88Zm-.29,13.85c-1.14,0-1.14,1.77,0,1.77s1.14-1.77,0-1.77Zm2.8-3.1c-1.14,0-1.14,1.77,0,1.77s1.14-1.77,0-1.77Zm-.74-6.34c-1.14,0-1.14,1.77,0,1.77s1.14-1.77,0-1.77Zm-11.79-2.06c-1.14,0-1.14,1.77,0,1.77s1.14-1.77,0-1.77Zm3.83-79.59c1.14,0,1.14-1.77,0-1.77s-1.14,1.77,0,1.77Zm4.72,1.47c1.14,0,1.14-1.77,0-1.77s-1.14,1.77,0,1.77Zm71.92,69.47c-1.14,0-1.14,1.77,0,1.77s1.14-1.77,0-1.77ZM7.84,203.44c1.14,0,1.14-1.77,0-1.77s-1.14,1.77,0,1.77Zm7.37-10.61c1.14,0,1.14-1.77,0-1.77s-1.14,1.77,0,1.77Zm-6.48,1.18c1.14,0,1.14-1.77,0-1.77s-1.14,1.77,0,1.77Zm.98,3.24c1.14,0,1.14-1.77,0-1.77s-1.14,1.77,0,1.77Zm11.99-4.42c1.14,0,1.14-1.77,0-1.77s-1.14,1.77,0,1.77Zm-.29,8.25c.08,0,.16-.01,.23-.03,.12,.08,.28,.13,.46,.13,.88,0,1.08-1.05,.6-1.53-.1-.33-.37-.61-.81-.61-.29,0-.51,.12-.65,.29-.96,.17-.91,1.75,.17,1.75Zm-2.36-3.54c1.14,0,1.14-1.77,0-1.77s-1.14,1.77,0,1.77Zm.88-8.25c1.14,0,1.14-1.77,0-1.77s-1.14,1.77,0,1.77Zm-2.55,1.87c.35,0,.59-.17,.73-.4,.02,0,.04,0,.06,0,1.14,0,1.14-1.77,0-1.77-.35,0-.59,.17-.73,.4-.02,0-.04,0-.06,0-1.14,0-1.14,1.77,0,1.77Zm-18.96,6.39c1.14,0,1.14-1.77,0-1.77s-1.14,1.77,0,1.77Zm-.29,2.06s.05,0,.08,0c-.16,.52,.1,1.19,.81,1.19,1.14,0,1.14-1.77,0-1.77-.03,0-.05,0-.08,0,.16-.52-.1-1.19-.81-1.19-1.14,0-1.14,1.77,0,1.77Zm1.97-4.13c1.14,0,1.14-1.77,0-1.77s-1.14,1.77,0,1.77Zm-3.88,56.89c1.14,0,1.14-1.77,0-1.77s-1.14,1.77,0,1.77Zm.44-47.75c1.14,0,1.14-1.77,0-1.77s-1.14,1.77,0,1.77Zm-.49,2.65c1.14,0,1.14-1.77,0-1.77s-1.14,1.77,0,1.77Zm6.68-8.55c1.14,0,1.14-1.77,0-1.77s-1.14,1.77,0,1.77Zm-2.65,4.13c-1.14,0-1.14,1.77,0,1.77s1.14-1.77,0-1.77Zm3.54-5.9c1.14,0,1.14-1.77,0-1.77s-1.14,1.77,0,1.77Zm1.77,.29c1.14,0,1.14-1.77,0-1.77s-1.14,1.77,0,1.77Zm-2.95,5.9c1.14,0,1.14-1.77,0-1.77s-1.14,1.77,0,1.77ZM.03,207.98c-.29,.52-.05,1.35,.74,1.35,.86,0,1.07-1,.64-1.5,.29-.52,.05-1.35-.74-1.35-.86,0-1.07,1-.64,1.5Zm32.87,61.49c-1.14,0-1.14,1.77,0,1.77s1.14-1.77,0-1.77Zm26.73,7.57c-1.14,0-1.14,1.77,0,1.77s1.14-1.77,0-1.77Zm-1.18-16.51c-1.14,0-1.14,1.77,0,1.77s1.14-1.77,0-1.77Zm42.25-51.19c-1.14,0-1.14,1.77,0,1.77s1.14-1.77,0-1.77Zm-45.59,30.56c-1.14,0-1.14,1.77,0,1.77s1.14-1.77,0-1.77Zm47.95-16.41c0-.32-.18-.6-.43-.75-.15-.25-.42-.43-.74-.43-.47,0-.91,.4-.88,.88,.02,.43,.2,.77,.57,1.01,.17,.11,.42,.17,.61,.17,.48,0,.88-.41,.88-.88Zm-40.24,52.76s-.03,0-.05,0c-.48,0-.88,.4-.88,.88s.4,.88,.88,.88c.47,0,.87-.13,1.21-.46,.35-.33,.33-.92,0-1.25-.32-.32-.82-.33-1.17-.06Zm-5.55-23.58c-1.14,0-1.14,1.77,0,1.77s1.14-1.77,0-1.77Zm-6.88,17.29c-1.14,0-1.14,1.77,0,1.77s1.14-1.77,0-1.77Zm4.52-2.75h-.39c-.48,0-.88,.4-.88,.88s.4,.88,.88,.88h.39c.48,0,.88-.4,.88-.88s-.4-.88-.88-.88Zm-3.93-44.41c-1.14,0-1.14,1.77,0,1.77s1.14-1.77,0-1.77Zm64.19,60.69c-1.14,0-1.14,1.77,0,1.77s1.14-1.77,0-1.77Zm-.91-25.81c-1.14,0-1.14,1.77,0,1.77s1.14-1.77,0-1.77Zm-23.19,19.75c-1.14,0-1.14,1.77,0,1.77s1.14-1.77,0-1.77Zm-64.36,3.83v-.59c0-.48-.4-.88-.88-.88s-.88,.4-.88,.88v.59c0,.48,.4,.88,.88,.88s.88-.4,.88-.88Zm49.82-59.25c-1.14,0-1.14,1.77,0,1.77s1.14-1.77,0-1.77Zm-26.38,53.35c-1.14,0-1.14,1.77,0,1.77s1.14-1.77,0-1.77Zm35.22,.69c-1.14,0-1.14,1.77,0,1.77s1.14-1.77,0-1.77Zm-4.72-.59c-1.14,0-1.14,1.77,0,1.77s1.14-1.77,0-1.77Zm13.17,2.36c-1.14,0-1.14,1.77,0,1.77s1.14-1.77,0-1.77Zm5.31-28.69c-1.14,0-1.14,1.77,0,1.77s1.14-1.77,0-1.77Zm-29.08,19.45c-1.14,0-1.14,1.77,0,1.77s1.14-1.77,0-1.77Zm-3.34-14.93c-1.14,0-1.14,1.77,0,1.77s1.14-1.77,0-1.77Zm29.48,1.57c-1.14,0-1.14,1.77,0,1.77s1.14-1.77,0-1.77Zm-22.8,14.93c-1.14,0-1.14,1.77,0,1.77s1.14-1.77,0-1.77Zm15.52-36.35c-1.14,0-1.14,1.77,0,1.77s1.14-1.77,0-1.77Zm-52.47,42.74c1.14,0,1.14-1.77,0-1.77s-1.14,1.77,0,1.77Zm-14.44-87.55c1.14,0,1.14-1.77,0-1.77s-1.14,1.77,0,1.77Zm9.58,91.82c-1.14,0-1.14,1.77,0,1.77s1.14-1.77,0-1.77Zm4.47-9.87c-1.14,0-1.14,1.77,0,1.77s1.14-1.77,0-1.77Zm-4.62,13.71c-1.14,0-1.14,1.77,0,1.77s1.14-1.77,0-1.77Zm3.1-19.31c-1.14,0-1.14,1.77,0,1.77s1.14-1.77,0-1.77Zm-2.8,10.12c-1.14,0-1.14,1.77,0,1.77s1.14-1.77,0-1.77Zm-4.86,8.74c-1.14,0-1.14,1.77,0,1.77s1.14-1.77,0-1.77Zm1.92-13.26c-.36,0-.6,.17-.74,.41-.13-.24-.38-.41-.74-.41-1.14,0-1.14,1.77,0,1.77,.36,0,.6-.17,.74-.41,.13,.24,.38,.41,.74,.41,1.14,0,1.14-1.77,0-1.77Zm0-7.66c-1.14,0-1.14,1.77,0,1.77s1.14-1.77,0-1.77Zm20.24,10.42c-1.14,0-1.14,1.77,0,1.77s1.14-1.77,0-1.77Zm-17.88-11.4c-1.14,0-1.14,1.77,0,1.77s1.14-1.77,0-1.77Zm-.41-8.87c-1.14,0-1.14,1.77,0,1.77s1.14-1.77,0-1.77Zm96.5-19.03c-1.14,0-1.14,1.77,0,1.77s1.14-1.77,0-1.77ZM6.76,224.76c-1.14,0-1.14,1.77,0,1.77s1.14-1.77,0-1.77Zm37.73,38.71h-.2c-.48,0-.88,.4-.88,.88s.4,.88,.88,.88h.2c.48,0,.88-.4,.88-.88s-.4-.88-.88-.88Zm2.95,16.51h-.2c-.48,0-.88,.4-.88,.88s.4,.88,.88,.88h.2c.48,0,.88-.4,.88-.88s-.4-.88-.88-.88Zm-.98,4.08c-1.14,0-1.14,1.77,0,1.77s1.14-1.77,0-1.77Zm-1.57-41.41c-1.14,0-1.14,1.77,0,1.77s1.14-1.77,0-1.77Zm-6.29,20.24c-1.14,0-1.14,1.77,0,1.77s1.14-1.77,0-1.77Zm-.79,15.33c-1.14,0-1.14,1.77,0,1.77s1.14-1.77,0-1.77Zm2.16-35.57c-1.14,0-1.14,1.77,0,1.77s1.14-1.77,0-1.77Zm1.47,38.47c-1.14,0-1.14,1.77,0,1.77s1.14-1.77,0-1.77Zm-.29-4.86c-1.14,0-1.14,1.77,0,1.77s1.14-1.77,0-1.77Zm1.57-2.16c-1.14,0-1.14,1.77,0,1.77s1.14-1.77,0-1.77Zm-27.81-10.51c1.14,0,1.14-1.77,0-1.77s-1.14,1.77,0,1.77Zm-1.18-9.14c-1.14,0-1.14,1.77,0,1.77s1.14-1.77,0-1.77Zm-.88,5.9c1.14,0,1.14-1.77,0-1.77-.13,0-.25,.03-.35,.07-.08-.35-.35-.66-.83-.66-1.14,0-1.14,1.77,0,1.77,.13,0,.25-.03,.35-.07,.08,.35,.35,.66,.83,.66Zm2.38-9.8c.17-.52-.09-1.2-.8-1.2-1.06,0-1.13,1.54-.21,1.74-.17,.52,.09,1.2,.8,1.2,1.06,0,1.13-1.54,.21-1.74Zm-3.85,17.76c1.14,0,1.14-1.77,0-1.77s-1.14,1.77,0,1.77Zm5.21-18.18c1.14,0,1.14-1.77,0-1.77s-1.14,1.77,0,1.77Zm-10.81,10.22c-1.14,0-1.14,1.77,0,1.77s1.14-1.77,0-1.77Zm.29,11.5c-1.14,0-1.14,1.77,0,1.77s1.14-1.77,0-1.77Zm4.42-17.39c1.14,0,1.14-1.77,0-1.77s-1.14,1.77,0,1.77Zm6.48,3.54c1.14,0,1.14-1.77,0-1.77s-1.14,1.77,0,1.77Zm-7.04-12.51c-.16,0-.3,.04-.41,.1-.03-.09-.08-.18-.14-.26,.1-.3,.04-.66-.16-.9,.03,0,.06,0,.09,0,1.14,0,1.14-1.77,0-1.77-.85,0-1.07,.98-.65,1.48-.03,0-.06,0-.09,0-.84,0-1.06,.96-.66,1.47-.16,.52,.1,1.19,.81,1.19,.16,0,.3-.04,.41-.1,.11,.31,.37,.56,.8,.56,1.14,0,1.14-1.77,0-1.77Zm-1.21,18.11c1.14,0,1.14-1.77,0-1.77s-1.14,1.77,0,1.77Zm12.77-6.42c-.13,.51,.14,1.14,.82,1.14,.73,0,.99-.72,.79-1.24,.13-.51-.14-1.14-.82-1.14-.73,0-.99,.72-.79,1.24Zm2.15-8.59c-.45,.02-.9,.16-1.31,.37-.17-.44-.6-.76-1.1-.76-.65,0-1.18,.53-1.18,1.18,0,.57,.41,1.05,.96,1.16,.16,.57,.93,.98,1.49,.44,.17-.17,.39-.3,.66-.45,.13-.07,.16-.08,.25-.11,.06-.02,.11-.04,.17-.05,.02,0,.03,0,.04-.01h.02c.48-.02,.88-.39,.88-.88,0-.47-.4-.91-.88-.88Zm-5.31,6.19c-1.14,0-1.14,1.77,0,1.77s1.14-1.77,0-1.77Zm5.12-11.22c-1.14,0-1.14,1.77,0,1.77s1.14-1.77,0-1.77Zm-.59,23.58c1.14,0,1.14-1.77,0-1.77s-1.14,1.77,0,1.77Zm3.24-12.23c1.14,0,1.14-1.77,0-1.77s-1.14,1.77,0,1.77Zm-2.65,14.3c1.14,0,1.14-1.77,0-1.77s-1.14,1.77,0,1.77Zm-3.34-5.11c1.14,0,1.14-1.77,0-1.77s-1.14,1.77,0,1.77Zm.39-9.63c-1.14,0-1.14,1.77,0,1.77s1.14-1.77,0-1.77Zm2.24-1.45c-1.11,0-1.14,1.68-.08,1.76-.22,.52,.04,1.26,.78,1.26,1.11,0,1.14-1.68,.08-1.76,.22-.52-.04-1.26-.78-1.26Zm-.77,9.41c1.14,0,1.14-1.77,0-1.77s-1.14,1.77,0,1.77Zm-16.21,12.09c-1.14,0-1.14,1.77,0,1.77s1.14-1.77,0-1.77Zm20.08-34.76v-.44c0-.48-.4-.88-.88-.88-.26,0-.5,.12-.67,.31-.07-.06-.16-.11-.26-.14,.08-.49-.2-1.06-.84-1.06-.2,0-.35,.05-.48,.14,.07-.48-.21-1.02-.84-1.02-1.14,0-1.14,1.77,0,1.77,.2,0,.35-.05,.48-.14-.06,.4,.13,.84,.56,.98-.08,.49,.2,1.06,.84,1.06,.18,0,.33-.05,.45-.12,.16,.26,.44,.44,.76,.44,.48,0,.88-.4,.88-.88Zm-2.39-45.42c1.14,0,1.14-1.77,0-1.77s-1.14,1.77,0,1.77ZM6.07,278.9c1.14,0,1.14-1.77,0-1.77s-1.14,1.77,0,1.77ZM-1.89,209.93c-.36,0-.6,.17-.74,.41-.12-.07-.27-.12-.44-.12-1.14,0-1.14,1.77,0,1.77,.36,0,.6-.17,.74-.41,.12,.07,.27,.12,.44,.12,1.14,0,1.14-1.77,0-1.77Zm1.18,5.01c-1.03,0-1.13,1.45-.29,1.72-.06,0-.11-.02-.17-.02-.65,0-1.18,.53-1.18,1.18s.53,1.18,1.18,1.18,1.18-.53,1.18-1.18c0-.54-.36-.98-.85-1.13,.04,0,.08,.01,.13,.01,1.14,0,1.14-1.77,0-1.77Zm-2.65,5.9c1.14,0,1.14-1.77,0-1.77s-1.14,1.77,0,1.77Zm-.44,6.63c1.14,0,1.14-1.77,0-1.77s-1.14,1.77,0,1.77Zm.74-12.53c1.14,0,1.14-1.77,0-1.77s-1.14,1.77,0,1.77Zm7.37-15.62c-1.14,0-1.14,1.77,0,1.77s1.14-1.77,0-1.77Zm-2.65,17.69c1.14,0,1.14-1.77,0-1.77s-1.14,1.77,0,1.77Zm5.01,3.83c-1.14,0-1.14,1.77,0,1.77s1.14-1.77,0-1.77Zm-4.72-6.78c1.14,0,1.14-1.77,0-1.77s-1.14,1.77,0,1.77Zm.88-7.96c1.14,0,1.14-1.77,0-1.77s-1.14,1.77,0,1.77Zm-3.24,14.15c-1.14,0-1.14,1.77,0,1.77s1.14-1.77,0-1.77Zm3.54,51.88c1.14,0,1.14-1.77,0-1.77s-1.14,1.77,0,1.77Zm-1.18-5.6c-1.14,0-1.14,1.77,0,1.77s1.14-1.77,0-1.77Zm-1.18,12.38c1.14,0,1.14-1.77,0-1.77s-1.14,1.77,0,1.77Zm2.36-16.51c-1.14,0-1.14,1.77,0,1.77s1.14-1.77,0-1.77Zm1.47-6.48c-1.14,0-1.14,1.77,0,1.77s1.14-1.77,0-1.77Zm-7.37,10.02c1.14,0,1.14-1.77,0-1.77s-1.14,1.77,0,1.77Zm-.88-7.07c1.14,0,1.14-1.77,0-1.77s-1.14,1.77,0,1.77Zm2.95,17.69c.31,0,.53-.13,.67-.32,.07,.01,.14,.02,.21,.02,1.14,0,1.14-1.77,0-1.77-.31,0-.53,.13-.67,.32-.07-.01-.14-.02-.21-.02-1.14,0-1.14,1.77,0,1.77Zm-2.65-21.52c1.14,0,1.14-1.77,0-1.77s-1.14,1.77,0,1.77Zm2.06,13.56c1.14,0,1.14-1.77,0-1.77s-1.14,1.77,0,1.77Zm-2.51-21.22c1.14,0,1.14-1.77,0-1.77s-1.14,1.77,0,1.77Zm4.86-22.99c1.14,0,1.14-1.77,0-1.77s-1.14,1.77,0,1.77Zm37.14-28c1.14,0,1.14-1.77,0-1.77s-1.14,1.77,0,1.77Zm3.24-7.37c1.14,0,1.14-1.77,0-1.77s-1.14,1.77,0,1.77Zm0,11.79c1.14,0,1.14-1.77,0-1.77s-1.14,1.77,0,1.77Zm-2.68-10.19s.09,.05,.14,.07c-.23,.52,.03,1.28,.77,1.28,.95,0,1.11-1.23,.47-1.64,.07-.13,.12-.27,.12-.43,0-.32-.18-.6-.43-.75-.15-.25-.42-.43-.74-.43-.47,0-.91,.4-.88,.88,.02,.43,.2,.77,.57,1.01Zm-1.74,28.47c1.14,0,1.14-1.77,0-1.77s-1.14,1.77,0,1.77Zm1.18-16.8c1.14,0,1.14-1.77,0-1.77s-1.14,1.77,0,1.77Zm-2.16,13.46c1.14,0,1.14-1.77,0-1.77s-1.14,1.77,0,1.77Zm7.47,15.33c-1.14,0-1.14,1.77,0,1.77s1.14-1.77,0-1.77Zm94.91,52.57c-1.14,0-1.14,1.77,0,1.77s1.14-1.77,0-1.77ZM42.66,209.66c-.48,0-.88,.4-.88,.88v.44c0,.48,.4,.88,.88,.88s.88-.4,.88-.88v-.44c0-.48-.4-.88-.88-.88Zm-.03-3.56c1.14,0,1.14-1.77,0-1.77s-1.14,1.77,0,1.77Zm2.06,4.13c1.14,0,1.14-1.77,0-1.77s-1.14,1.77,0,1.77Zm-14.74-16.51c1.14,0,1.14-1.77,0-1.77s-1.14,1.77,0,1.77Zm-2.65,1.47c1.14,0,1.14-1.77,0-1.77s-1.14,1.77,0,1.77Zm1.47-5.01c.59,0,.87-.47,.85-.92,.87-.25,.78-1.73-.26-1.73-.59,0-.87,.47-.85,.92-.87,.25-.78,1.73,.26,1.73Zm-2.65,2.06c1.14,0,1.14-1.77,0-1.77s-1.14,1.77,0,1.77Zm9.02,12.11c-1.14,0-1.14,1.77,0,1.77s1.14-1.77,0-1.77Zm8.37,31.22c-1.14,0-1.14,1.77,0,1.77s1.14-1.77,0-1.77Zm-18.57-45.1c1.14,0,1.14-1.77,0-1.77s-1.14,1.77,0,1.77Zm7.66-.29h1.18c.48,0,.88-.4,.88-.88s-.4-.88-.88-.88h-1.18c-.48,0-.88,.4-.88,.88s.4,.88,.88,.88Zm-2.36,19.75c1.14,0,1.14-1.77,0-1.77s-1.14,1.77,0,1.77Zm4.72-7.07c1.14,0,1.14-1.77,0-1.77s-1.14,1.77,0,1.77Zm-2.91,6.36c1.14,0,1.14-1.77,0-1.77s-1.14,1.77,0,1.77Zm-1.51,6.9s.05,0,.07,0c.1,.33,.37,.6,.81,.6,1.14,0,1.14-1.77,0-1.77-.03,0-.05,0-.07,0-.1-.33-.37-.6-.81-.6-1.14,0-1.14,1.77,0,1.77Zm6.48,39.11c-1.14,0-1.14,1.77,0,1.77s1.14-1.77,0-1.77Zm119.26,27.38c-1.14,0-1.14,1.77,0,1.77s1.14-1.77,0-1.77Zm-122.01-28.76c1.14,0,1.14-1.77,0-1.77s-1.14,1.77,0,1.77Zm-1.67,1.62c-1.14,0-1.14,1.77,0,1.77s1.14-1.77,0-1.77Zm130.88,3.68c-1.14,0-1.14,1.77,0,1.77s1.14-1.77,0-1.77Zm-125.87-10.91c-1.14,0-1.14,1.77,0,1.77s1.14-1.77,0-1.77Zm-.59,1.87c-1.14,0-1.14,1.77,0,1.77s1.14-1.77,0-1.77Zm-4.72,10.42c1.14,0,1.14-1.77,0-1.77s-1.14,1.77,0,1.77Zm-4.32-5.31c-1.14,0-1.14,1.77,0,1.77s1.14-1.77,0-1.77Zm1.38-6.68c-1.14,0-1.14,1.77,0,1.77s1.14-1.77,0-1.77Zm8.65-9.04c-1.14,0-1.14,1.77,0,1.77s1.14-1.77,0-1.77Zm-7.02,8.17c.26-.02,.37-.06,.61-.16,.24-.1,.45-.35,.63-.53,.04-.04,.08-.09,.11-.14,.03,.42,.31,.82,.85,.82,1.14,0,1.14-1.77,0-1.77-.01,0-.02,0-.03,0,0-.44-.28-.89-.86-.89-.39,0-.64,.2-.76,.47-.21,.01-.41,.09-.56,.25-.06,.06-.12,.12-.19,.18-.02,0-.05,0-.07,0-.48,0-.88,.4-.88,.88s.4,.88,.88,.88c.09,0,.18,0,.27,0Zm.73,5c1.14,0,1.14-1.77,0-1.77s-1.14,1.77,0,1.77Zm9.14-34.19c1.14,0,1.14-1.77,0-1.77s-1.14,1.77,0,1.77Zm1.08,6.88c-1.14,0-1.14,1.77,0,1.77s1.14-1.77,0-1.77Zm1.28-11.89c-.25,0-.45,.09-.59,.23,.03-.46-.26-.94-.85-.94-1.14,0-1.14,1.77,0,1.77,.25,0,.45-.09,.59-.23-.03,.46,.26,.94,.85,.94,1.14,0,1.14-1.77,0-1.77Zm105.82,21.81c-1.14,0-1.14,1.77,0,1.77s1.14-1.77,0-1.77Zm-7.37,21.81c-1.14,0-1.14,1.77,0,1.77s1.14-1.77,0-1.77Zm-100.52-5.6c1.14,0,1.14-1.77,0-1.77s-1.14,1.77,0,1.77Zm1.77-32.13c-1.14,0-1.14,1.77,0,1.77s1.14-1.77,0-1.77Zm-2.91-12.36c-1.14,0-1.14,1.77,0,1.77s1.14-1.77,0-1.77Zm-1.41,4.79c-1.14,0-1.14,1.77,0,1.77s1.14-1.77,0-1.77Zm3.73,35.57c1.14,0,1.14-1.77,0-1.77s-1.14,1.77,0,1.77Zm.2,10.22c-1.14,0-1.14,1.77,0,1.77s1.14-1.77,0-1.77Zm-.39-18.08c-1.14,0-1.14,1.77,0,1.77s1.14-1.77,0-1.77Z"/><g><path class="cls-14" d="M-5.23,115.51H345.71v60.12c-7.54,.09-23.2,.72-37.3,4.14-19.45,4.72-30.07,.59-40.09-1.77-10.02-2.36-15.92-5.31-37.73,1.77-21.81,7.07-41.27,2.36-53.06-.59-11.79-2.95-21.22-7.66-40.68-2.36-17.3,4.72-27.71,11.79-55.42,11.79-13.09,0-34.19-11.2-45.39-12.38-11.2-1.18-17.69-2.36-34.78,4.13-2.31,.88-4.48,1.58-6.48,2.15V115.51Z"/><path class="cls-16" d="M217.03,167.54c0,.57,2.77,1.03,6.19,1.03s6.19-.46,6.19-1.03c0-.19-.3-.36-.83-.52,2.66-.03,4.75-.42,4.75-.9s-2.3-.9-5.14-.9-5.14,.4-5.14,.9c0,.14,.18,.27,.49,.39h-.33c-3.42,0-6.19,.46-6.19,1.03Zm-112.31,2.21s6.39-4.95,20.38-4.84c.01,.13,.1,.25,.26,.36-.75,.32-1.18,.69-1.18,1.08,0,1.23,4.17,2.22,9.32,2.22,4.58,0,8.39-.79,9.17-1.82,14.51,1.72,21.31,1.07,23.3,.08,1.47-.73-1.91-2.87-7.84-3.27h8.8c1.11,.87,3.67,1.49,6.66,1.49s5.56-.61,6.66-1.49h13.5s-18.53,1.55-20.34,4.13c-1.97,2.82,12.09,6.48,20.34,6.48s22.7-2.65,21.22-6.48c-1.47-3.83-10.91-2.95-10.91-2.95,0,0,3.88-2.35,11.17-3.34-.07,.1-.11,.21-.11,.32,0,1.18,4.49,2.14,10.02,2.14,4.37,0,8.09-.6,9.46-1.43,1.28,.28,2.6,.61,3.95,.99,3.07,.86,5.16,1.58,6.47,2.19-.79-.08-1.66-.12-2.57-.12-3.45,0-6.25,.63-6.25,1.41s2.8,1.41,6.25,1.41c.9,0,1.76-.04,2.53-.12-2.37,1.83-14.09,1.09-15.27,2.02-2.06,1.62,9.73,2.51,21.81-.15,12.09-2.65,27.71,4.72,34.19,4.42,6.48-.29,4.72-4.72-4.42-6.78,0,0,1.54-.43,4.35-.73,.84,.54,2.89,.93,5.29,.93,2.52,0,4.66-.42,5.41-1.01,7.26,.69-1.5,2.94-1.79,4.64-.29,1.77,1.47,2.95,10.32,1.77,8.84-1.18,20.63-4.72,12.38-7.66,0,0,4.75-2.13,10.71-1.38-1.02,.33-1.62,.73-1.62,1.16,0,1.18,4.49,2.14,10.02,2.14,.42,0,.84,0,1.25-.02,2.54,.79,5.36,1.23,8.1,1.46v6.64c-7.54,.09-23.2,.72-37.3,4.14-19.45,4.72-30.07,.59-40.09-1.77-10.02-2.36-15.92-5.31-37.73,1.77-21.81,7.07-41.27,2.36-53.06-.59-11.79-2.95-21.22-7.66-40.68-2.36-17.3,4.72-27.71,11.79-55.42,11.79-13.09,0-34.19-11.2-45.39-12.38-11.2-1.18-17.69-2.36-34.78,4.13-2.31,.88-4.48,1.58-6.48,2.15v-10.74c13.33-4.18,17.98-4.9,22.11-4.08,4.42,.88,15.33-2.65,10.61-6.19-4.72-3.54-9.43-4.13-12.97-3.83,0,0,9.14-5.45,27.41-.29,0,0-15.92,2.06-9.14,8.55,6.78,6.48,20.34,6.78,24.47,5.31s9.43-4.42,.59-9.73c0,0,10.98-3.83,22.4,2.36,0,0-12.46-1.86-14.44-.29-2.8,2.21,3.24,5.9,11.5,6.19,8.25,.29,7.37-2.06,7.37-2.06,0,0,14.15,2.95-.88,5.9-15.03,2.95-17.1,.88-18.87,2.95-1.77,2.06,10.32,7.96,24.76,5.01,14.44-2.95,32.72-5.9,35.96-9.73,3.24-3.83-15.03-4.13-20.93-2.06Z"/><path class="cls-3" d="M345.71,175.63v1.21c-8.09,.18-22.32,.97-35.24,4.1-19.45,4.72-30.07,.59-40.09-1.77-10.02-2.36-15.92-5.31-37.73,1.77-21.81,7.07-41.27,2.36-53.06-.59-11.79-2.95-21.22-7.66-40.68-2.36-17.3,4.72-27.71,11.79-55.42,11.79-13.09,0-34.19-11.2-45.39-12.38-11.2-1.18-17.69-2.36-34.78,4.13-3.13,1.19-5.98,2.06-8.55,2.69v-1.72c2.01-.56,4.17-1.27,6.48-2.15,17.1-6.48,23.58-5.31,34.78-4.13,11.2,1.18,32.3,12.38,45.39,12.38,27.71,0,38.12-7.07,55.42-11.79,19.45-5.31,28.89-.59,40.68,2.36,11.79,2.95,31.25,7.66,53.06,.59,21.81-7.07,27.71-4.13,37.73-1.77,10.02,2.36,20.63,6.48,40.09,1.77,14.11-3.42,29.76-4.05,37.3-4.14Z"/><path class="cls-4" d="M-5.23,136.41c11.27-.08,34.8-.42,43.63-1.74,11.79-1.77,21.52-5.31,37.44-3.54,15.92,1.77,30.95,4.72,37.44,6.19,6.48,1.47,43.63,.29,54.41,.03,10.79-.27,27.83-3.56,42.57-6.51,14.74-2.95,33.01,2.36,40.38,3.54,7.37,1.18,15.92,2.36,42.15-2.06,23.27-3.92,47.71,.51,52.93,1.56v10.77c-.86-.04-1.74-.06-2.65-.06-7.57,0-13.71,1.45-13.71,3.24,0,.34,.23,.67,.64,.98-8.91-.49-16.39-2.18-25.27-2.64-17.1-.88-38.47-1.77-48.49-1.18-10.02,.59-17.98,2.95-31.25-.88-9.38-2.71-16.84-2.47-24.78-.85-2.04-.2-4.28-.3-6.63-.3-9.52,0-17.24,1.78-17.24,3.98,0,.19,.06,.39,.18,.57-4.15,.2-8.75,.26-13.43,.23,1.5-.59,2.36-1.28,2.36-2.01,0-2.2-7.72-3.98-17.24-3.98s-17.24,1.78-17.24,3.98c0,.17,.05,.34,.14,.51-1.14-.13-1.99-.25-2.5-.36-5.31-1.18-20.63-2.06-34.49,1.77l-.34,.09c-2.17-1.07-6.68-1.8-11.89-1.8-3.82,0-7.26,.39-9.68,1.03-.79-1.61-6.39-2.85-13.17-2.85-5.49,0-10.2,.81-12.21,1.98-4.42-.71-8.02-1.42-10.19-1.98-9.14-2.36-25.64-.88-31.83,1.18-4.08,1.36-7.64,1.06-10.02,.69v-9.56Z"/><path class="cls-11" d="M330,148.81c-.41-.22-4.65-4.37-6.76-3.82-2.11,.55-2.93,.11-4.3-.55-1.37-.67-1.47-1.55-4.67-.55-3.21,1-6.87,1.89-8.79,1.11-1.92-.78-5.22-2.44-6.87-1.55-1.65,.89-2.74,1.8-4.48,1.9-1.74,.1-2.2-1.45-4.03-1.34-1.83,.11-5.59,.67-6.59-.22-1.01-.89-1.83-.33-2.56-.55-.73-.22-.78-1.05-1.56-.72-.78,.33-.55-.39-1.1-.67-.55-.28-1.19,.17-1.14,1.11,.05,.94-.96,.72-1.42,.33-.46-.39-.23-1.39-1.37-.89-1.15,.5-1.88,1.5-2.43,.94-.55-.55-.92-1.39-1.6-.67-.69,.72-1.19,1.05-1.51,.61-.32-.44-.64-1.33-1.28-.67-.64,.67-1.42,1.44-1.65,.72-.23-.72-.87-1.39-1.42-.89-.55,.5-1.92,.33-2.24,.33s-.69-1.05-1.92-.67c-1.24,.39-1.51,.72-2.34,.67-.82-.06-1.1-.55-1.51,.22-.41,.78-.78,.94-1.42,.94s-1.37-.72-1.97,0c-.6,.72-1.56,1.39-2.24,1.16-.69-.22-1.56-1.55-2.7-1.11-1.15,.44-2.2,1-3.11,.5-.92-.5-2.06-.61-2.79,.06-.73,.67-3.16,1.39-3.75,1.44s4.26,1.22,5.68,.61c1.42-.61,3.75-.06,4.76,.28,1.01,.33,3.48,.83,4.26,.61,.78-.22,3.34,1.5,4.17,1.39,.82-.11,1.79-1,2.66-.89,.87,.11,6.41,.11,7.56,.44,1.15,.33,1.51,.72,2.43,.39,.92-.33,1.47-.89,2.75-.78,1.28,.11,2.41,1.86,4.36,1.29,1.96-.57,5.34-1.23,6.54-1.12,1.19,.11,2.47,.44,3.2,.06,.73-.39,1.01-.83,1.97-.28,.96,.55,1.05,.28,1.88,.28s.73,.55,1.88,.83c1.14,.28,1.65,0,2.7-.61,1.05-.61,1.42-.94,2.24-.89s.64-1.05,1.37-1.11c.73-.06,1.28-.78,2.2-.11,.92,.67,1.56,.67,2.34,.67s1.37-.55,1.92,.06c.55,.61,1.33,1.33,1.79,1.05,.46-.28,1.05-.06,2.02,.28,.96,.33,1.69,.33,2.11,.33s6.96,.22,7.65,.5c.69,.28,2.84-.28,4.4-.06,1.56,.22,1.69-.11,2.47-.39,.78-.28,.5,.17,1.92,.5,1.42,.33,2.78-.29,2.36-.51Zm-94.93-4.61c0-.16,.27-.29,.6-.29s.6,.13,.6,.29-.27,.29-.6,.29-.6-.13-.6-.29Zm17.99,6.69c0-.16,.27-.29,.6-.29s.6,.13,.6,.29-.27,.29-.6,.29-.6-.13-.6-.29Zm-1.32-8.65c0-.16,.27-.29,.6-.29s.6,.13,.6,.29-.27,.29-.6,.29-.6-.13-.6-.29Zm22.02,9.75c0-.16,.27-.29,.6-.29s.6,.13,.6,.29-.27,.29-.6,.29-.6-.13-.6-.29Zm7.14-9.39c0-.16,.27-.29,.6-.29s.6,.13,.6,.29-.27,.29-.6,.29-.6-.13-.6-.29Zm19.76,5.47c0-.16,.27-.29,.6-.29s.6,.13,.6,.29-.27,.29-.6,.29-.6-.13-.6-.29Zm22.84,3.03c0-.16,.27-.29,.6-.29s.6,.13,.6,.29-.27,.29-.6,.29-.6-.13-.6-.29Zm5.45-5.97c0-.16,.27-.29,.6-.29s.6,.13,.6,.29-.27,.29-.6,.29-.6-.13-.6-.29ZM18.48,136.1c0-.16,.27-.29,.6-.29,.11,0,.21,.01,.29,.04,0-.16,.27-.29,.6-.29,0-.04-.01-.08-.01-.12,0-.16,.27-.29,.6-.29,1.68-1.62,3.63-1.99,5.77-2.1,1.21-.06,2.47-.03,3.78-.1,1.31-.07,2.65-.22,4.01-.65,2.17-.66,4.03-.66,5.9-.64,.93,0,1.86,.02,2.83-.04,.97-.06,1.98-.2,3.07-.5,.64-.17,1.2-.43,1.72-.74,.52-.31,.99-.66,1.47-.98,.96-.65,1.93-1.23,3.3-1.23,.29,0,.48,.15,.61,.37,.06,.11,.12,.24,.16,.38,.04,.14,.08,.29,.12,.43,.04,.15,.08,.3,.12,.43,.04,.14,.09,.26,.16,.38,.13,.22,.31,.37,.61,.37,.63,0,1.17-.11,1.68-.26,.5-.16,.97-.37,1.45-.58,.47-.21,.94-.42,1.45-.58,.51-.16,1.06-.26,1.68-.26,3.54,0,5.45-.07,8.99-.07,.68,0,1.27,.11,1.81,.28,.54,.17,1.04,.39,1.54,.61,.5,.22,1,.44,1.54,.61,.54,.17,1.13,.28,1.81,.28,.55,0,1.03-.09,1.47-.23,.44-.14,.84-.32,1.25-.51,.41-.18,.81-.37,1.25-.51,.44-.14,.92-.23,1.47-.23,4.24,0,10.06,2.76,12.56,4.09,.09-.11,.3-.18,.56-.18,.33,0,.6,.13,.6,.29,0,.13-.19,.25-.45,.28l.15,.08c.1-.04,.23-.06,.37-.06,.33,0,.6,.13,.6,.29,0,.08-.06,.14-.16,.2,.04,0,.08,0,.11,0,0-.16,.27-.29,.6-.29s.6,.13,.6,.29-.27,.29-.6,.29c0,.16-.27,.29-.6,.29-.06,0-.12,0-.18-.01-.18,1.18-3.69,2.12-4.05,2.12-.98,0-1.84-.11-2.65-.28-.81-.17-1.57-.39-2.32-.61-.76-.22-1.51-.44-2.32-.61-.81-.17-1.68-.28-2.65-.28-.37,0-.69,.05-.99,.14-.29,.08-.57,.19-.85,.3-.28,.11-.55,.22-.85,.3-.3,.08-.62,.14-.99,.14-.64,0-1.21-.07-1.74-.18-.53-.11-1.02-.26-1.5-.41-.49-.15-.98-.3-1.5-.41-.53-.11-1.09-.18-1.74-.18-.24,0-.45,.05-.64,.14-.19,.08-.37,.19-.54,.3-.09,.06-.17,.11-.26,.16-.09,.05-.18,.1-.28,.14-.19,.08-.4,.14-.64,.14-.92,0-1.73-.11-2.49-.28-.76-.17-1.46-.39-2.16-.61-.7-.22-1.4-.44-2.16-.61-.76-.17-1.57-.28-2.49-.28s-1.71,.17-2.44,.41c-.67,.23-1.29,.53-1.91,.84,.26,.05,.42,.14,.42,.25,0,.16-.41,.29-.92,.29-.19,0-.36-.02-.51-.05-.38,.18-.78,.35-1.19,.49-.36,.12-.73,.23-1.13,.3,.04,.03,.06,.07,.06,.1,0,.16-.41,.29-.92,.29s-.92-.13-.92-.29c-.23-.08-.44-.16-.65-.26-.07-.04-.14-.07-.21-.11-.31-.05-.53-.15-.53-.27,0-.02,0-.04,.02-.06l-.23-.17c-.3-.22-.61-.44-.94-.61-.31-.16-.65-.26-1.04-.28-.1,.13-.46,.22-.89,.22-.51,0-.92-.13-.92-.29l-.42-.07c-.13,.02-.28,.03-.43,.03-.4,0-.73-.08-.86-.19-.27-.03-.54-.06-.81-.08-.95-.07-1.88-.05-2.87,.24,.32,.05,.55,.15,.55,.27,0,.16-.41,.29-.92,.29-.24,0-.46-.03-.63-.08,.02,.02,.02,.04,.02,.07,0,.13-.25,.23-.6,.28,.07,.06,.12,.11,.12,.17,0,.1-.15,.18-.37,.24l-.12,.23c-.22,.4-.46,.75-.94,.75-.31,0-.58-.07-.81-.18-.12-.06-.23-.12-.34-.19-.11-.07-.22-.14-.32-.22-.21-.15-.43-.3-.66-.41-.24-.11-.5-.18-.81-.18-.48,0-.9,.07-1.3,.18-.39,.11-.76,.26-1.13,.41-.37,.15-.74,.29-1.13,.41-.4,.11-.82,.18-1.3,.18-.41,0-.76-.07-1.08-.18-.32-.11-.62-.26-.91-.41-.26-.13-.52-.26-.78-.36-.06,.13-.3,.23-.59,.23-.04,0-.08,0-.12,0-.11,.08-.29,.13-.5,.13-.29,0-.54-.1-.59-.24-.06,0-.13,.02-.19,.02-.21,0-.4-.05-.5-.13l-.22,.07c-.23,.07-.46,.15-.71,.2-.22,.05-.45,.08-.7,.09,0,.02,.01,.04,.01,.06,0,.16-.27,.29-.6,.29-.26,0-.49-.08-.57-.19-.06,.01-.13,.02-.2,.02h-.1c-.09,.1-.3,.17-.55,.17s-.47-.08-.56-.18c-.11,.05-.26,.09-.43,.09-.33,0-.6-.13-.6-.29Zm-2.76,.96c0-.16,.27-.29,.6-.29s.6,.13,.6,.29-.27,.29-.6,.29-.6-.13-.6-.29Zm2.65-.07c0-.16,.27-.29,.6-.29s.6,.13,.6,.29-.27,.29-.6,.29-.6-.13-.6-.29Zm78.71-1.84c0-.16,.27-.29,.6-.29s.6,.13,.6,.29-.27,.29-.6,.29-.6-.13-.6-.29Zm-6.95,3.06c0-.16,.27-.29,.6-.29s.6,.13,.6,.29-.27,.29-.6,.29-.6-.13-.6-.29Zm-20.01-2.29c0-.16,.27-.29,.6-.29s.6,.13,.6,.29-.27,.29-.6,.29-.6-.13-.6-.29Zm-29.18,1.49c0-.16,.41-.29,.92-.29s.92,.13,.92,.29-.41,.29-.92,.29-.92-.13-.92-.29Zm29.7,27.92c0-.16,.41-.29,.92-.29s.92,.13,.92,.29-.41,.29-.92,.29-.92-.13-.92-.29Zm30.29,8c0-.57,2.77-1.03,6.19-1.03s6.19,.46,6.19,1.03-2.77,1.03-6.19,1.03-6.19-.46-6.19-1.03Zm151.82-8.53c0-.5,2.3-.9,5.14-.9s5.14,.4,5.14,.9-2.3,.9-5.14,.9-5.14-.4-5.14-.9Zm-72.86,2.74c0-.57,2.77-1.03,6.19-1.03s6.19,.46,6.19,1.03-2.77,1.03-6.19,1.03-6.19-.46-6.19-1.03Z"/></g></g><g><path class="cls-9" d="M241.76,182.59c-1.09-8.65-2.85-17.38-3.11-26.1-.25-8.56-.47-19.88-1.62-24.19-18.58,11.62-33.52,15.07-33.52,15.07,1.02,2.78,3.45,7.4,4.57,9.36,2.05,3.59,14.08,26.73,14.83,31.96,1.48,10.29-14.01,13.74-17.96,15.55-1.42,.65-2.85,1.3-4.36,1.64-1.76-.09-3.14-1.03-4.99-1.2-.55-.05-1.02,.02-1.41,.2-.02,0-.04,0-.06,0-2.67-.19-2.82,2.59-2.29,4.42-1.7,.93-.58,3.3,.77,3.86,0,.01,0,.02,0,.03-.1,1.81,1.88,3.39,3.45,2.29,.08,.61,.49,1.21,1.32,1.62,1.33,.64,3.13,.58,4.54,.49,2.71-.17,5.43-.84,8.14-1.14,5.39-.6,10.7-1.2,16.13-.67,2.81,.27,5.7,.2,8.49,.65,2.32,.37,8.11,2.07,11.65-.65,2.29-1.77,1.82-6.31,1.47-8.86-.85-6.25-5.15-17.23-6.04-24.32Z"/><path class="cls-8" d="M164.02,140.28s2.61,30.11-2.51,29.58c-.07,0-.15,0-.22,0-1.3-.41-2.53-1.22-3.77-1.72-2.17-.87-4.65-.74-4.75-.61-.13-.29-1.48-1.69-2.05-2.06-1.23-.79-2.66-1.19-3.89-.36-.49-.61-.97-1.2-1.52-1.6-1.5-1.07-2.84-.6-3.91,.73-.21-.18-3.13-3.12-5.26-.27-1.08,1.45,.56,8.4,3.78,12.61,3.24,4.24,7.69,6.13,12.28,8.47,5.01,2.55,8.95,6.58,13.65,9.58,8.92,5.68,12.3-1.9,12.99-4.73,.7-2.87,2.68-20.03,4.06-25.71,1.47-6.04,6.47-17.52,6.48-17.57-22.6-4.07-25.36-6.33-25.36-6.33Z"/><g><path class="cls-10" d="M194.77,141.41l1.25,.61s.36,5.8,7.49,5.35c0,0,14.94-3.46,33.52-15.07,1.82-.7,3.74-2.47,3.62-3.89-.18-2.03-1.03-5.54-3.05-6.55-.35-.18-1.16-.24-1.16-.24,0,0,.29-13.06-6.28-13.11,.23-3.21-8.5-31.7-5.63-39.68,.92-2.56,2.24-4.77,1.59-7.58-.32-1.4-.77-4.14-.77-4.14l5.76-17.44h-68.39l9.11,35.21-7.25,33.25s-2.86,2.7-3.31,3.08c-1.1,.93-1.67,2.33-1.71,3.76-.04,1.23,.82,2.42,1.48,3.55-1.4-.31-2.92,5.04-1.53,6.44-6.1,9.49,4.5,15.3,4.5,15.3,0,0,2.76,2.25,25.36,6.33,4.48,.62,5.39-5.2,5.39-5.2Z"/><g><path class="cls-12" d="M189.71,134.27s-8.13-7.21-3.73-10.22l-11.23-37.62-2.91-11.54,2.75,34.52-9.47-3.67-.53,2.41s6.06,6.27,10.19,8.14c4.13,1.88,8.45,4.43,8.45,4.43,0,0-2.14,5.21-1.37,6.24,0,0-7.33-1.92-10.87-4.42,0,0,5.45,5.01,10.02,8.11l3.98,3.83s-11.2-4.67-15.33-6.78c0,0,10.46,8.3,15.18,10.56,0,0,.33,3.55-1.33,4.61-.77,.49-2.33,1.23-3.78,1.88,2.72,.57,5.9,1.19,9.63,1.86,4.48,.62,5.39-5.2,5.39-5.2,0,0-6.65-3.31-5.05-7.14Z"/><path class="cls-6" d="M224.16,77.27s-1.76-7.18-4.64-10.56l-6.58-27.04h14.7l-5.5,17.56,2.02,20.03Z"/><path class="cls-6" d="M237.6,121.86c-.35-.18-1.16-.24-1.16-.24,0,0,.29-13.06-6.28-13.11,0,0-12.89,7.1-24.53,9.75,0,0,19.85-2.51,22.01-2.95,0,0,3.34,5.6,3.34,6.78s-8.99,8.2-13.56,10.22c0,0,9.87-3.44,13.56-5.65,0,0,2.86,2.62,3.18,7.4,.95-.56,1.91-1.14,2.87-1.75,1.82-.7,3.74-2.47,3.62-3.89-.18-2.03-1.03-5.54-3.05-6.55Z"/></g></g></g></g></svg>