<?xml version="1.0" encoding="UTF-8"?><svg id="Layer_1" xmlns="http://www.w3.org/2000/svg" xmlns:xlink="http://www.w3.org/1999/xlink" viewBox="0 0 1024 749.5"><defs><style>.cls-1{fill:url(#linear-gradient);}.cls-2{fill:#f9c312;}.cls-3{fill:#fff;}.cls-4{fill:#15923f;}.cls-5{fill:#2667c3;}.cls-6{fill:url(#linear-gradient-2);}</style><linearGradient id="linear-gradient" x1="312.93" y1="373.28" x2="312.93" y2="519.74" gradientTransform="matrix(1, 0, 0, 1, 0, 0)" gradientUnits="userSpaceOnUse"><stop offset="0" stop-color="#155bbe"/><stop offset="1" stop-color="#032b5b"/></linearGradient><linearGradient id="linear-gradient-2" x1="608.21" y1="338.5" x2="406.84" y2="457.75" gradientTransform="matrix(1, 0, 0, 1, 0, 0)" gradientUnits="userSpaceOnUse"><stop offset="0" stop-color="#15923f" stop-opacity=".6"/><stop offset="1" stop-color="#15923f" stop-opacity="0"/></linearGradient></defs><g><path class="cls-1" d="M600.64,435.89c.03-.62,.03-1.24,0-1.86v-61.84l-99.61,7.41-63.18-33.31s-41.27-7.01-76.85-12.9c-.4-2.11-1.26-3.78-4.24-3.87-2.84-.09-4.94,.77-6.67,2.07-12.02-1.98-22.71-3.7-29.97-4.82-29.86-4.59-88.45-20.1-88.45-20.1l-21.82-22.4s-6.32-3.45-12.64-5.17-20.91-10.27-20.91-10.27l-17.17-2.38-.97,33.33s9.76,12.06,8.04,13.21-48.24-20.11-48.24-20.11h-31.57l1.71,9.82h-7.31l-.73,45.32-22.97,3.45-31.53,24.37v60.6c-.51,1.21-.44,2.24,0,3.15h0c1.55,3.19,7.71,4.91,9.93,7.83,9.52,12.51,19.08,14.62,37.99,8.95,0,1.25,.28,2.41-.04,3.5-.8,2.71-.76,4.77,.18,6.31v.03h.01c1.72,2.77,6.41,3.83,14.61,3.75,13.98-.14,26.18-1.76,37.14-7.34,4.67-2.38,10.55-3.49,16.72-3.64,3.58-.09,6.58-.18,8.09,.92v6.93c-.19,1.12-.21,2.26,0,3.4v.03h0c.49,2.61,2.23,5.22,6.21,7.66,14.62,8.97,34.26,11.8,51.74,15.42,14.63,3.03,17.24,6.77,16.51,14.3-.4,4.12-.02,7,1.61,8.98h0c2.31,2.79,7.12,3.79,15.84,3.92,6.05,.09,13.16-.93,10.6,5.76-.98,2.55,2.57,4.12,5.79,5.46,.32,.14,.63,.27,.94,.41v23.95c-.24,2.79-.23,5.6,0,8.46h0c.12,1.47,.28,2.94,.51,4.44,1.11,7.4,4.72,10.5,15.39,9.5,10.53-.99,16.46,.57,18.37,5.64l-18.2,8.26v62.52h.02c-.42,2.16,1.34,4.04,4.16,6.47,7.66,6.62,20.71,8.27,29.74,13.32,8.94,5,25.66,8.24,15.63,19.61-.91,1.03,.17,2.74,.44,5.21,8-3.13,13.23-6.46,15.65-11.44,4.1-8.42,8.98-16.46,16.84-24.02,4.6-4.43,6.08-2.13,9.48-.58,1.08,.5,2.15,1.01,3.23,1.51,6.17-7.86,9.81-16.43,22.92-21.86,5.26-2.18,6.62-7.96,5.49-12.79-4.03-17.33,11.69-32.19,38.84-35.75,4.89-.64,8.56-1.56,11.58-3.68,5.55-3.9,12.09-4.63,20.36-5.24,9.02-.66,18.67-1.43,27.51-5.35,8.52-3.78,11.43-8.34,15.02-13.72,4.33-6.49,12.23-12.12,15.77-18.72,4.78-8.9,6.55-18.42,10.33-27.56,1.22-2.94,1.71-5.34,.1-8.32-4.45-8.23-1.4-16.16,4-23.84,.45-.64-.24-2,1.95-1.63,11.64,1.99,11.81-4.87,15.5-8.4,4.55-4.36,9.26-8.36,14.91-12.29,12.93-9.01,25.04-18.4,25.68-29.91h0Z"/><path class="cls-5" d="M367.45,599.7c-3.39-1.54-4.88-3.84-9.48,.58-7.86,7.56-12.74,15.6-16.84,24.02-2.42,4.98-7.65,8.3-15.65,11.44-.27-2.47-1.34-4.19-.44-5.21,10.03-11.37-6.7-14.61-15.63-19.61-9.03-5.05-22.08-6.71-29.74-13.32-4.74-4.09-6.54-6.61,.12-11.57,10.07-7.49,20.23-13.87,34.25-18.68,13.2-4.52,11.3-13.77-2.16-18.91-5.33-2.04-.65-4.04-.42-5.89,.67-5.28,9.41-12.89-10.57-10.45-5.48,.67-6.5-4.54-6.5-7.41,.01-8.52-5.98-11.21-19.07-9.98-10.67,1-14.29-2.1-15.39-9.5-1.48-9.91-.74-19.23,3.96-28.55,1.99-3.94-.44-6.63-5.4-8.7-3.22-1.35-6.76-2.91-5.79-5.46,2.55-6.68-4.55-5.66-10.6-5.76-14.91-.23-18.42-2.98-17.45-12.9,.73-7.53-1.88-11.27-16.51-14.3-17.48-3.62-37.12-6.44-51.74-15.42-6.92-4.25-7.08-9.02-5.65-13.35,1.97-5.93-2.51-5.72-8.65-5.58-6.17,.15-12.05,1.26-16.72,3.64-10.97,5.58-23.16,7.2-37.14,7.34-12.76,.13-17.06-2.48-14.8-10.09,.32-1.09,.04-2.25,.04-3.5-18.91,5.67-28.47,3.56-37.99-8.95-3.17-4.16-14.4-5.9-8.72-12.93,11.26-13.96,20.92-28.75,52.18-27.35,4.05,.18,4.78-1.59,5.08-3.18,2.14-11.31,14.6-22.28-1.06-34.07-7.03-5.29,4.29-7.06,10.77-8.2,.57-4.07-10.6-3.13-6.93-7.43,2.75-3.24,8.32-1.6,12.7-1.87,5.82-.36,11.74-.3,17.46-.97,3.21-.38,6.16-.21,7.2,1.38,2.86,4.37,8.07,8.01,14.72,8.07,11.77,.1,22.14-3.44,30.83-8.61,2.63-1.57,5.5-2.98,9.12-4.92-14.04-2.53-7.39-13.3-19.68-17.11,5.55-1.27,8.39,.37,11.74,1.24,17.75,4.64,32.23-.62,46.21-6.58,3.27-1.39,7.71-4.94,9.73-2.24,2.71,3.63,12.29,5.8,7.53,11.53-2.09,2.52-4.06,5.45-4.1,8.2-.14,10.03,11.94,15.02,26.83,11.52,8.04-1.89,15.79-4.6,24.96-3.41,3.69,.48,5.14,.14,7-2.97,2.04-3.42,12.03-3.76,16.31-1.86,8.96,3.98,17.93,.82,26.73,1.61,6.83,.61,7.11-4.49,10.19-7.19,4.42-3.88,6.66-10.77,14.49-10.52,6.18,.19,3.25,7.13,6.03,10.74,2.33,3.03,3.47,6.13,7.98,8.76,5.15,3.01,8.98,6.67,4.37,12.66-6.21,8.06,6.61,6.9,13.52,7.91,6.01,.87,16.88-1.32,6.59,8.16,24.34-7.26,40.94,1.64,58.78,6.13,5.05,1.27,6.24,4.87,3.62,8.33-.26,.58-.53,1.16-.8,1.73,.59-.37,1.17-.75,1.76-1.12,9.53-2.26,18.82-3.62,28.77-.21,4.24,1.45,10.11,2.44,14.67,1.86,28.07-3.56,44.48,8.62,62.46,18.2,5.82,3.1,11.47,5.36,18.14,3.86,8.26-1.86,9.7,.6,12.68,4.55,14.21,18.82-2.28,32.15-20.34,44.73-5.64,3.93-10.36,7.93-14.91,12.29-3.68,3.53-3.86,10.4-15.5,8.4-2.19-.38-1.5,.99-1.95,1.63-5.41,7.68-8.45,15.61-4,23.84,1.61,2.98,1.11,5.38-.1,8.32-3.78,9.14-5.55,18.66-10.33,27.56-3.55,6.6-11.44,12.23-15.77,18.72-3.59,5.37-6.5,9.94-15.02,13.72-8.84,3.92-18.5,4.69-27.51,5.35-8.28,.61-14.81,1.34-20.36,5.24-3.01,2.12-6.69,3.04-11.58,3.68-27.15,3.56-42.87,18.42-38.84,35.75,1.12,4.83-.23,10.61-5.49,12.79-13.1,5.43-16.75,14-22.92,21.86l-3.23-1.51Z"/><path class="cls-3" d="M333.89,624.83s-.08,0-.12-.02c-.11-.05-.17-.16-.17-.27,.03-.89-.05-1.79-.25-2.67-1.5-6.81-8.95-10.08-15.51-12.97-2.15-.94-4.15-1.83-5.77-2.73-4.15-2.32-8.88-3.94-13.44-5.5-6.02-2.06-11.69-3.99-15.39-7.19-.66-.57-1.21-1.07-1.62-1.48-.06-.05-.09-.13-.09-.21,0-.08,.04-.15,.09-.21,.4-.36,.88-.75,1.43-1.16,8.63-6.42,18.57-13.03,32.76-17.89,10.88-3.73,12.6-10,12.66-13.4,.1-5.71-4.04-10.86-11.66-14.49-.13-.06-.19-.2-.15-.34,.1-.34,.17-.7,.22-1.05,.06-.42,.44-1.33,.86-2.31,1.15-2.69,2.89-6.75,.37-10.56-2.48-3.75-7.29-4.18-10.7-4.18-1.97,0-4.26,.16-7.01,.49-.13,.03-.27-.07-.31-.2-.09-.29-.23-.91-.23-1.76,0-4.58-1.35-8.27-4.03-10.96-3.25-3.26-8.03-4.78-15.04-4.78-1.82,0-3.77,.1-5.97,.31-1.13,.11-2.16,.16-3.08,.16-5.38,0-5.85-1.29-6.41-5.03-1.45-9.72-.36-17.76,3.43-25.29,1.8-3.58,1.37-6.53,.68-8.38-1.21-3.27-4.1-5.82-8.85-7.81-.41-.17-1.18-.49-1.89-.83-.12-.05-.18-.18-.16-.31,.51-3.05-.4-5.18-1.26-6.42-2.81-4.09-8.26-4.09-11.51-4.09h-2.71c-.3,.01-.59,.01-.87,0-8.82-.13-11.12-1.25-11.7-1.91-.24-.27-.76-1.3-.4-5,1.26-12.94-7.04-17.31-20.84-20.17-2.56-.53-5.16-1.04-7.79-1.56-15.02-2.96-30.55-6.01-42.2-13.16-4.68-2.88-3.99-4.97-3.32-6.99,1.2-3.63,.94-6.67-.77-9.04-2.72-3.76-7.58-3.76-10.19-3.76-.85,0-1.75,.02-2.7,.04h-.31c-7.49,.19-13.9,1.61-19.06,4.23-8.99,4.57-19.37,6.59-34.73,6.74h-.81c-5.85,0-8.08-.68-8.89-1.08-.1-.05-.16-.16-.16-.27,.02-.31,.09-.87,.34-1.73,.5-1.69,.39-3.18,.31-4.26v-.12c-.03-.22-.04-.44-.04-.67v-7.33l-7.02,2.11c-6.18,1.85-11.09,2.75-15.03,2.75-6.92,0-11.7-2.74-17.06-9.78-1.66-2.18-4.11-3.63-6.27-4.9-.62-.37-1.46-.86-2.14-1.31-.07-.04-.11-.12-.12-.2-.01-.08,0-.16,.06-.22,.54-.67,1.08-1.35,1.62-2.02l.12-.16c9.75-12.24,18.17-22.8,41.83-22.8,1.21,0,2.48,.03,3.76,.09,.28,.01,.54,.02,.8,.02,5.37,0,8.97-2.78,9.89-7.63,.46-2.43,1.62-5.08,2.85-7.89,3.18-7.27,8-18.26-2.57-28.62-.08-.07-.1-.18-.08-.29,.03-.1,.11-.18,.22-.2,1.61-.34,3.26-.63,4.25-.8l4.53-.8,.55-3.93c.21-1.53,.02-2.93-.57-4.16-.04-.09-.04-.19,.01-.27,.05-.08,.14-.14,.24-.14,.34,0,.68-.02,1.01-.04,2.06-.13,4.18-.2,6.24-.28,3.77-.13,7.67-.27,11.52-.73,.74-.09,1.41-.13,1.98-.13,.21,0,.38,0,.53,.02,.09,0,.16,.05,.21,.12,4.33,5.88,11.24,9.42,18.5,9.48h.53c11.54,0,22.69-3.15,33.14-9.38,1.62-.96,3.39-1.89,5.44-2.96l.12-.06c1.05-.55,2.16-1.13,3.35-1.77l13.8-7.4-15.41-2.78c-3.68-.66-4.84-1.74-5.91-3.77-.05-.1-.04-.22,.02-.3,.07-.09,.18-.13,.28-.11,3.43,.61,6.89,.92,10.31,.92,13.03,0,24.31-4.34,34.75-8.79,1-.43,1.97-.95,2.91-1.45,.46-.24,1.06-.57,1.61-.84,.11-.05,.23-.03,.32,.04,1.17,1.05,2.53,1.94,3.72,2.71,.41,.27,.95,.62,1.44,.96,.07,.04,.11,.11,.12,.19,.01,.08,0,.16-.06,.22-2.99,3.81-4.46,7.27-4.51,10.55-.06,4.47,1.54,8.5,4.65,11.65,4.15,4.21,10.71,6.52,18.5,6.52,3.34,0,6.83-.42,10.39-1.26,1.43-.34,2.85-.7,4.27-1.06,5.06-1.29,9.83-2.5,14.89-2.5,1.32,0,2.58,.08,3.85,.25,1.19,.15,2.09,.22,2.92,.22,5.2,0,7.71-3.03,9.15-5.3,.03-.05,.07-.09,.13-.11,.78-.35,2.54-.75,4.92-.75,2.16,0,3.94,.35,4.68,.68,3.89,1.73,8.07,2.53,13.18,2.53,2.3,0,4.54-.15,6.7-.3,2.05-.14,3.99-.28,5.87-.28,.98,0,1.87,.04,2.7,.11,.53,.05,1.06,.07,1.57,.07,6.9,0,9.84-4.46,11.41-6.86,.49-.74,.94-1.42,1.3-1.74,1.64-1.44,2.97-3.1,4.14-4.57,2.34-2.93,3.56-4.25,5.45-4.54,.08-.01,.16,0,.22,.05,.06,.05,.1,.12,.11,.19l.07,.56c.28,2.23,.64,5.18,2.6,7.74,.47,.61,.91,1.28,1.38,1.98,1.65,2.48,3.7,5.56,8.17,8.17,2.7,1.58,3.46,2.52,3.66,2.85,.04,.07,.05,.15,.03,.23-.07,.23-.28,.73-.9,1.54-3.47,4.5-3.07,7.98-2.11,10.1,2.35,5.24,9.07,5.72,14.99,6.15,1.55,.11,3.01,.22,4.18,.39,1.54,.22,3.13,.28,4.67,.33,.1,0,.19,.06,.24,.15l4.24,7.45c5.62-1.65,11.02-2.46,16.52-2.46,10.06,0,18.76,2.67,27.97,5.49,3.62,1.11,7.36,2.26,11.15,3.21,.08,.02,.15,.08,.19,.15,.04,.08,.04,.16,0,.24l-.19,.42c-.22,.5-.45,.99-.69,1.48l-8.1,17.25,16.83-10.77s.06-.03,.09-.04c3.84-.89,8.89-1.9,13.93-1.9,3.85,0,7.41,.58,10.87,1.76,4.25,1.45,9.33,2.32,13.59,2.32,1.24,0,2.43-.07,3.54-.21,3.09-.39,6.14-.59,9.08-.59,17.47,0,29.77,6.88,42.79,14.16,2.38,1.33,4.84,2.71,7.34,4.04,4.85,2.58,10.2,4.98,16.48,4.98,1.8,0,3.63-.2,5.42-.61,1.47-.33,2.68-.5,3.57-.5,1.3,0,1.37,.09,3.2,2.53l.36,.48c3.39,4.49,4.74,8.57,4.12,12.46-1.38,8.65-12.23,16.85-23.23,24.51-5.46,3.8-10.4,7.88-15.56,12.83-1.37,1.32-2.3,2.76-3.12,4.03-1.63,2.53-2.07,3.21-4.8,3.21-.83,0-1.8-.09-2.88-.28-.56-.1-1.08-.14-1.58-.14-2.43,0-5.37,1.25-6.3,4.76,0,.03-.02,.06-.04,.09-7.19,10.38-8.45,20.05-3.76,28.73,.46,.85,.62,1.32-.34,3.64-1.6,3.87-2.84,7.75-4.04,11.5-1.76,5.49-3.42,10.67-6.05,15.57-1.57,2.93-4.46,5.89-7.51,9.02-2.83,2.9-5.75,5.9-7.99,9.26l-.24,.35c-3.35,5.03-5.57,8.35-12.45,11.41-8.12,3.6-17.46,4.29-25.7,4.9-9.02,.66-16.45,1.54-23.1,6.22-1.91,1.34-4.56,2.13-9.15,2.74-17.98,2.36-31.86,9.39-39.08,19.81-4.71,6.8-6.22,14.61-4.37,22.59,.05,.21,1.14,5.1-2.27,6.51-11.86,4.91-17.08,12.31-21.69,18.84l-.7,1c-.08,.12-.24,.16-.37,.09l-.31-.17c-1.4-.77-3.32-1.82-5.82-1.82-3.73,0-6.59,2.34-8.42,4.1-9.21,8.86-14.44,18.32-17.96,25.56-.49,1-1.18,1.93-2.13,2.83-.05,.05-.13,.08-.2,.08Zm-51.65-33.04c.37,.36,.84,.77,1.38,1.24,3.62,3.13,9.24,5.05,15.19,7.08,4.61,1.57,9.36,3.2,13.55,5.54,1.59,.89,3.58,1.77,5.7,2.69,6.72,2.95,14.3,6.29,15.87,13.38,.15,.7,.24,1.4,.26,2.11,.66-.7,1.16-1.42,1.53-2.18,3.55-7.29,8.81-16.8,18.08-25.73,1.9-1.83,4.89-4.26,8.82-4.26,2.65,0,4.64,1.09,6.09,1.89l.09,.05,.56-.79c4.65-6.59,9.93-14.06,21.94-19.04,2.96-1.23,1.97-5.66,1.93-5.85-1.89-8.14-.35-16.11,4.46-23.05,7.31-10.55,21.33-17.67,39.48-20.05,4.49-.59,7.07-1.35,8.89-2.64,6.78-4.76,14.28-5.65,23.39-6.32,8.19-.6,17.48-1.29,25.51-4.85,6.73-2.99,8.91-6.26,12.21-11.2l.24-.35c2.27-3.41,5.21-6.42,8.05-9.33,3.03-3.11,5.89-6.04,7.42-8.9,2.61-4.85,4.26-10.01,6.01-15.46,1.21-3.77,2.45-7.66,4.06-11.55,.9-2.17,.73-2.48,.37-3.15-4.8-8.88-3.53-18.73,3.76-29.29,1.03-3.79,4.32-5.13,6.84-5.13,.54,0,1.09,.05,1.68,.15,1.04,.18,1.98,.27,2.78,.27,2.41,0,2.7-.45,4.31-2.95,.84-1.3,1.79-2.77,3.21-4.13,5.18-4.97,10.15-9.06,15.63-12.88,10.9-7.59,21.65-15.71,22.99-24.13,.59-3.73-.72-7.66-4.01-12.02l-.36-.48q-1.73-2.3-2.74-2.3c-.86,0-2.02,.16-3.45,.48-1.83,.41-3.7,.62-5.55,.62-6.4,0-11.83-2.42-16.75-5.04-2.5-1.33-4.96-2.71-7.35-4.04-12.96-7.24-25.19-14.09-42.51-14.09-2.91,0-5.94,.2-9,.59-1.13,.14-2.35,.22-3.61,.22-4.32,0-9.47-.88-13.77-2.35-3.4-1.16-6.9-1.73-10.69-1.73-4.96,0-9.95,1-13.75,1.88l-17.63,11.28c-.11,.07-.25,.06-.34-.03s-.12-.22-.07-.34l8.53-18.15c.23-.49,.46-.98,.68-1.47l.05-.11c-3.69-.94-7.33-2.06-10.85-3.14-9.17-2.81-17.82-5.47-27.8-5.47-5.51,0-10.93,.82-16.57,2.5-.13,.04-.27-.02-.33-.13l-4.27-7.51c-1.51-.05-3.06-.11-4.58-.33-1.14-.17-2.6-.27-4.13-.38-6.09-.44-12.99-.93-15.48-6.49-1.01-2.26-1.46-5.96,2.18-10.69,.47-.61,.67-1.01,.76-1.23-.25-.34-1.04-1.17-3.39-2.54-4.59-2.68-6.68-5.82-8.36-8.35-.46-.7-.9-1.35-1.36-1.95-2.06-2.68-2.43-5.72-2.71-7.95l-.04-.33c-1.53,.35-2.64,1.57-4.8,4.27-1.18,1.48-2.53,3.17-4.21,4.64-.3,.27-.77,.98-1.19,1.61-1.65,2.5-4.69,7.13-11.9,7.13-.53,0-1.07-.03-1.62-.07-.81-.07-1.68-.11-2.65-.11-1.87,0-3.79,.13-5.83,.27-2.17,.15-4.42,.31-6.74,.31-5.19,0-9.46-.82-13.42-2.58-.68-.3-2.37-.63-4.45-.63-2.21,0-3.84,.35-4.61,.67-1.52,2.38-4.17,5.49-9.59,5.49-.86,0-1.79-.07-3-.23-1.25-.16-2.49-.24-3.78-.24-4.98,0-9.72,1.21-14.74,2.48-1.43,.36-2.86,.73-4.29,1.06-3.6,.84-7.14,1.27-10.52,1.27-7.94,0-14.65-2.38-18.91-6.69-3.21-3.26-4.88-7.43-4.81-12.06,.05-3.34,1.5-6.83,4.44-10.65-.41-.28-.84-.56-1.18-.78-1.16-.76-2.48-1.61-3.65-2.64-.5,.25-1.02,.53-1.42,.74-.95,.51-1.94,1.04-2.96,1.47-10.49,4.47-21.84,8.83-34.97,8.83-3.25,0-6.55-.28-9.81-.83,.93,1.56,2.08,2.39,5.21,2.96l16.22,2.92c.12,.02,.21,.12,.23,.24s-.04,.24-.15,.3l-14.52,7.79c-1.19,.64-2.3,1.22-3.35,1.77l-.08,.04c-2.09,1.09-3.85,2.02-5.46,2.97-10.54,6.28-21.79,9.46-33.44,9.46h-.53c-7.4-.06-14.45-3.65-18.88-9.61-.11,0-.23,0-.36,0-.55,0-1.19,.04-1.91,.13-3.88,.46-7.79,.6-11.57,.73-2.05,.07-4.17,.15-6.22,.27-.2,.01-.4,.02-.61,.03,.5,1.23,.65,2.61,.45,4.09l-.58,4.14c-.02,.12-.11,.22-.23,.24l-4.74,.83c-.88,.15-2.28,.4-3.71,.69,10.35,10.52,5.52,21.55,2.31,28.88-1.22,2.78-2.36,5.4-2.81,7.77-.97,5.15-4.79,8.1-10.46,8.1-.26,0-.54,0-.82-.02-1.28-.06-2.53-.09-3.74-.09-23.39,0-31.73,10.47-41.38,22.59l-.12,.16c-.47,.59-.95,1.19-1.42,1.78,.61,.4,1.31,.81,1.84,1.12,2.21,1.3,4.71,2.77,6.44,5.05,5.23,6.87,9.89,9.55,16.6,9.55,3.88,0,8.74-.89,14.86-2.73l7.39-2.22c.09-.03,.18,0,.25,.04,.07,.05,.12,.14,.12,.23v7.72c0,.21,.02,.42,.03,.62v.12c.09,1.13,.21,2.68-.33,4.47-.19,.65-.27,1.1-.31,1.4,.79,.34,2.98,.94,8.46,.94h.81c15.26-.16,25.57-2.16,34.47-6.69,5.24-2.66,11.73-4.11,19.31-4.29h.31c.95-.03,1.86-.05,2.71-.05,2.71,0,7.77,0,10.65,4,1.83,2.53,2.11,5.74,.85,9.56-.65,1.97-1.22,3.68,3.08,6.32,11.56,7.1,27.04,10.14,42,13.09,2.64,.52,5.24,1.03,7.8,1.56,14.11,2.92,22.59,7.41,21.29,20.79-.37,3.81,.24,4.53,.26,4.56,.33,.37,2.12,1.58,11.28,1.72,.29,0,.57,0,.86,0h2.71c3.37-.01,9-.01,11.99,4.33,.9,1.3,1.85,3.5,1.39,6.62,.64,.3,1.31,.57,1.67,.73,4.9,2.05,7.9,4.71,9.17,8.14,.72,1.96,1.19,5.08-.71,8.84-3.74,7.42-4.81,15.35-3.38,24.95,.54,3.6,.89,4.54,5.84,4.54,.9,0,1.92-.05,3.03-.16,2.21-.21,4.18-.31,6.02-.31,7.17,0,12.08,1.57,15.45,4.94,2.79,2.8,4.21,6.62,4.2,11.36,0,.6,.08,1.06,.15,1.37,2.66-.31,4.89-.47,6.83-.47,3.54,0,8.56,.46,11.18,4.44,2.68,4.07,.87,8.3-.32,11.1-.27,.63-.77,1.79-.82,2.17-.04,.3-.1,.6-.17,.9,7.7,3.73,11.87,9.03,11.77,14.92-.06,3.55-1.84,10.09-13.05,13.93-14.11,4.84-24.01,11.42-32.6,17.81-.43,.32-.82,.63-1.16,.92Z"/><g><g><polygon class="cls-3" points="364.91 413.04 363.06 413.04 362.44 411.3 363.38 410.96 363.77 412.04 364.91 412.04 364.91 413.04"/><rect class="cls-3" x="360.85" y="405.22" width="1" height="3.09" transform="translate(-115.76 145.24) rotate(-19.65)"/><polygon class="cls-3" points="359.32 402.57 358.58 400.49 360.79 400.49 360.79 401.49 360 401.49 360.26 402.23 359.32 402.57"/><path class="cls-3" d="M376.58,401.49h-2.63v-1h2.63v1Zm-5.26,0h-2.63v-1h2.63v1Zm-5.26,0h-2.63v-1h2.63v1Z"/><polygon class="cls-3" points="380.74 402.57 380.36 401.49 379.21 401.49 379.21 400.49 381.06 400.49 381.69 402.23 380.74 402.57"/><rect class="cls-3" x="382.27" y="405.22" width="1" height="3.09" transform="translate(-114.51 152.44) rotate(-19.65)"/><polygon class="cls-3" points="385.55 413.04 383.34 413.04 383.34 412.04 384.13 412.04 383.86 411.3 384.8 410.96 385.55 413.04"/><path class="cls-3" d="M380.71,413.04h-2.63v-1h2.63v1Zm-5.26,0h-2.63v-1h2.63v1Zm-5.26,0h-2.63v-1h2.63v1Z"/></g><polygon class="cls-3" points="382 410.54 364.82 410.54 362.12 402.99 379.3 402.99 382 410.54"/></g></g><polygon class="cls-6" points="649.89 137.81 358.58 400.49 382 410.54 931.22 323.23 700 137.81 649.89 137.81"/><g><path class="cls-4" d="M908.31,146.62l-1.17-8.81h-257.25l-4.68,8.69c-.28,1.62,1.04,3.98,1.29,5.62,.34,2.26-1.47,3.72-1.92,5.74-.39,1.74,.04,3.24,1.03,4.65,1.69,2.39,3.46,5.54,2.5,8.64-.27,.87-.94,1.45-.93,2.41,0,.9,.61,1.58,.77,2.45,.44,2.56-1.37,5.12-2.72,7.08-2.37,3.45-5.43,4.94-9.52,6-1.89,.49-4.13,1.01-4.54,3.15-.27,1.4-.09,3.36,0,4.78,.08,1.28,.53,3.81,1.5,4.79s3.55,1.33,4.88,1.5c1.45,.18,2.55-.24,3.82,.44,1.35,.73,2.28,1.63,3.02,2.89,1.66,2.82,1.74,5.76,2.15,9,.11,.89,.58,1.58,.73,2.47,.16,1-.23,2.08-.07,3.07,.23,1.41,.87,2.78,1.22,4.14,.32,1.24,.35,3.09,.09,4.34-.42,2.06-1.63,2.84-3.24,4.13-2.5,2.01-5.42,3.89-7.17,6.59-.99,1.52-1.58,2.94-2.15,4.68-1.17,3.53-.32,7.72-2.73,10.89-.99,1.31-2.35,1.55-3.72,2.02-2.87,.99-5.48,2.41-8.25,3.73-1.03,.49-3.68,1.31-4.14,2.32-.56,1.25,.41,3.26,.65,4.39,.77,3.5,1.5,7.75,4.26,10.2,.83,.74,1.64,1.43,1.85,2.48,.1,.51,.1,1.54,0,2.05-.11,.57-.56,.9-.64,1.37-.18,.98,.26,1.03,.47,1.74,.24,.81,.11,1.53,.13,2.38,.05,1.56,.45,3.33,.83,4.83,.34,1.35,.78,2.42,2.17,2.7,1.64,.32,2.84-.79,4.38-.72,1.65,.08,1.86,.94,2.3,2.38,.75,2.47,1.64,4.94,2.45,7.37,.63,1.89,.61,2.41-.24,4.24-1.79,3.87-2.99,8.12-4.53,12.09l-.67,4.01h303.35l-1.34-10.69c.04-1.77-.8-2.84-.68-4.68,.09-1.55,.62-3.1,1.35-4.34,1.51-2.57,3.75-4.24,4.02-7.32,.19-2.18,.95-3.67,.16-5.73-.58-1.52-1.16-2.06-2.5-2.99-1.69-1.17-1.68-1.61-1.67-3.68,.01-1.71-.28-3.7,.15-5.35s.99-3.1-.3-4.71c-.79-.98-1.95-1.3-2.39-2.63s-.13-3.24-.13-4.68c0-2.22,.09-4.1,.59-6.27,.43-1.9,.76-3.82,.78-5.77,0-.92-.28-2.15,0-3.04,.48-1.53,2.8-3.19,3.98-4.33,1.28-1.24,2.79-2.1,3.86-3.47,1.01-1.3,.82-2.7,.82-4.25,0-2.36-.26-5.17,1.05-7.27,1.21-1.93,3.19-3.84,4.98-5.23,2.19-1.7,3.74-3.51,3.97-6.25,.13-1.6,.65-3.12,.72-4.74,.08-1.88-.15-3.78-.06-5.66,.05-1,.78-2.29,.61-3.22-.09-.47-1.25-1.63-1.65-2-.94-.86-2.56-1.33-2.98-2.62-.26-.79,.03-2.19,.04-3.02,.01-1.58-.22-2.83-.51-4.36-.46-2.38-.59-4.83-1.5-7.05-.7-1.72-.28-2.11,1.08-3.66,.95-1.08,2.36-1.83,2.79-3.32,.71-2.5,.14-5.51,.78-8.07,.31-1.23,1.22-2.51,.55-3.83-1.31-2.62-5.79-2.14-8.19-2.14-3.82,0-7.06,.42-9.75-2.67-1.57-1.8-3.18-3.42-4.9-5.09-1.39-1.35-.76-2.26-1.13-3.94-.44-1.98-1.64-1.67-3.29-1.67s-3.44,0-5.16,0c-1.58,0-3.66,.37-5.22,.03-1.78-.39-2.7-3.76-3.34-5.37-.51-1.3-.77-2.57-1.14-3.89-.15-.55-.72-.62-.51-1.46"/><path class="cls-3" d="M931.22,323.23h-297.94l.17-1.02c.57-1.52,1.08-3,1.58-4.43,.85-2.47,1.74-5.02,2.81-7.33,1.1-2.38,1.16-3.49,.34-5.97-.25-.75-.51-1.51-.77-2.27-.54-1.57-1.14-3.34-1.7-5.17-.43-1.41-1.14-3.77-4.39-3.91-1.12-.04-2.1,.27-2.79,.5-.46,.15-.77,.25-1.02,.27l-.24,.02-.09-.22c-.05-.14-.14-.37-.24-.78-.36-1.4-.72-3.01-.76-4.32,0-.2,0-.39,0-.58,.02-.68,.04-1.48-.23-2.4-.06-.21-.13-.39-.21-.55l-.07-.15,.08-.15c.21-.39,.35-.77,.43-1.17,.15-.81,.15-2.16,0-2.94-.36-1.8-1.59-2.89-2.58-3.77-1.98-1.76-2.71-5.15-3.35-8.14l-.18-.82c-.07-.33-.19-.72-.35-1.22-.11-.33-.29-.9-.37-1.32l-.05-.25,.22-.12c.51-.27,1.28-.58,1.69-.75,.42-.17,.79-.32,1.06-.45,.67-.32,1.33-.64,1.99-.97,2.05-1.01,3.97-1.96,6.01-2.66,.2-.07,.4-.13,.6-.19,1.24-.4,2.94-.94,4.22-2.63,1.88-2.48,2.18-5.31,2.44-7.8,.14-1.36,.28-2.65,.65-3.77,.5-1.51,1.01-2.79,1.89-4.14,1.17-1.8,3.05-3.24,5.04-4.76,.58-.44,1.12-.86,1.64-1.27l.43-.34c1.45-1.15,3.09-2.44,3.64-5.15,.33-1.62,.28-3.83-.12-5.39-.15-.59-.35-1.19-.58-1.85-.26-.75-.5-1.45-.6-2.09-.03-.15,0-.42,.05-.9,.07-.61,.15-1.36,.02-2.17-.11-.66-.31-1.2-.48-1.64-.12-.3-.21-.56-.24-.74-.06-.48-.11-.95-.17-1.42-.31-2.8-.63-5.66-2.29-8.48-.97-1.64-2.22-2.84-3.93-3.76-1.38-.75-2.63-.7-3.51-.68-.57,.02-.8,.02-1.13-.02-2.21-.27-3.09-.58-3.44-.78l-.11-.11c-.34-.54-.71-2.07-.78-3.22l-.04-.61c-.07-1.14-.17-2.68,0-3.59,.1-.53,.94-.83,2.66-1.28l.17-.04c3.85-1,7.83-2.53,10.86-6.94l.1-.14c1.52-2.21,3.6-5.23,3-8.67-.12-.67-.36-1.22-.54-1.62-.04-.09-.08-.17-.11-.22l-.09-.16,.22-.4c.19-.34,.44-.79,.62-1.36,1.3-4.16-.99-8.09-2.82-10.69-.68-.96-.88-1.8-.66-2.79,.11-.47,.39-.98,.71-1.58,.66-1.21,1.56-2.86,1.24-5.02-.13-.84-.42-1.69-.7-2.51-.2-.59-.5-1.46-.58-1.99l-.02-.11,3.77-7h253.81l.64,4.82-.26-.07c-.16,.93,.05,1.79,.62,2.55l.05,.11,.18,.71c.26,1,.52,2.02,.95,3.09,.09,.23,.19,.5,.29,.79,.78,2.15,1.96,5.4,4.72,6.01,.61,.13,1.29,.2,2.09,.2,.71,0,1.4-.05,2.08-.1h.13c.5-.04,.98-.08,1.41-.08h3.44c.58,0,1.16,0,1.74,0,.19,0,.39,0,.57-.01h.46l.03,.3c.01,.17,.02,.35,.03,.55,.03,1.07,.07,2.54,1.69,4.1,1.53,1.48,3.17,3.11,4.77,4.94,3.16,3.63,7.05,3.53,10.33,3.48,.7,0,1.38,0,2.23-.03,.31,0,.64-.01,1.03-.01,2.95,0,3.65,.41,3.92,.71l.11,.13-.04,.17c-.04,.2-.17,.53-.26,.78-.16,.43-.33,.88-.43,1.31-.38,1.5-.4,3.01-.43,4.47-.02,1.31-.05,2.54-.33,3.54-.11,.37-.57,.78-1.1,1.26-.35,.31-.79,.7-1.19,1.16l-.13,.15c-1.33,1.51-2.59,2.94-1.37,5.94,.53,1.31,.76,2.81,1,4.4,.11,.75,.23,1.49,.37,2.22,.3,1.55,.48,2.59,.47,3.89,0,.17-.02,.38-.04,.6v.12c-.1,.92-.21,2.05,.12,3.05,.54,1.65,1.92,2.51,2.83,3.07,.31,.19,.62,.39,.79,.54,.23,.21,.51,.5,.73,.74l.13,.14-.16,.53c-.18,.59-.38,1.25-.42,1.97-.05,1.06-.01,2.09,.03,3.09,.04,.92,.07,1.77,.03,2.59-.03,.69-.18,1.43-.33,2.2-.15,.78-.31,1.58-.39,2.45-.14,1.7-1,2.99-3.07,4.59-1.36,1.05-3.88,3.21-5.53,5.84-1.5,2.4-1.46,5.26-1.42,7.55,0,.34,.01,.65,.01,.96v.66c.03,1.13,.02,1.7-.32,2.15-.48,.61-1.13,1.13-1.89,1.74-.58,.46-1.16,.92-1.75,1.49-.24,.23-.53,.48-.84,.75l-.09,.08c-1.38,1.2-3.09,2.69-3.66,4.48-.33,1.04-.23,2.1-.16,2.95v.11c.03,.23,.05,.46,.05,.66-.01,1.52-.23,3.15-.72,5.27-.53,2.33-.64,4.4-.64,6.79,0,.33-.02,.7-.04,1.07v.1c-.08,1.34-.17,2.85,.3,4.25,.5,1.49,1.5,2.27,2.16,2.8,.26,.21,.49,.38,.62,.55,.38,.48,.38,.73-.02,2.21l-.12,.45c-.39,1.51-.32,3.08-.26,4.48,.02,.5,.04,.98,.04,1.44-.02,2.45,.1,3.81,2.67,5.61,1.13,.79,1.3,.98,1.66,1.91,.31,.8,.21,1.43-.02,2.67-.11,.59-.23,1.26-.3,2.03-.11,1.36-.79,2.3-1.97,3.86-.55,.72-1.17,1.53-1.73,2.47-.96,1.63-1.55,3.54-1.66,5.39-.08,1.34,.19,2.37,.41,3.2,.16,.61,.28,1.06,.27,1.57v.19l.02,.14,1.01,8.06Zm-297.16-.67h296.4l-.94-7.5v-.24c.01-.42-.1-.83-.24-1.39-.23-.87-.52-1.96-.43-3.41,.12-1.95,.74-3.97,1.76-5.69,.57-.97,1.21-1.81,1.77-2.54,1.11-1.45,1.74-2.33,1.84-3.51,.07-.8,.19-1.49,.3-2.09,.21-1.17,.29-1.68,.05-2.31-.29-.76-.36-.86-1.41-1.6-2.84-1.98-2.98-3.63-2.96-6.16,0-.45-.02-.92-.04-1.39-.06-1.46-.13-3.09,.28-4.69l.12-.46c.36-1.34,.32-1.39,.14-1.62-.08-.1-.3-.27-.51-.44-.73-.58-1.83-1.44-2.39-3.11-.51-1.52-.42-3.1-.34-4.5v-.1c.03-.36,.05-.71,.05-1.03,0-2.43,.12-4.54,.66-6.93,.47-2.07,.69-3.65,.7-5.13,0-.18-.02-.39-.04-.59v-.11c-.09-.92-.19-2.05,.18-3.21,.62-1.96,2.41-3.52,3.85-4.77l.1-.08c.3-.26,.58-.51,.81-.73,.61-.59,1.24-1.09,1.79-1.53,.73-.58,1.35-1.08,1.78-1.63,.19-.24,.21-.62,.19-1.73v-.66c0-.31-.01-.62-.02-.94-.04-2.4-.09-5.37,1.52-7.94,1.7-2.72,4.29-4.93,5.69-6.01,1.9-1.47,2.69-2.63,2.81-4.12,.08-.91,.24-1.73,.4-2.53,.15-.75,.29-1.45,.32-2.1,.04-.79,0-1.63-.03-2.51-.04-1.04-.08-2.08-.03-3.17,.04-.8,.25-1.51,.45-2.13l.05-.17c-.18-.2-.39-.4-.56-.56-.11-.11-.43-.3-.67-.45-1-.62-2.51-1.55-3.13-3.44-.37-1.13-.26-2.34-.17-3.32v-.13c.03-.2,.05-.39,.05-.54,.01-1.25-.16-2.25-.46-3.76-.14-.74-.26-1.48-.37-2.23-.24-1.56-.46-3.03-.96-4.26-1.38-3.39,.14-5.11,1.48-6.64l.13-.15c.43-.48,.88-.89,1.25-1.21,.36-.32,.85-.76,.91-.95,.26-.91,.28-2.1,.31-3.37,.03-1.49,.06-3.04,.45-4.62,.11-.46,.29-.93,.44-1.33,.07-.18,.14-.38,.2-.54-.28-.15-1.08-.39-3.28-.39-.38,0-.71,0-.95,.01-.99,.02-1.6,.02-2.3,.03-3.43,.04-7.48,.14-10.84-3.71-1.58-1.82-3.21-3.43-4.73-4.9-1.81-1.76-1.86-3.51-1.89-4.57,0-.07,0-.13,0-.2-.14,0-.28,0-.41,0-.58,0-1.16,0-1.74,0h-3.44c-.42,0-.89,.03-1.37,.06h-.13c-.69,.06-1.4,.11-2.13,.11-.85,0-1.58-.07-2.24-.21-3.13-.69-4.38-4.14-5.21-6.43-.1-.29-.2-.55-.29-.77-.44-1.11-.71-2.15-.97-3.15l-.17-.66c-.73-1.01-.94-2.15-.63-3.39l.06-.23-.45-3.36h-252.82l-3.47,6.45c.09,.49,.36,1.28,.53,1.76,.29,.86,.6,1.74,.73,2.64,.36,2.38-.61,4.15-1.31,5.44-.3,.55-.56,1.03-.65,1.41-.18,.81-.03,1.44,.55,2.26,1.91,2.71,4.3,6.83,2.91,11.27-.2,.63-.47,1.13-.67,1.49l-.04,.07s.04,.07,.05,.11c.19,.43,.46,1.03,.59,1.78,.64,3.7-1.53,6.86-3.11,9.16l-.1,.14c-3.15,4.59-7.27,6.18-11.24,7.21l-.17,.04c-.5,.13-2,.52-2.18,.79-.15,.8-.05,2.29,.02,3.38l.04,.63c.07,1.14,.41,2.39,.64,2.83,.27,.13,1.05,.4,3.11,.66,.29,.03,.6,.03,.96,.02,.23,0,.41,0,.59,0,.88,0,2.06,.09,3.33,.77,1.82,.98,3.15,2.26,4.19,4.01,1.73,2.94,2.06,5.87,2.37,8.71,.05,.49,.11,.97,.17,1.44,.01,.1,.11,.37,.2,.59,.18,.47,.4,1.05,.52,1.78,.15,.9,.06,1.71-.01,2.35-.02,.17-.07,.62-.06,.72,.1,.59,.33,1.26,.57,1.98,.23,.68,.44,1.29,.59,1.91,.42,1.64,.47,3.98,.12,5.69-.6,2.94-2.34,4.32-3.88,5.53l-.43,.34c-.52,.42-1.06,.83-1.61,1.25-1.98,1.52-3.82,2.93-4.92,4.63-.84,1.29-1.34,2.53-1.82,3.99-.35,1.05-.48,2.3-.62,3.62-.27,2.58-.58,5.51-2.57,8.14-1.41,1.86-3.23,2.44-4.55,2.86-.19,.06-.39,.12-.58,.19-2,.69-3.91,1.63-5.93,2.62-.67,.33-1.33,.66-2,.98-.28,.14-.67,.29-1.1,.47-.35,.14-.94,.38-1.41,.6,.09,.35,.22,.74,.3,1,.16,.51,.29,.92,.37,1.28l.18,.82c.62,2.89,1.33,6.16,3.14,7.78,1.01,.9,2.39,2.13,2.8,4.14,.17,.86,.18,2.3,0,3.19-.08,.42-.22,.82-.42,1.22,.06,.15,.12,.31,.17,.48,.31,1.02,.28,1.89,.26,2.58,0,.21-.01,.38,0,.57,.04,1.25,.4,2.81,.74,4.18,.05,.18,.09,.33,.12,.44,.16-.04,.37-.11,.6-.19,.75-.25,1.79-.6,3.04-.54,3.73,.17,4.59,3.02,5,4.39,.55,1.82,1.16,3.59,1.69,5.15,.26,.76,.52,1.52,.77,2.27,.88,2.62,.8,3.95-.36,6.46-1.06,2.28-1.93,4.81-2.78,7.26-.5,1.44-1.01,2.93-1.57,4.39l-.03,.18Z"/><g><polygon class="cls-2" points="763.13 231.69 773.04 221.78 745.67 221.78 738.49 228.96 724.46 228.96 724.46 222.28 714.77 231.3 714.77 232.08 724.46 241.1 724.46 234.42 738.49 234.42 745.67 241.6 773.04 241.6 763.13 231.69"/><polygon class="cls-2" points="774.48 192.97 774.48 220.34 784.39 210.43 794.3 220.34 794.3 192.97 787.12 185.79 787.12 171.76 793.8 171.76 784.78 162.07 784 162.07 774.98 171.76 781.66 171.76 781.66 185.79 774.48 192.97"/><polygon class="cls-2" points="844.32 222.28 844.32 228.96 830.29 228.96 823.11 221.78 795.74 221.78 805.65 231.69 795.74 241.6 823.11 241.6 830.29 234.42 844.32 234.42 844.32 241.1 854.01 232.08 854.01 231.3 844.32 222.28"/><polygon class="cls-2" points="794.3 270.41 794.3 243.04 784.39 252.95 774.48 243.04 774.48 270.41 781.66 277.59 781.66 291.62 774.98 291.62 784 301.31 784.78 301.31 793.8 291.62 787.12 291.62 787.12 277.59 794.3 270.41"/></g></g></svg>