<?xml version="1.0" encoding="UTF-8"?><svg id="Camada_1" xmlns="http://www.w3.org/2000/svg" xmlns:xlink="http://www.w3.org/1999/xlink" viewBox="0 0 444 444"><defs><style>.cls-1{fill:url(#Gradiente_sem_nome_4);}.cls-2{fill:#fff;}.cls-3{fill:#6b6b6b;}.cls-4{fill:#2667c3;}.cls-5{fill:#4d4d4d;}.cls-6{fill:none;stroke:#6b6b6b;stroke-miterlimit:10;stroke-width:2px;}.cls-7{fill:#30584e;opacity:.7;}.cls-8{fill:#53326d;}.cls-8,.cls-9,.cls-10{opacity:.75;}.cls-9{fill:#9ae0f9;}.cls-10{fill:#0d548a;}</style><linearGradient id="Gradiente_sem_nome_4" x1="175.35" y1="221.97" x2="268.35" y2="221.97" gradientTransform="matrix(1, 0, 0, 1, 0, 0)" gradientUnits="userSpaceOnUse"><stop offset="0" stop-color="#dbdbdb"/><stop offset=".3" stop-color="#f3f3f3"/><stop offset=".5" stop-color="#fff"/><stop offset="1" stop-color="#e4e4e4"/></linearGradient></defs><line class="cls-6" x1="221.85" y1="103.97" x2="221.85" y2="339.97"/><line class="cls-6" x1="221.85" y1="103.97" x2="221.85" y2="339.97"/><line class="cls-6" x1="221.85" y1="103.97" x2="221.85" y2="339.97"/><rect class="cls-3" x="220.85" y="103.97" width="2" height="236"/><rect class="cls-3" x="103.85" y="220.97" width="236" height="2"/><rect class="cls-3" x="94.78" y="221.47" width="253.14" height="2" transform="translate(-92.48 221.68) rotate(-45)"/><rect class="cls-3" x="220.35" y="95.9" width="2" height="253.14" transform="translate(-92.48 221.68) rotate(-45)"/><circle class="cls-1" cx="221.85" cy="221.97" r="46.5"/><circle class="cls-8" cx="222" cy="64.5" r="39.83" transform="translate(19.41 175.87) rotate(-45)"/><circle class="cls-10" cx="222" cy="379.5" r="39.83" transform="translate(-203.32 268.13) rotate(-45)"/><circle class="cls-7" cx="379" cy="222.5" r="39.83" transform="translate(-46.32 333.16) rotate(-45)"/><circle class="cls-10" cx="339" cy="104.5" r="39.83" transform="translate(25.4 270.32) rotate(-45)"/><circle class="cls-7" cx="105" cy="104.5" r="39.83" transform="translate(-43.14 104.85) rotate(-45)"/><circle class="cls-9" cx="339" cy="340.5" r="39.83" transform="translate(-141.48 339.44) rotate(-45)"/><circle class="cls-8" cx="105" cy="340.5" r="39.83" transform="translate(-210.02 173.98) rotate(-45)"/><circle class="cls-9" cx="65" cy="222.5" r="39.83" transform="translate(-138.29 111.13) rotate(-45)"/><g><path class="cls-4" d="M211.75,221.77c-.32,.58-.81,1.04-1.48,1.4s-1.49,.53-2.47,.53h-1.82v4.33h-2.94v-12.05h4.76c.96,0,1.77,.17,2.44,.5,.66,.33,1.16,.79,1.49,1.37,.33,.58,.5,1.25,.5,2.01,0,.7-.16,1.34-.48,1.91Zm-2.92-.8c.27-.26,.41-.63,.41-1.12s-.14-.85-.41-1.12-.69-.4-1.25-.4h-1.6v3.02h1.6c.56,0,.98-.13,1.25-.4Z"/><path class="cls-4" d="M216.69,215.97v12.05h-2.94v-12.05h2.94Z"/><path class="cls-4" d="M219.1,218.8c.51-.93,1.23-1.66,2.15-2.18,.92-.52,1.97-.78,3.13-.78,1.43,0,2.66,.38,3.67,1.13,1.02,.75,1.7,1.79,2.04,3.09h-3.23c-.24-.5-.58-.89-1.02-1.15-.44-.26-.94-.4-1.5-.4-.9,0-1.64,.32-2.2,.94-.56,.63-.84,1.47-.84,2.52s.28,1.89,.84,2.52c.56,.63,1.29,.94,2.2,.94,.56,0,1.06-.13,1.5-.39,.44-.26,.78-.65,1.02-1.15h3.23c-.34,1.3-1.02,2.33-2.04,3.08-1.02,.75-2.24,1.12-3.67,1.12-1.17,0-2.21-.26-3.13-.78-.92-.52-1.64-1.24-2.15-2.17-.52-.93-.77-1.99-.77-3.18s.26-2.25,.77-3.19Z"/><path class="cls-4" d="M233.9,227.72c-.7-.29-1.26-.71-1.67-1.27s-.64-1.24-.66-2.03h3.12c.05,.45,.2,.79,.46,1.02,.26,.24,.61,.35,1.03,.35s.78-.1,1.03-.3c.25-.2,.38-.48,.38-.83,0-.3-.1-.54-.3-.74-.2-.19-.45-.35-.74-.48s-.71-.27-1.25-.43c-.78-.24-1.41-.48-1.91-.72-.49-.24-.92-.59-1.27-1.06-.36-.47-.53-1.08-.53-1.84,0-1.12,.41-2,1.22-2.64,.81-.63,1.87-.95,3.18-.95s2.4,.32,3.21,.95c.81,.64,1.25,1.52,1.3,2.65h-3.18c-.02-.39-.17-.7-.43-.92-.26-.22-.6-.33-1.01-.33-.36,0-.64,.09-.86,.28-.22,.19-.33,.46-.33,.82,0,.39,.18,.69,.55,.91,.37,.22,.94,.45,1.72,.7,.78,.26,1.41,.51,1.9,.75,.49,.24,.91,.59,1.26,1.05,.36,.46,.53,1.05,.53,1.77s-.17,1.31-.52,1.87c-.35,.56-.86,1.01-1.52,1.34-.66,.33-1.45,.5-2.35,.5s-1.67-.14-2.37-.43Z"/></g><g><path class="cls-2" d="M78.26,92.99l-2.1,5.58h-.84l-2.1-5.58h.78l1.75,4.81,1.75-4.81h.77Z"/><path class="cls-2" d="M79.06,95.17c.18-.34,.43-.6,.75-.79,.32-.19,.67-.28,1.06-.28s.72,.08,1,.25c.28,.17,.49,.37,.63,.62v-.8h.74v4.38h-.74v-.82c-.14,.26-.36,.47-.64,.64-.29,.17-.62,.25-1,.25s-.74-.1-1.06-.29c-.31-.19-.56-.46-.74-.81-.18-.35-.27-.74-.27-1.18s.09-.84,.27-1.18Zm3.24,.32c-.13-.25-.31-.43-.54-.56s-.48-.2-.75-.2-.52,.06-.74,.19c-.22,.13-.4,.31-.54,.56-.13,.25-.2,.53-.2,.86s.07,.63,.2,.88,.31,.44,.54,.57c.22,.13,.47,.2,.74,.2s.52-.07,.75-.2c.23-.13,.41-.32,.54-.57s.2-.54,.2-.87-.07-.62-.2-.86Z"/><path class="cls-2" d="M85.2,92.64v5.92h-.73v-5.92h.73Z"/><path class="cls-2" d="M87.23,98.35c-.33-.19-.59-.45-.78-.8-.19-.34-.28-.74-.28-1.2s.1-.84,.29-1.19c.19-.34,.46-.61,.8-.79,.34-.18,.71-.28,1.13-.28s.79,.09,1.13,.28c.34,.18,.6,.45,.8,.79s.29,.74,.29,1.19-.1,.85-.3,1.2c-.2,.34-.47,.61-.81,.8s-.72,.28-1.14,.28-.78-.09-1.12-.28Zm1.85-.54c.23-.12,.41-.31,.56-.55,.14-.25,.21-.54,.21-.9s-.07-.65-.21-.9c-.14-.25-.32-.43-.54-.55-.22-.12-.47-.18-.73-.18s-.51,.06-.73,.18-.4,.3-.53,.55c-.13,.25-.2,.54-.2,.9s.07,.66,.2,.9c.13,.25,.31,.43,.52,.55s.46,.18,.72,.18,.51-.06,.74-.18Z"/><path class="cls-2" d="M92.83,94.31c.24-.14,.53-.21,.87-.21v.75h-.19c-.82,0-1.22,.44-1.22,1.33v2.38h-.73v-4.38h.73v.71c.13-.25,.31-.45,.55-.58Z"/><path class="cls-2" d="M94.57,93.32c-.1-.1-.14-.21-.14-.35s.05-.26,.14-.35c.1-.1,.21-.14,.35-.14s.25,.05,.34,.14c.09,.1,.14,.21,.14,.35s-.05,.26-.14,.35c-.09,.1-.21,.14-.34,.14s-.26-.05-.35-.14Zm.7,.86v4.38h-.73v-4.38h.73Z"/><path class="cls-2" d="M97.05,97.96h2.15v.6h-2.98v-.6l2.13-3.19h-2.11v-.59h2.95v.59l-2.14,3.19Z"/><path class="cls-2" d="M100.15,95.17c.18-.34,.43-.6,.75-.79,.32-.19,.67-.28,1.06-.28s.72,.08,1,.25c.28,.17,.49,.37,.63,.62v-.8h.74v4.38h-.74v-.82c-.14,.26-.36,.47-.64,.64-.29,.17-.62,.25-1,.25s-.74-.1-1.06-.29c-.31-.19-.56-.46-.74-.81-.18-.35-.27-.74-.27-1.18s.09-.84,.27-1.18Zm3.24,.32c-.13-.25-.31-.43-.54-.56s-.48-.2-.75-.2-.52,.06-.74,.19c-.22,.13-.4,.31-.54,.56-.13,.25-.2,.53-.2,.86s.07,.63,.2,.88,.31,.44,.54,.57c.22,.13,.47,.2,.74,.2s.52-.07,.75-.2c.23-.13,.41-.32,.54-.57s.2-.54,.2-.87-.07-.62-.2-.86Z"/><path class="cls-2" d="M108.22,97.79c.21-.15,.36-.36,.44-.64h.78c-.11,.42-.32,.76-.63,1.02-.31,.26-.7,.42-1.17,.45v.4c.31,0,.56,.06,.75,.2,.19,.14,.28,.34,.28,.59s-.09,.45-.27,.6-.42,.22-.7,.22h-.92v-.47h.78c.18,0,.31-.03,.39-.08s.12-.14,.12-.27-.04-.21-.12-.26c-.08-.05-.21-.08-.39-.08h-.4v-.86c-.37-.04-.69-.15-.98-.35-.28-.19-.5-.46-.66-.78-.16-.33-.24-.7-.24-1.12,0-.45,.09-.85,.27-1.19,.18-.34,.43-.6,.76-.79,.32-.19,.69-.28,1.11-.28,.54,0,.98,.13,1.33,.39,.35,.26,.58,.62,.69,1.09h-.78c-.08-.27-.22-.48-.44-.63-.22-.15-.48-.23-.8-.23-.42,0-.75,.14-1.01,.43-.26,.29-.38,.69-.38,1.21s.13,.94,.38,1.22c.26,.29,.59,.43,1.01,.43,.32,0,.59-.07,.8-.22Z"/><path class="cls-2" d="M110.41,95.17c.18-.34,.43-.6,.75-.79,.32-.19,.67-.28,1.06-.28s.72,.08,1,.25c.28,.17,.49,.37,.63,.62v-.8h.74v4.38h-.74v-.82c-.14,.26-.36,.47-.64,.64-.29,.17-.62,.25-1,.25s-.74-.1-1.06-.29c-.31-.19-.56-.46-.74-.81-.18-.35-.27-.74-.27-1.18s.09-.84,.27-1.18Zm3.24,.32c-.13-.25-.31-.43-.54-.56s-.48-.2-.75-.2-.52,.06-.74,.19c-.22,.13-.4,.31-.54,.56-.13,.25-.2,.53-.2,.86s.07,.63,.2,.88,.31,.44,.54,.57c.22,.13,.47,.2,.74,.2s.52-.07,.75-.2c.23-.13,.41-.32,.54-.57s.2-.54,.2-.87-.07-.62-.2-.86Zm-2.05-2.42c.14-.14,.32-.22,.53-.22,.1,0,.19,.02,.26,.05,.07,.03,.16,.08,.26,.15,.07,.05,.14,.09,.2,.12,.06,.03,.12,.04,.19,.04,.09,0,.17-.03,.23-.09s.1-.14,.12-.26h.42c-.03,.27-.12,.47-.26,.62s-.32,.22-.54,.22c-.1,0-.19-.02-.27-.05-.08-.03-.16-.09-.26-.16-.09-.05-.15-.09-.2-.12s-.11-.04-.18-.04c-.09,0-.17,.03-.23,.09-.06,.06-.1,.15-.12,.26h-.42c.04-.27,.13-.48,.27-.62Z"/><path class="cls-2" d="M116.62,98.35c-.33-.19-.59-.45-.78-.8-.19-.34-.28-.74-.28-1.2s.1-.84,.29-1.19c.19-.34,.46-.61,.8-.79,.34-.18,.71-.28,1.13-.28s.79,.09,1.13,.28c.34,.18,.6,.45,.8,.79s.29,.74,.29,1.19-.1,.85-.3,1.2c-.2,.34-.47,.61-.81,.8s-.72,.28-1.14,.28-.78-.09-1.12-.28Zm1.85-.54c.23-.12,.41-.31,.56-.55,.14-.25,.21-.54,.21-.9s-.07-.65-.21-.9c-.14-.25-.32-.43-.54-.55-.22-.12-.47-.18-.73-.18s-.51,.06-.73,.18-.4,.3-.53,.55c-.13,.25-.2,.54-.2,.9s.07,.66,.2,.9c.13,.25,.31,.43,.52,.55s.46,.18,.72,.18,.51-.06,.74-.18Z"/><path class="cls-2" d="M123.08,95.17c.18-.34,.43-.6,.75-.79,.32-.19,.67-.28,1.07-.28,.34,0,.66,.08,.95,.24,.29,.16,.52,.36,.67,.62v-2.32h.74v5.92h-.74v-.82c-.14,.26-.36,.48-.64,.64s-.61,.25-.99,.25-.74-.1-1.06-.29c-.32-.19-.57-.46-.75-.81-.18-.35-.27-.74-.27-1.18s.09-.84,.27-1.18Zm3.24,.32c-.13-.25-.31-.43-.54-.56s-.48-.2-.75-.2-.52,.06-.74,.19c-.22,.13-.4,.31-.54,.56-.13,.25-.2,.53-.2,.86s.07,.63,.2,.88,.31,.44,.54,.57c.22,.13,.47,.2,.74,.2s.52-.07,.75-.2c.23-.13,.41-.32,.54-.57s.2-.54,.2-.87-.07-.62-.2-.86Z"/><path class="cls-2" d="M129.28,98.35c-.33-.19-.59-.45-.78-.8-.19-.34-.28-.74-.28-1.2s.1-.84,.29-1.19c.19-.34,.46-.61,.8-.79,.34-.18,.71-.28,1.13-.28s.79,.09,1.13,.28c.34,.18,.6,.45,.8,.79s.29,.74,.29,1.19-.1,.85-.3,1.2c-.2,.34-.47,.61-.81,.8s-.72,.28-1.14,.28-.78-.09-1.12-.28Zm1.85-.54c.23-.12,.41-.31,.56-.55,.14-.25,.21-.54,.21-.9s-.07-.65-.21-.9c-.14-.25-.32-.43-.54-.55-.22-.12-.47-.18-.73-.18s-.51,.06-.73,.18-.4,.3-.53,.55c-.13,.25-.2,.54-.2,.9s.07,.66,.2,.9c.13,.25,.31,.43,.52,.55s.46,.18,.72,.18,.51-.06,.74-.18Z"/><path class="cls-2" d="M134.25,98.46c-.27-.11-.48-.27-.63-.48-.15-.21-.24-.44-.26-.71h.75c.02,.22,.12,.4,.31,.54s.43,.21,.72,.21c.28,0,.5-.06,.66-.18s.24-.28,.24-.46-.09-.33-.26-.43c-.17-.09-.43-.19-.79-.28-.33-.09-.59-.17-.8-.26-.21-.09-.38-.22-.53-.39-.15-.17-.22-.4-.22-.68,0-.22,.07-.43,.2-.62,.13-.19,.32-.33,.57-.44s.53-.16,.84-.16c.49,0,.88,.12,1.18,.37,.3,.25,.46,.58,.48,1.01h-.73c-.02-.23-.11-.41-.28-.55s-.39-.21-.68-.21c-.26,0-.47,.06-.62,.17-.15,.11-.23,.26-.23,.44,0,.14,.05,.26,.14,.36s.21,.17,.35,.22c.14,.06,.34,.12,.59,.19,.31,.09,.57,.17,.77,.25s.37,.21,.51,.37c.14,.17,.21,.38,.22,.65,0,.24-.07,.46-.2,.65s-.32,.34-.56,.45c-.24,.11-.52,.16-.84,.16-.34,0-.64-.06-.9-.17Z"/><path class="cls-2" d="M74.45,104.77c.18-.34,.43-.6,.76-.79,.32-.19,.69-.28,1.11-.28,.54,0,.98,.13,1.33,.39,.35,.26,.58,.62,.69,1.09h-.78c-.08-.27-.22-.48-.44-.63-.22-.15-.48-.23-.8-.23-.42,0-.75,.14-1.01,.43-.26,.29-.38,.69-.38,1.21s.13,.94,.38,1.22c.26,.29,.59,.43,1.01,.43,.32,0,.59-.07,.8-.22s.36-.36,.44-.64h.78c-.12,.45-.35,.81-.7,1.08-.35,.27-.79,.4-1.32,.4-.42,0-.79-.09-1.11-.28s-.57-.45-.76-.79c-.18-.34-.27-.74-.27-1.2s.09-.85,.27-1.19Z"/><path class="cls-2" d="M80.11,107.95c-.33-.19-.59-.45-.78-.8-.19-.34-.28-.74-.28-1.2s.1-.84,.29-1.19c.19-.34,.46-.61,.8-.79,.34-.18,.71-.28,1.13-.28s.79,.09,1.13,.28c.34,.18,.6,.45,.8,.79s.29,.74,.29,1.19-.1,.85-.3,1.2c-.2,.34-.47,.61-.81,.8s-.72,.28-1.14,.28-.78-.09-1.12-.28Zm1.85-.54c.23-.12,.41-.31,.56-.55,.14-.25,.21-.54,.21-.9s-.07-.65-.21-.9c-.14-.25-.32-.43-.54-.55-.22-.12-.47-.18-.73-.18s-.51,.06-.73,.18-.4,.3-.53,.55c-.13,.25-.2,.54-.2,.9s.07,.66,.2,.9c.13,.25,.31,.43,.52,.55s.46,.18,.72,.18,.51-.06,.74-.18Z"/><path class="cls-2" d="M87.86,104.18c.33,.32,.5,.79,.5,1.4v2.58h-.72v-2.48c0-.44-.11-.77-.33-1s-.52-.35-.9-.35-.69,.12-.92,.36c-.23,.24-.34,.59-.34,1.05v2.42h-.73v-4.38h.73v.62c.14-.22,.34-.4,.59-.52,.25-.12,.52-.18,.82-.18,.53,0,.97,.16,1.3,.48Z"/><path class="cls-2" d="M92.62,103.91c.27,.14,.48,.35,.63,.64,.15,.28,.23,.63,.23,1.03v2.58h-.72v-2.48c0-.44-.11-.77-.33-1s-.52-.35-.9-.35-.69,.12-.92,.36c-.23,.24-.34,.59-.34,1.05v2.42h-.73v-5.92h.73v2.16c.14-.22,.34-.4,.6-.52,.25-.12,.54-.18,.85-.18,.33,0,.63,.07,.9,.21Z"/><path class="cls-2" d="M98.65,106.24h-3.5c.03,.43,.17,.77,.44,1.01,.27,.24,.6,.36,.98,.36,.31,0,.58-.07,.79-.22,.21-.15,.36-.34,.44-.59h.78c-.12,.42-.35,.76-.7,1.03-.35,.26-.79,.4-1.31,.4-.42,0-.79-.09-1.12-.28s-.59-.45-.77-.8c-.19-.34-.28-.74-.28-1.2s.09-.85,.27-1.19c.18-.34,.44-.6,.76-.79,.33-.18,.71-.28,1.13-.28s.78,.09,1.1,.27c.32,.18,.57,.43,.74,.75s.26,.68,.26,1.08c0,.14,0,.29-.02,.44Zm-.91-1.31c-.12-.2-.29-.35-.5-.46-.21-.1-.44-.16-.7-.16-.37,0-.68,.12-.94,.35-.26,.23-.41,.56-.44,.98h2.77c0-.28-.06-.52-.18-.72Z"/><path class="cls-2" d="M99.63,104.77c.18-.34,.43-.6,.76-.79,.32-.19,.69-.28,1.11-.28,.54,0,.98,.13,1.33,.39,.35,.26,.58,.62,.69,1.09h-.78c-.08-.27-.22-.48-.44-.63-.22-.15-.48-.23-.8-.23-.42,0-.75,.14-1.01,.43-.26,.29-.38,.69-.38,1.21s.13,.94,.38,1.22c.26,.29,.59,.43,1.01,.43,.32,0,.59-.07,.8-.22s.36-.36,.44-.64h.78c-.12,.45-.35,.81-.7,1.08-.35,.27-.79,.4-1.32,.4-.42,0-.79-.09-1.11-.28s-.57-.45-.76-.79c-.18-.34-.27-.74-.27-1.2s.09-.85,.27-1.19Z"/><path class="cls-2" d="M104.51,102.92c-.1-.1-.14-.21-.14-.35s.05-.26,.14-.35c.1-.1,.21-.14,.35-.14s.25,.05,.34,.14c.09,.1,.14,.21,.14,.35s-.05,.26-.14,.35c-.09,.1-.21,.14-.34,.14s-.26-.05-.35-.14Zm.7,.86v4.38h-.73v-4.38h.73Z"/><path class="cls-2" d="M112.64,103.91c.27,.14,.48,.35,.63,.64,.15,.28,.23,.63,.23,1.03v2.58h-.72v-2.48c0-.44-.11-.77-.32-1-.22-.23-.51-.35-.88-.35s-.68,.12-.9,.36c-.22,.24-.34,.59-.34,1.05v2.42h-.72v-2.48c0-.44-.11-.77-.32-1s-.51-.35-.88-.35-.68,.12-.9,.36c-.22,.24-.34,.59-.34,1.05v2.42h-.73v-4.38h.73v.63c.14-.23,.34-.41,.58-.53,.24-.12,.51-.18,.8-.18,.37,0,.69,.08,.98,.25,.28,.17,.49,.41,.63,.73,.12-.31,.33-.55,.61-.72,.28-.17,.6-.26,.94-.26s.65,.07,.91,.21Z"/><path class="cls-2" d="M118.67,106.24h-3.5c.03,.43,.17,.77,.44,1.01,.27,.24,.6,.36,.98,.36,.31,0,.58-.07,.79-.22,.21-.15,.36-.34,.44-.59h.78c-.12,.42-.35,.76-.7,1.03-.35,.26-.79,.4-1.31,.4-.42,0-.79-.09-1.12-.28s-.59-.45-.77-.8c-.19-.34-.28-.74-.28-1.2s.09-.85,.27-1.19c.18-.34,.44-.6,.76-.79,.33-.18,.71-.28,1.13-.28s.78,.09,1.1,.27c.32,.18,.57,.43,.74,.75s.26,.68,.26,1.08c0,.14,0,.29-.02,.44Zm-.91-1.31c-.12-.2-.29-.35-.5-.46-.21-.1-.44-.16-.7-.16-.37,0-.68,.12-.94,.35-.26,.23-.41,.56-.44,.98h2.77c0-.28-.06-.52-.18-.72Z"/><path class="cls-2" d="M123.09,104.18c.33,.32,.5,.79,.5,1.4v2.58h-.72v-2.48c0-.44-.11-.77-.33-1s-.52-.35-.9-.35-.69,.12-.92,.36c-.23,.24-.34,.59-.34,1.05v2.42h-.73v-4.38h.73v.62c.14-.22,.34-.4,.59-.52,.25-.12,.52-.18,.82-.18,.53,0,.97,.16,1.3,.48Z"/><path class="cls-2" d="M125.66,104.38v2.58c0,.21,.05,.36,.14,.45,.09,.09,.25,.13,.47,.13h.54v.62h-.66c-.41,0-.71-.09-.91-.28-.2-.19-.3-.49-.3-.92v-2.58h-.57v-.6h.57v-1.1h.73v1.1h1.14v.6h-1.14Z"/><path class="cls-2" d="M128.48,107.95c-.33-.19-.59-.45-.78-.8-.19-.34-.28-.74-.28-1.2s.1-.84,.29-1.19c.19-.34,.46-.61,.8-.79,.34-.18,.71-.28,1.13-.28s.79,.09,1.13,.28c.34,.18,.6,.45,.8,.79s.29,.74,.29,1.19-.1,.85-.3,1.2c-.2,.34-.47,.61-.81,.8s-.72,.28-1.14,.28-.78-.09-1.12-.28Zm1.85-.54c.23-.12,.41-.31,.56-.55,.14-.25,.21-.54,.21-.9s-.07-.65-.21-.9c-.14-.25-.32-.43-.54-.55-.22-.12-.47-.18-.73-.18s-.51,.06-.73,.18-.4,.3-.53,.55c-.13,.25-.2,.54-.2,.9s.07,.66,.2,.9c.13,.25,.31,.43,.52,.55s.46,.18,.72,.18,.51-.06,.74-.18Z"/><path class="cls-2" d="M133.45,108.06c-.27-.11-.48-.27-.63-.48-.15-.21-.24-.44-.26-.71h.75c.02,.22,.12,.4,.31,.54s.43,.21,.72,.21c.28,0,.5-.06,.66-.18s.24-.28,.24-.46-.09-.33-.26-.43c-.17-.09-.43-.19-.79-.28-.33-.09-.59-.17-.8-.26-.21-.09-.38-.22-.53-.39-.15-.17-.22-.4-.22-.68,0-.22,.07-.43,.2-.62,.13-.19,.32-.33,.57-.44s.53-.16,.84-.16c.49,0,.88,.12,1.18,.37,.3,.25,.46,.58,.48,1.01h-.73c-.02-.23-.11-.41-.28-.55s-.39-.21-.68-.21c-.26,0-.47,.06-.62,.17-.15,.11-.23,.26-.23,.44,0,.14,.05,.26,.14,.36s.21,.17,.35,.22c.14,.06,.34,.12,.59,.19,.31,.09,.57,.17,.77,.25s.37,.21,.51,.37c.14,.17,.21,.38,.22,.65,0,.24-.07,.46-.2,.65s-.32,.34-.56,.45c-.24,.11-.52,.16-.84,.16-.34,0-.64-.06-.9-.17Z"/><path class="cls-2" d="M82.96,113.98v2.58c0,.21,.05,.36,.14,.45,.09,.09,.25,.13,.47,.13h.54v.62h-.66c-.41,0-.71-.09-.91-.28-.2-.19-.3-.49-.3-.92v-2.58h-.57v-.6h.57v-1.1h.73v1.1h1.14v.6h-1.14Z"/><path class="cls-2" d="M86.26,113.51c.24-.14,.53-.21,.87-.21v.75h-.19c-.82,0-1.22,.44-1.22,1.33v2.38h-.73v-4.38h.73v.71c.13-.25,.31-.45,.55-.58Z"/><path class="cls-2" d="M87.97,114.37c.18-.34,.43-.6,.75-.79,.32-.19,.67-.28,1.06-.28s.72,.08,1,.25c.28,.17,.49,.37,.63,.62v-.8h.74v4.38h-.74v-.82c-.14,.26-.36,.47-.64,.64-.29,.17-.62,.25-1,.25s-.74-.1-1.06-.29c-.31-.19-.56-.46-.74-.81-.18-.35-.27-.74-.27-1.18s.09-.84,.27-1.18Zm3.24,.32c-.13-.25-.31-.43-.54-.56s-.48-.2-.75-.2-.52,.06-.74,.19c-.22,.13-.4,.31-.54,.56-.13,.25-.2,.53-.2,.86s.07,.63,.2,.88,.31,.44,.54,.57c.22,.13,.47,.2,.74,.2s.52-.07,.75-.2c.23-.13,.41-.32,.54-.57s.2-.54,.2-.87-.07-.62-.2-.86Z"/><path class="cls-2" d="M93.37,114.37c.18-.34,.43-.6,.75-.79,.32-.19,.67-.28,1.07-.28,.34,0,.66,.08,.95,.24,.29,.16,.52,.36,.67,.62v-2.32h.74v5.92h-.74v-.82c-.14,.26-.36,.48-.64,.64s-.61,.25-.99,.25-.74-.1-1.06-.29c-.32-.19-.57-.46-.75-.81-.18-.35-.27-.74-.27-1.18s.09-.84,.27-1.18Zm3.24,.32c-.13-.25-.31-.43-.54-.56s-.48-.2-.75-.2-.52,.06-.74,.19c-.22,.13-.4,.31-.54,.56-.13,.25-.2,.53-.2,.86s.07,.63,.2,.88,.31,.44,.54,.57c.22,.13,.47,.2,.74,.2s.52-.07,.75-.2c.23-.13,.41-.32,.54-.57s.2-.54,.2-.87-.07-.62-.2-.86Z"/><path class="cls-2" d="M98.81,112.52c-.1-.1-.14-.21-.14-.35s.05-.26,.14-.35c.1-.1,.21-.14,.35-.14s.25,.05,.34,.14c.09,.1,.14,.21,.14,.35s-.05,.26-.14,.35c-.09,.1-.21,.14-.34,.14s-.26-.05-.35-.14Zm.7,.86v4.38h-.73v-4.38h.73Z"/><path class="cls-2" d="M100.75,114.37c.18-.34,.43-.6,.76-.79,.32-.19,.69-.28,1.11-.28,.54,0,.98,.13,1.33,.39,.35,.26,.58,.62,.69,1.09h-.78c-.08-.27-.22-.48-.44-.63-.22-.15-.48-.23-.8-.23-.42,0-.75,.14-1.01,.43-.26,.29-.38,.69-.38,1.21s.13,.94,.38,1.22c.26,.29,.59,.43,1.01,.43,.32,0,.59-.07,.8-.22s.36-.36,.44-.64h.78c-.12,.45-.35,.81-.7,1.08-.35,.27-.79,.4-1.32,.4-.42,0-.79-.09-1.11-.28s-.57-.45-.76-.79c-.18-.34-.27-.74-.27-1.2s.09-.85,.27-1.19Z"/><path class="cls-2" d="M105.63,112.52c-.1-.1-.14-.21-.14-.35s.05-.26,.14-.35c.1-.1,.21-.14,.35-.14s.25,.05,.34,.14c.09,.1,.14,.21,.14,.35s-.05,.26-.14,.35c-.09,.1-.21,.14-.34,.14s-.26-.05-.35-.14Zm.7,.86v4.38h-.73v-4.38h.73Z"/><path class="cls-2" d="M108.37,117.55c-.33-.19-.59-.45-.78-.8-.19-.34-.28-.74-.28-1.2s.1-.84,.29-1.19c.19-.34,.46-.61,.8-.79,.34-.18,.71-.28,1.13-.28s.79,.09,1.13,.28c.34,.18,.6,.45,.8,.79s.29,.74,.29,1.19-.1,.85-.3,1.2c-.2,.34-.47,.61-.81,.8s-.72,.28-1.14,.28-.78-.09-1.12-.28Zm1.85-.54c.23-.12,.41-.31,.56-.55,.14-.25,.21-.54,.21-.9s-.07-.65-.21-.9c-.14-.25-.32-.43-.54-.55-.22-.12-.47-.18-.73-.18s-.51,.06-.73,.18-.4,.3-.53,.55c-.13,.25-.2,.54-.2,.9s.07,.66,.2,.9c.13,.25,.31,.43,.52,.55s.46,.18,.72,.18,.51-.06,.74-.18Z"/><path class="cls-2" d="M116.12,113.78c.33,.32,.5,.79,.5,1.4v2.58h-.72v-2.48c0-.44-.11-.77-.33-1s-.52-.35-.9-.35-.69,.12-.92,.36c-.23,.24-.34,.59-.34,1.05v2.42h-.73v-4.38h.73v.62c.14-.22,.34-.4,.59-.52,.25-.12,.52-.18,.82-.18,.53,0,.97,.16,1.3,.48Z"/><path class="cls-2" d="M117.81,114.37c.18-.34,.43-.6,.75-.79,.32-.19,.67-.28,1.06-.28s.72,.08,1,.25c.28,.17,.49,.37,.63,.62v-.8h.74v4.38h-.74v-.82c-.14,.26-.36,.47-.64,.64-.29,.17-.62,.25-1,.25s-.74-.1-1.06-.29c-.31-.19-.56-.46-.74-.81-.18-.35-.27-.74-.27-1.18s.09-.84,.27-1.18Zm3.24,.32c-.13-.25-.31-.43-.54-.56s-.48-.2-.75-.2-.52,.06-.74,.19c-.22,.13-.4,.31-.54,.56-.13,.25-.2,.53-.2,.86s.07,.63,.2,.88,.31,.44,.54,.57c.22,.13,.47,.2,.74,.2s.52-.07,.75-.2c.23-.13,.41-.32,.54-.57s.2-.54,.2-.87-.07-.62-.2-.86Z"/><path class="cls-2" d="M123.24,112.52c-.1-.1-.14-.21-.14-.35s.05-.26,.14-.35c.1-.1,.21-.14,.35-.14s.25,.05,.34,.14c.09,.1,.14,.21,.14,.35s-.05,.26-.14,.35c-.09,.1-.21,.14-.34,.14s-.26-.05-.35-.14Zm.7,.86v4.38h-.73v-4.38h.73Z"/><path class="cls-2" d="M125.84,117.66c-.27-.11-.48-.27-.63-.48-.15-.21-.24-.44-.26-.71h.75c.02,.22,.12,.4,.31,.54s.43,.21,.72,.21c.28,0,.5-.06,.66-.18s.24-.28,.24-.46-.09-.33-.26-.43c-.17-.09-.43-.19-.79-.28-.33-.09-.59-.17-.8-.26-.21-.09-.38-.22-.53-.39-.15-.17-.22-.4-.22-.68,0-.22,.07-.43,.2-.62,.13-.19,.32-.33,.57-.44s.53-.16,.84-.16c.49,0,.88,.12,1.18,.37,.3,.25,.46,.58,.48,1.01h-.73c-.02-.23-.11-.41-.28-.55s-.39-.21-.68-.21c-.26,0-.47,.06-.62,.17-.15,.11-.23,.26-.23,.44,0,.14,.05,.26,.14,.36s.21,.17,.35,.22c.14,.06,.34,.12,.59,.19,.31,.09,.57,.17,.77,.25s.37,.21,.51,.37c.14,.17,.21,.38,.22,.65,0,.24-.07,.46-.2,.65s-.32,.34-.56,.45c-.24,.11-.52,.16-.84,.16-.34,0-.64-.06-.9-.17Z"/></g><g><path class="cls-2" d="M72.95,333.58v1.86h2.03v.6h-2.03v1.92h2.27v.6h-3v-5.58h3v.6h-2.27Z"/><path class="cls-2" d="M82.51,334.31c.27,.14,.48,.35,.63,.64,.15,.28,.23,.63,.23,1.03v2.58h-.72v-2.48c0-.44-.11-.77-.32-1-.22-.23-.51-.35-.88-.35s-.68,.12-.9,.36c-.22,.24-.34,.59-.34,1.05v2.42h-.72v-2.48c0-.44-.11-.77-.32-1-.22-.23-.51-.35-.88-.35s-.68,.12-.9,.36c-.22,.24-.34,.59-.34,1.05v2.42h-.73v-4.38h.73v.63c.14-.23,.34-.41,.58-.53s.51-.18,.8-.18c.37,0,.69,.08,.98,.25,.28,.17,.49,.41,.63,.73,.12-.31,.33-.55,.61-.72,.28-.17,.6-.26,.94-.26s.65,.07,.91,.21Z"/><path class="cls-2" d="M85.94,334.36c.29-.17,.62-.25,1-.25s.74,.09,1.06,.28,.57,.45,.75,.79c.18,.34,.27,.73,.27,1.18s-.09,.84-.27,1.18c-.18,.35-.43,.62-.75,.81-.32,.19-.67,.29-1.06,.29s-.7-.08-.99-.25c-.29-.17-.5-.38-.65-.63v2.89h-.73v-6.46h.73v.81c.14-.25,.36-.46,.64-.63Zm2.13,1.13c-.13-.25-.31-.43-.54-.56-.23-.13-.48-.19-.75-.19s-.51,.07-.74,.2c-.23,.13-.41,.32-.54,.57-.14,.25-.2,.53-.2,.86s.07,.62,.2,.87c.14,.25,.32,.44,.54,.57,.23,.13,.47,.2,.74,.2s.52-.07,.75-.2c.23-.13,.41-.32,.54-.57s.2-.54,.2-.88-.07-.62-.2-.86Z"/><path class="cls-2" d="M90.77,338.35c-.33-.19-.59-.45-.78-.8-.19-.34-.28-.74-.28-1.2s.1-.84,.29-1.19c.19-.34,.46-.61,.8-.79,.34-.18,.71-.28,1.13-.28s.79,.09,1.13,.28c.34,.18,.6,.45,.8,.79,.19,.34,.29,.74,.29,1.19s-.1,.85-.3,1.2c-.2,.34-.47,.61-.81,.8s-.72,.28-1.14,.28-.78-.09-1.12-.28Zm1.85-.54c.23-.12,.41-.31,.56-.55,.14-.25,.21-.54,.21-.9s-.07-.65-.21-.9c-.14-.24-.32-.43-.54-.55-.22-.12-.47-.18-.73-.18s-.51,.06-.73,.18c-.22,.12-.4,.3-.53,.55-.13,.25-.2,.54-.2,.9s.07,.66,.2,.9c.13,.25,.31,.43,.52,.55s.46,.18,.72,.18,.51-.06,.74-.18Z"/><path class="cls-2" d="M95.1,335.17c.18-.34,.43-.6,.75-.79s.67-.28,1.07-.28c.34,0,.66,.08,.95,.24,.29,.16,.52,.36,.67,.62v-2.32h.74v5.92h-.74v-.82c-.14,.26-.36,.48-.64,.64s-.61,.25-.99,.25-.74-.1-1.06-.29c-.32-.19-.57-.46-.75-.81-.18-.35-.27-.74-.27-1.18s.09-.84,.27-1.18Zm3.24,.32c-.13-.25-.31-.43-.54-.56s-.48-.2-.75-.2-.52,.06-.74,.19c-.22,.13-.4,.31-.54,.56-.13,.24-.2,.53-.2,.86s.07,.63,.2,.88,.31,.44,.54,.57c.22,.13,.47,.2,.74,.2s.52-.07,.75-.2c.23-.13,.41-.32,.54-.57s.2-.54,.2-.87-.07-.62-.2-.86Z"/><path class="cls-2" d="M104.48,336.64h-3.5c.03,.43,.17,.77,.44,1.01,.27,.24,.6,.36,.98,.36,.31,0,.58-.07,.79-.22,.21-.15,.36-.34,.44-.59h.78c-.12,.42-.35,.76-.7,1.03-.35,.26-.79,.4-1.31,.4-.42,0-.79-.09-1.12-.28s-.59-.45-.77-.8c-.19-.34-.28-.74-.28-1.2s.09-.85,.27-1.19c.18-.34,.44-.6,.76-.79,.33-.18,.71-.28,1.13-.28s.78,.09,1.1,.27c.32,.18,.57,.43,.74,.75,.17,.32,.26,.68,.26,1.08,0,.14,0,.29-.02,.44Zm-.91-1.31c-.12-.2-.29-.35-.5-.46-.21-.1-.44-.16-.7-.16-.37,0-.68,.12-.94,.35-.26,.23-.41,.56-.44,.97h2.77c0-.28-.06-.52-.18-.71Z"/><path class="cls-2" d="M106.74,334.31c.24-.14,.53-.21,.87-.21v.75h-.19c-.82,0-1.22,.44-1.22,1.33v2.38h-.73v-4.38h.73v.71c.13-.25,.31-.45,.55-.58Z"/><path class="cls-2" d="M108.45,335.17c.18-.34,.43-.6,.75-.79s.67-.28,1.06-.28,.72,.08,1,.25c.28,.17,.49,.37,.63,.62v-.8h.74v4.38h-.74v-.82c-.14,.26-.36,.47-.64,.63-.29,.17-.62,.25-1,.25s-.74-.1-1.06-.29c-.31-.19-.56-.46-.74-.81-.18-.35-.27-.74-.27-1.18s.09-.84,.27-1.18Zm3.24,.32c-.13-.25-.31-.43-.54-.56s-.48-.2-.75-.2-.52,.06-.74,.19c-.22,.13-.4,.31-.54,.56-.13,.24-.2,.53-.2,.86s.07,.63,.2,.88,.31,.44,.54,.57c.22,.13,.47,.2,.74,.2s.52-.07,.75-.2c.23-.13,.41-.32,.54-.57s.2-.54,.2-.87-.07-.62-.2-.86Z"/><path class="cls-2" d="M120.04,334.31c.27,.14,.48,.35,.63,.64,.15,.28,.23,.63,.23,1.03v2.58h-.72v-2.48c0-.44-.11-.77-.32-1-.22-.23-.51-.35-.88-.35s-.68,.12-.9,.36c-.22,.24-.34,.59-.34,1.05v2.42h-.72v-2.48c0-.44-.11-.77-.32-1-.22-.23-.51-.35-.88-.35s-.68,.12-.9,.36c-.22,.24-.34,.59-.34,1.05v2.42h-.73v-4.38h.73v.63c.14-.23,.34-.41,.58-.53s.51-.18,.8-.18c.37,0,.69,.08,.98,.25,.28,.17,.49,.41,.63,.73,.12-.31,.33-.55,.61-.72,.28-.17,.6-.26,.94-.26s.65,.07,.91,.21Z"/><path class="cls-2" d="M126.07,336.64h-3.5c.03,.43,.17,.77,.44,1.01,.27,.24,.6,.36,.98,.36,.31,0,.58-.07,.79-.22,.21-.15,.36-.34,.44-.59h.78c-.12,.42-.35,.76-.7,1.03-.35,.26-.79,.4-1.31,.4-.42,0-.79-.09-1.12-.28s-.59-.45-.77-.8c-.19-.34-.28-.74-.28-1.2s.09-.85,.27-1.19c.18-.34,.44-.6,.76-.79,.33-.18,.71-.28,1.13-.28s.78,.09,1.1,.27c.32,.18,.57,.43,.74,.75,.17,.32,.26,.68,.26,1.08,0,.14,0,.29-.02,.44Zm-.91-1.31c-.12-.2-.29-.35-.5-.46-.21-.1-.44-.16-.7-.16-.37,0-.68,.12-.94,.35-.26,.23-.41,.56-.44,.97h2.77c0-.28-.06-.52-.18-.71Z"/><path class="cls-2" d="M130.49,334.58c.33,.32,.5,.79,.5,1.4v2.58h-.72v-2.48c0-.44-.11-.77-.33-1-.22-.23-.52-.35-.9-.35s-.69,.12-.92,.36c-.23,.24-.34,.59-.34,1.05v2.42h-.73v-4.38h.73v.62c.14-.22,.34-.4,.59-.52s.52-.18,.82-.18c.53,0,.97,.16,1.3,.48Z"/><path class="cls-2" d="M133.07,334.78v2.58c0,.21,.05,.36,.14,.45,.09,.09,.25,.13,.47,.13h.54v.62h-.66c-.41,0-.71-.09-.91-.28-.2-.19-.3-.49-.3-.92v-2.58h-.57v-.6h.57v-1.1h.73v1.1h1.14v.6h-1.14Z"/><path class="cls-2" d="M135.89,338.35c-.33-.19-.59-.45-.78-.8-.19-.34-.28-.74-.28-1.2s.1-.84,.29-1.19c.19-.34,.46-.61,.8-.79,.34-.18,.71-.28,1.13-.28s.79,.09,1.13,.28c.34,.18,.6,.45,.8,.79,.19,.34,.29,.74,.29,1.19s-.1,.85-.3,1.2c-.2,.34-.47,.61-.81,.8s-.72,.28-1.14,.28-.78-.09-1.12-.28Zm1.85-.54c.23-.12,.41-.31,.56-.55,.14-.25,.21-.54,.21-.9s-.07-.65-.21-.9c-.14-.24-.32-.43-.54-.55-.22-.12-.47-.18-.73-.18s-.51,.06-.73,.18c-.22,.12-.4,.3-.53,.55-.13,.25-.2,.54-.2,.9s.07,.66,.2,.9c.13,.25,.31,.43,.52,.55s.46,.18,.72,.18,.51-.06,.74-.18Z"/><path class="cls-2" d="M84.94,344.77c.18-.34,.43-.6,.75-.79,.32-.19,.67-.28,1.07-.28,.34,0,.66,.08,.95,.24,.29,.16,.52,.36,.67,.62v-2.32h.74v5.92h-.74v-.82c-.14,.26-.36,.48-.64,.64s-.61,.25-.99,.25-.74-.1-1.06-.29c-.32-.19-.57-.46-.75-.81-.18-.35-.27-.74-.27-1.18s.09-.84,.27-1.18Zm3.24,.32c-.13-.25-.31-.43-.54-.56s-.48-.2-.75-.2-.52,.06-.74,.19c-.22,.13-.4,.31-.54,.56-.13,.25-.2,.53-.2,.86s.07,.63,.2,.88,.31,.44,.54,.57c.22,.13,.47,.2,.74,.2s.52-.07,.75-.2c.23-.13,.41-.32,.54-.57s.2-.54,.2-.87-.07-.62-.2-.86Z"/><path class="cls-2" d="M91.14,347.95c-.33-.19-.59-.45-.78-.79-.19-.34-.28-.74-.28-1.2s.1-.84,.29-1.19c.19-.34,.46-.61,.8-.79,.34-.18,.71-.28,1.13-.28s.79,.09,1.13,.28c.34,.18,.6,.45,.8,.79s.29,.74,.29,1.19-.1,.85-.3,1.2c-.2,.34-.47,.61-.81,.79-.34,.19-.72,.28-1.14,.28s-.78-.09-1.12-.28Zm1.85-.54c.23-.12,.41-.31,.56-.55,.14-.25,.21-.54,.21-.9s-.07-.65-.21-.9c-.14-.25-.32-.43-.54-.55-.22-.12-.47-.18-.73-.18s-.51,.06-.73,.18-.4,.3-.53,.55-.2,.54-.2,.9,.07,.66,.2,.9c.13,.25,.31,.43,.52,.55,.22,.12,.46,.18,.72,.18s.51-.06,.74-.18Z"/><path class="cls-2" d="M101.49,343.78v4.38h-.73v-.65c-.14,.22-.33,.4-.58,.52-.25,.13-.52,.19-.82,.19-.34,0-.65-.07-.92-.21s-.49-.35-.64-.64c-.16-.28-.24-.63-.24-1.03v-2.57h.72v2.47c0,.43,.11,.76,.33,1,.22,.23,.52,.35,.9,.35s.7-.12,.92-.36c.22-.24,.34-.59,.34-1.05v-2.41h.73Z"/><path class="cls-2" d="M103.37,348.06c-.27-.11-.48-.27-.63-.48s-.24-.44-.26-.71h.75c.02,.22,.12,.4,.31,.54s.43,.21,.72,.21c.28,0,.5-.06,.66-.18s.24-.28,.24-.46-.09-.33-.26-.43c-.17-.09-.43-.18-.79-.28-.33-.09-.59-.17-.8-.26-.21-.09-.38-.22-.53-.39-.15-.17-.22-.4-.22-.68,0-.22,.07-.43,.2-.62s.32-.33,.57-.44,.53-.16,.84-.16c.49,0,.88,.12,1.18,.37,.3,.24,.46,.58,.48,1.01h-.73c-.02-.23-.11-.41-.28-.55s-.39-.21-.68-.21c-.26,0-.47,.05-.62,.17-.15,.11-.23,.26-.23,.44,0,.14,.05,.26,.14,.36,.09,.09,.21,.17,.35,.22,.14,.06,.34,.12,.59,.19,.31,.09,.57,.17,.77,.25,.2,.08,.37,.21,.51,.37,.14,.16,.21,.38,.22,.65,0,.24-.07,.46-.2,.65-.13,.19-.32,.34-.56,.45-.24,.11-.52,.16-.84,.16-.34,0-.64-.06-.9-.17Z"/><path class="cls-2" d="M110.78,343.78v4.38h-.73v-.65c-.14,.22-.33,.4-.58,.52-.25,.13-.52,.19-.82,.19-.34,0-.65-.07-.92-.21s-.49-.35-.64-.64c-.16-.28-.24-.63-.24-1.03v-2.57h.72v2.47c0,.43,.11,.76,.33,1,.22,.23,.52,.35,.9,.35s.7-.12,.92-.36c.22-.24,.34-.59,.34-1.05v-2.41h.73Z"/><path class="cls-2" d="M112.02,344.77c.18-.34,.43-.6,.75-.79,.32-.19,.67-.28,1.06-.28s.72,.08,1,.25c.28,.17,.49,.37,.63,.62v-.8h.74v4.38h-.74v-.82c-.14,.26-.36,.47-.64,.64-.29,.17-.62,.25-1,.25s-.74-.1-1.06-.29c-.31-.19-.56-.46-.74-.81-.18-.35-.27-.74-.27-1.18s.09-.84,.27-1.18Zm3.24,.32c-.13-.25-.31-.43-.54-.56s-.48-.2-.75-.2-.52,.06-.74,.19c-.22,.13-.4,.31-.54,.56-.13,.25-.2,.53-.2,.86s.07,.63,.2,.88,.31,.44,.54,.57c.22,.13,.47,.2,.74,.2s.52-.07,.75-.2c.23-.13,.41-.32,.54-.57s.2-.54,.2-.87-.07-.62-.2-.86Zm-.37-2.56l-1.7,.91v-.54l1.7-1v.63Z"/><path class="cls-2" d="M118.7,343.91c.24-.14,.53-.21,.87-.21v.75h-.19c-.82,0-1.22,.44-1.22,1.33v2.38h-.73v-4.38h.73v.71c.13-.25,.31-.45,.55-.58Z"/><path class="cls-2" d="M120.43,342.92c-.1-.1-.14-.21-.14-.35s.05-.26,.14-.35c.1-.1,.21-.14,.35-.14s.25,.05,.34,.14c.09,.1,.14,.21,.14,.35s-.05,.26-.14,.35-.21,.14-.34,.14-.26-.05-.35-.14Zm.7,.86v4.38h-.73v-4.38h.73Z"/><path class="cls-2" d="M123.17,347.95c-.33-.19-.59-.45-.78-.79-.19-.34-.28-.74-.28-1.2s.1-.84,.29-1.19c.19-.34,.46-.61,.8-.79,.34-.18,.71-.28,1.13-.28s.79,.09,1.13,.28c.34,.18,.6,.45,.8,.79s.29,.74,.29,1.19-.1,.85-.3,1.2c-.2,.34-.47,.61-.81,.79-.34,.19-.72,.28-1.14,.28s-.78-.09-1.12-.28Zm1.85-.54c.23-.12,.41-.31,.56-.55,.14-.25,.21-.54,.21-.9s-.07-.65-.21-.9c-.14-.25-.32-.43-.54-.55-.22-.12-.47-.18-.73-.18s-.51,.06-.73,.18-.4,.3-.53,.55-.2,.54-.2,.9,.07,.66,.2,.9c.13,.25,.31,.43,.52,.55,.22,.12,.46,.18,.72,.18s.51-.06,.74-.18Z"/></g><g><path class="cls-2" d="M190.91,52.33c.45,.23,.79,.55,1.02,.97,.24,.42,.36,.92,.36,1.49s-.12,1.07-.36,1.48c-.24,.42-.58,.74-1.02,.96s-.97,.33-1.58,.33h-1.74v-5.58h1.74c.61,0,1.13,.11,1.58,.34Zm.07,4.06c.38-.38,.57-.92,.57-1.6s-.19-1.23-.57-1.62-.93-.58-1.64-.58h-1.01v4.38h1.01c.72,0,1.27-.19,1.65-.57Z"/><path class="cls-2" d="M197.22,55.64h-3.5c.03,.43,.17,.77,.44,1.01,.27,.24,.6,.36,.98,.36,.31,0,.58-.07,.79-.22,.21-.15,.36-.34,.44-.59h.78c-.12,.42-.35,.76-.7,1.03-.35,.26-.79,.4-1.31,.4-.42,0-.79-.09-1.12-.28s-.59-.45-.77-.8c-.19-.34-.28-.74-.28-1.2s.09-.85,.27-1.19c.18-.34,.44-.6,.76-.79,.33-.18,.71-.28,1.13-.28s.78,.09,1.1,.27c.32,.18,.57,.43,.74,.75s.26,.68,.26,1.08c0,.14,0,.29-.02,.44Zm-.91-1.31c-.12-.2-.29-.35-.5-.46-.21-.1-.44-.16-.7-.16-.37,0-.68,.12-.94,.35-.26,.23-.41,.56-.44,.98h2.77c0-.28-.06-.52-.18-.72Z"/><path class="cls-2" d="M198.85,57.46c-.27-.11-.48-.27-.63-.48-.15-.21-.24-.44-.26-.71h.75c.02,.22,.12,.4,.31,.54s.43,.21,.72,.21c.28,0,.5-.06,.66-.18s.24-.28,.24-.46-.09-.33-.26-.43c-.17-.09-.43-.19-.79-.28-.33-.09-.59-.17-.8-.26-.21-.09-.38-.22-.53-.39-.15-.17-.22-.4-.22-.68,0-.22,.07-.43,.2-.62,.13-.19,.32-.33,.57-.44s.53-.16,.84-.16c.49,0,.88,.12,1.18,.37,.3,.25,.46,.58,.48,1.01h-.73c-.02-.23-.11-.41-.28-.55s-.39-.21-.68-.21c-.26,0-.47,.06-.62,.17-.15,.11-.23,.26-.23,.44,0,.14,.05,.26,.14,.36s.21,.17,.35,.22c.14,.06,.34,.12,.59,.19,.31,.09,.57,.17,.77,.25s.37,.21,.51,.37c.14,.17,.21,.38,.22,.65,0,.24-.07,.46-.2,.65s-.32,.34-.56,.45c-.24,.11-.52,.16-.84,.16-.34,0-.64-.06-.9-.17Z"/><path class="cls-2" d="M206.36,55.64h-3.5c.03,.43,.17,.77,.44,1.01,.27,.24,.6,.36,.98,.36,.31,0,.58-.07,.79-.22,.21-.15,.36-.34,.44-.59h.78c-.12,.42-.35,.76-.7,1.03-.35,.26-.79,.4-1.31,.4-.42,0-.79-.09-1.12-.28s-.59-.45-.77-.8c-.19-.34-.28-.74-.28-1.2s.09-.85,.27-1.19c.18-.34,.44-.6,.76-.79,.33-.18,.71-.28,1.13-.28s.78,.09,1.1,.27c.32,.18,.57,.43,.74,.75s.26,.68,.26,1.08c0,.14,0,.29-.02,.44Zm-.91-1.31c-.12-.2-.29-.35-.5-.46-.21-.1-.44-.16-.7-.16-.37,0-.68,.12-.94,.35-.26,.23-.41,.56-.44,.98h2.77c0-.28-.06-.52-.18-.72Z"/><path class="cls-2" d="M210.77,53.58c.33,.32,.5,.79,.5,1.4v2.58h-.72v-2.48c0-.44-.11-.77-.33-1s-.52-.35-.9-.35-.69,.12-.92,.36c-.23,.24-.34,.59-.34,1.05v2.42h-.73v-4.38h.73v.62c.14-.22,.34-.4,.59-.52,.25-.12,.52-.18,.82-.18,.53,0,.97,.16,1.3,.48Z"/><path class="cls-2" d="M214.09,56.89l1.36-3.71h.78l-1.72,4.38h-.85l-1.72-4.38h.78l1.37,3.71Z"/><path class="cls-2" d="M217.74,57.35c-.33-.19-.59-.45-.78-.8-.19-.34-.28-.74-.28-1.2s.1-.84,.29-1.19c.19-.34,.46-.61,.8-.79,.34-.18,.71-.28,1.13-.28s.79,.09,1.13,.28c.34,.18,.6,.45,.8,.79s.29,.74,.29,1.19-.1,.85-.3,1.2c-.2,.34-.47,.61-.81,.8s-.72,.28-1.14,.28-.78-.09-1.12-.28Zm1.85-.54c.23-.12,.41-.31,.56-.55,.14-.25,.21-.54,.21-.9s-.07-.65-.21-.9c-.14-.25-.32-.43-.54-.55-.22-.12-.47-.18-.73-.18s-.51,.06-.73,.18-.4,.3-.53,.55c-.13,.25-.2,.54-.2,.9s.07,.66,.2,.9c.13,.25,.31,.43,.52,.55s.46,.18,.72,.18,.51-.06,.74-.18Z"/><path class="cls-2" d="M222.8,51.64v5.92h-.73v-5.92h.73Z"/><path class="cls-2" d="M225.67,56.89l1.36-3.71h.78l-1.72,4.38h-.85l-1.72-4.38h.78l1.37,3.71Z"/><path class="cls-2" d="M228.55,52.32c-.1-.1-.14-.21-.14-.35s.05-.26,.14-.35c.1-.1,.21-.14,.35-.14s.25,.05,.34,.14c.09,.1,.14,.21,.14,.35s-.05,.26-.14,.35c-.09,.1-.21,.14-.34,.14s-.26-.05-.35-.14Zm.7,.86v4.38h-.73v-4.38h.73Z"/><path class="cls-2" d="M236.68,53.31c.27,.14,.48,.35,.63,.64,.15,.28,.23,.63,.23,1.03v2.58h-.72v-2.48c0-.44-.11-.77-.32-1-.22-.23-.51-.35-.88-.35s-.68,.12-.9,.36-.34,.59-.34,1.05v2.42h-.72v-2.48c0-.44-.11-.77-.32-1s-.51-.35-.88-.35-.68,.12-.9,.36c-.22,.24-.34,.59-.34,1.05v2.42h-.73v-4.38h.73v.63c.14-.23,.34-.41,.58-.53,.24-.12,.51-.18,.8-.18,.37,0,.69,.08,.98,.25,.28,.17,.49,.41,.63,.73,.12-.31,.33-.55,.61-.72,.28-.17,.6-.26,.94-.26s.65,.07,.91,.21Z"/><path class="cls-2" d="M242.71,55.64h-3.5c.03,.43,.17,.77,.44,1.01,.27,.24,.6,.36,.98,.36,.31,0,.58-.07,.79-.22,.21-.15,.36-.34,.44-.59h.78c-.12,.42-.35,.76-.7,1.03-.35,.26-.79,.4-1.31,.4-.42,0-.79-.09-1.12-.28s-.58-.45-.77-.8c-.19-.34-.28-.74-.28-1.2s.09-.85,.27-1.19,.44-.6,.76-.79c.33-.18,.71-.28,1.13-.28s.78,.09,1.1,.27c.32,.18,.57,.43,.74,.75,.17,.32,.26,.68,.26,1.08,0,.14,0,.29-.02,.44Zm-.91-1.31c-.12-.2-.29-.35-.5-.46-.21-.1-.45-.16-.7-.16-.37,0-.68,.12-.94,.35-.26,.23-.41,.56-.44,.98h2.77c0-.28-.06-.52-.18-.72Z"/><path class="cls-2" d="M247.12,53.58c.33,.32,.5,.79,.5,1.4v2.58h-.72v-2.48c0-.44-.11-.77-.33-1s-.52-.35-.9-.35-.69,.12-.92,.36c-.23,.24-.34,.59-.34,1.05v2.42h-.73v-4.38h.73v.62c.14-.22,.34-.4,.59-.52,.25-.12,.52-.18,.82-.18,.53,0,.96,.16,1.3,.48Z"/><path class="cls-2" d="M249.7,53.78v2.58c0,.21,.05,.36,.14,.45,.09,.09,.25,.13,.47,.13h.54v.62h-.66c-.41,0-.71-.09-.91-.28-.2-.19-.3-.49-.3-.92v-2.58h-.57v-.6h.57v-1.1h.73v1.1h1.14v.6h-1.14Z"/><path class="cls-2" d="M252.52,57.35c-.33-.19-.59-.45-.78-.8-.19-.34-.28-.74-.28-1.2s.1-.84,.29-1.19c.2-.34,.46-.61,.8-.79,.34-.18,.71-.28,1.13-.28s.79,.09,1.13,.28c.34,.18,.6,.45,.79,.79,.2,.34,.29,.74,.29,1.19s-.1,.85-.3,1.2c-.2,.34-.47,.61-.81,.8s-.72,.28-1.14,.28-.78-.09-1.12-.28Zm1.85-.54c.23-.12,.41-.31,.55-.55,.14-.25,.21-.54,.21-.9s-.07-.65-.21-.9c-.14-.25-.32-.43-.54-.55-.22-.12-.47-.18-.73-.18s-.51,.06-.73,.18c-.22,.12-.4,.3-.53,.55-.13,.25-.2,.54-.2,.9s.07,.66,.2,.9,.3,.43,.52,.55,.46,.18,.72,.18,.51-.06,.74-.18Z"/><path class="cls-2" d="M201.65,63.77c.18-.34,.43-.6,.75-.79,.32-.19,.67-.28,1.07-.28,.34,0,.66,.08,.95,.24,.29,.16,.52,.36,.67,.62v-2.32h.74v5.92h-.74v-.82c-.14,.26-.36,.48-.64,.64s-.61,.25-.99,.25-.74-.1-1.06-.29c-.32-.19-.57-.46-.75-.81-.18-.35-.27-.74-.27-1.18s.09-.84,.27-1.18Zm3.24,.32c-.13-.25-.31-.43-.54-.56s-.48-.2-.75-.2-.52,.06-.74,.19c-.22,.13-.4,.31-.54,.56-.13,.25-.2,.53-.2,.86s.07,.63,.2,.88,.31,.44,.54,.57c.22,.13,.47,.2,.74,.2s.52-.07,.75-.2c.23-.13,.41-.32,.54-.57s.2-.54,.2-.87-.07-.62-.2-.86Z"/><path class="cls-2" d="M211.03,65.24h-3.5c.03,.43,.17,.77,.44,1.01,.27,.24,.6,.36,.98,.36,.31,0,.58-.07,.79-.22,.21-.15,.36-.34,.44-.59h.78c-.12,.42-.35,.76-.7,1.03-.35,.26-.79,.4-1.31,.4-.42,0-.79-.09-1.12-.28s-.59-.45-.77-.8c-.19-.34-.28-.74-.28-1.2s.09-.85,.27-1.19c.18-.34,.44-.6,.76-.79,.33-.18,.71-.28,1.13-.28s.78,.09,1.1,.27c.32,.18,.57,.43,.74,.75s.26,.68,.26,1.08c0,.14,0,.29-.02,.44Zm-.91-1.31c-.12-.2-.29-.35-.5-.46-.21-.1-.44-.16-.7-.16-.37,0-.68,.12-.94,.35-.26,.23-.41,.56-.44,.98h2.77c0-.28-.06-.52-.18-.72Z"/><path class="cls-2" d="M215.78,66.49l1.36-3.71h.78l-1.72,4.38h-.85l-1.72-4.38h.78l1.37,3.71Z"/><path class="cls-2" d="M219.78,61.54l-1.7,.91v-.54l1.7-1v.63Zm-.42,1.24v4.38h-.73v-4.38h.73Z"/><path class="cls-2" d="M224.04,63.18c.33,.32,.5,.79,.5,1.4v2.58h-.72v-2.48c0-.44-.11-.77-.33-1s-.52-.35-.9-.35-.69,.12-.92,.36c-.23,.24-.34,.59-.34,1.05v2.42h-.73v-4.38h.73v.62c.14-.22,.34-.4,.59-.52,.25-.12,.52-.18,.82-.18,.53,0,.97,.16,1.3,.48Z"/><path class="cls-2" d="M225.72,63.77c.18-.34,.43-.6,.76-.79,.32-.19,.69-.28,1.11-.28,.54,0,.98,.13,1.33,.39s.58,.62,.69,1.09h-.78c-.08-.27-.22-.48-.44-.63-.22-.15-.48-.23-.8-.23-.42,0-.75,.14-1.01,.43-.26,.29-.38,.69-.38,1.21s.13,.94,.38,1.22,.59,.43,1.01,.43c.32,0,.59-.07,.8-.22s.36-.36,.44-.64h.78c-.12,.45-.35,.81-.7,1.08-.35,.27-.79,.4-1.32,.4-.42,0-.79-.09-1.11-.28-.32-.19-.58-.45-.76-.79-.18-.34-.27-.74-.27-1.2s.09-.85,.27-1.19Z"/><path class="cls-2" d="M234.47,62.78v4.38h-.73v-.65c-.14,.22-.33,.4-.58,.52-.25,.13-.52,.19-.82,.19-.34,0-.65-.07-.92-.21s-.49-.35-.64-.64c-.16-.28-.24-.63-.24-1.03v-2.57h.72v2.47c0,.43,.11,.76,.33,1s.52,.35,.9,.35,.7-.12,.92-.36c.22-.24,.34-.59,.34-1.05v-2.41h.73Z"/><path class="cls-2" d="M236.43,61.24v5.92h-.73v-5.92h.73Z"/><path class="cls-2" d="M238.46,66.95c-.33-.19-.59-.45-.78-.8-.19-.34-.28-.74-.28-1.2s.1-.84,.29-1.19c.2-.34,.46-.61,.8-.79,.34-.18,.71-.28,1.13-.28s.79,.09,1.13,.28c.34,.18,.6,.45,.79,.79,.2,.34,.29,.74,.29,1.19s-.1,.85-.3,1.2c-.2,.34-.47,.61-.81,.8s-.72,.28-1.14,.28-.78-.09-1.12-.28Zm1.85-.54c.23-.12,.41-.31,.55-.55,.14-.25,.21-.54,.21-.9s-.07-.65-.21-.9c-.14-.25-.32-.43-.54-.55-.22-.12-.47-.18-.73-.18s-.51,.06-.73,.18c-.22,.12-.4,.3-.53,.55-.13,.25-.2,.54-.2,.9s.07,.66,.2,.9,.3,.43,.52,.55,.46,.18,.72,.18,.51-.06,.74-.18Z"/><path class="cls-2" d="M199.8,72.98v2.58c0,.21,.05,.36,.14,.45,.09,.09,.25,.13,.47,.13h.54v.62h-.66c-.41,0-.71-.09-.91-.28-.2-.19-.3-.49-.3-.92v-2.58h-.57v-.6h.57v-1.1h.73v1.1h1.14v.6h-1.14Z"/><path class="cls-2" d="M205.8,74.84h-3.5c.03,.43,.17,.77,.44,1.01,.27,.24,.6,.36,.98,.36,.31,0,.58-.07,.79-.22,.21-.15,.36-.34,.44-.59h.78c-.12,.42-.35,.76-.7,1.03-.35,.26-.79,.4-1.31,.4-.42,0-.79-.09-1.12-.28s-.59-.45-.77-.8c-.19-.34-.28-.74-.28-1.2s.09-.85,.27-1.19c.18-.34,.44-.6,.76-.79,.33-.18,.71-.28,1.13-.28s.78,.09,1.1,.27c.32,.18,.57,.43,.74,.75s.26,.68,.26,1.08c0,.14,0,.29-.02,.44Zm-.91-1.31c-.12-.2-.29-.35-.5-.46-.21-.1-.44-.16-.7-.16-.37,0-.68,.12-.94,.35-.26,.23-.41,.56-.44,.98h2.77c0-.28-.06-.52-.18-.72Z"/><path class="cls-2" d="M208.06,72.51c.24-.14,.53-.21,.87-.21v.75h-.19c-.82,0-1.22,.44-1.22,1.33v2.38h-.73v-4.38h.73v.71c.13-.25,.31-.45,.55-.58Z"/><path class="cls-2" d="M209.77,73.37c.18-.34,.43-.6,.75-.79,.32-.19,.67-.28,1.06-.28s.72,.08,1,.25c.28,.17,.49,.37,.63,.62v-.8h.74v4.38h-.74v-.82c-.14,.26-.36,.47-.64,.64-.29,.17-.62,.25-1,.25s-.74-.1-1.06-.29c-.31-.19-.56-.46-.74-.81-.18-.35-.27-.74-.27-1.18s.09-.84,.27-1.18Zm3.24,.32c-.13-.25-.31-.43-.54-.56s-.48-.2-.75-.2-.52,.06-.74,.19c-.22,.13-.4,.31-.54,.56-.13,.25-.2,.53-.2,.86s.07,.63,.2,.88,.31,.44,.54,.57c.22,.13,.47,.2,.74,.2s.52-.07,.75-.2c.23-.13,.41-.32,.54-.57s.2-.54,.2-.87-.07-.62-.2-.86Z"/><path class="cls-2" d="M216.55,72.56c.29-.17,.62-.25,1-.25s.74,.09,1.06,.28c.32,.19,.57,.45,.75,.79,.18,.34,.27,.73,.27,1.18s-.09,.84-.27,1.18-.43,.62-.75,.81c-.32,.19-.67,.29-1.06,.29s-.7-.08-.99-.25c-.29-.17-.5-.38-.65-.63v2.89h-.73v-6.46h.73v.81c.14-.25,.36-.46,.64-.63Zm2.13,1.13c-.13-.25-.31-.43-.54-.56-.23-.13-.48-.19-.75-.19s-.51,.07-.74,.2c-.23,.13-.41,.32-.54,.57-.14,.25-.2,.53-.2,.86s.07,.62,.2,.87c.14,.25,.32,.44,.54,.57,.23,.13,.47,.2,.74,.2s.52-.07,.75-.2c.23-.13,.41-.32,.54-.57s.2-.54,.2-.88-.07-.62-.2-.86Z"/><path class="cls-2" d="M224.56,74.84h-3.5c.03,.43,.17,.77,.44,1.01,.27,.24,.6,.36,.98,.36,.31,0,.58-.07,.79-.22,.21-.15,.36-.34,.44-.59h.78c-.12,.42-.35,.76-.7,1.03-.35,.26-.79,.4-1.31,.4-.42,0-.79-.09-1.12-.28s-.59-.45-.77-.8c-.19-.34-.28-.74-.28-1.2s.09-.85,.27-1.19c.18-.34,.44-.6,.76-.79,.33-.18,.71-.28,1.13-.28s.78,.09,1.1,.27c.32,.18,.57,.43,.74,.75,.17,.32,.26,.68,.26,1.08,0,.14,0,.29-.02,.44Zm-.91-1.31c-.12-.2-.29-.35-.5-.46s-.44-.16-.7-.16c-.37,0-.68,.12-.94,.35-.26,.23-.41,.56-.44,.98h2.77c0-.28-.06-.52-.18-.72Zm-1.19-2.23l-1.11,.68v-.58l1.11-.66,1.1,.66v.58l-1.1-.68Z"/><path class="cls-2" d="M229.43,72.38v4.38h-.73v-.65c-.14,.22-.33,.4-.58,.52-.25,.13-.52,.19-.82,.19-.34,0-.65-.07-.92-.21s-.49-.35-.64-.64c-.16-.28-.24-.63-.24-1.03v-2.57h.72v2.47c0,.43,.11,.76,.33,1s.52,.35,.9,.35,.7-.12,.92-.36c.22-.24,.34-.59,.34-1.05v-2.41h.73Z"/><path class="cls-2" d="M231.55,72.98v2.58c0,.21,.04,.36,.14,.45,.09,.09,.25,.13,.47,.13h.54v.62h-.66c-.41,0-.71-.09-.91-.28-.2-.19-.3-.49-.3-.92v-2.58h-.57v-.6h.57v-1.1h.73v1.1h1.14v.6h-1.14Z"/><path class="cls-2" d="M233.6,71.52c-.1-.1-.14-.21-.14-.35s.05-.26,.14-.35c.1-.1,.21-.14,.35-.14s.25,.05,.34,.14c.09,.1,.14,.21,.14,.35s-.05,.26-.14,.35c-.09,.1-.21,.14-.34,.14s-.26-.05-.35-.14Zm.7,.86v4.38h-.73v-4.38h.73Z"/><path class="cls-2" d="M235.55,73.37c.18-.34,.43-.6,.76-.79,.32-.19,.69-.28,1.11-.28,.54,0,.98,.13,1.33,.39s.58,.62,.69,1.09h-.78c-.07-.27-.22-.48-.44-.63-.22-.15-.48-.23-.8-.23-.42,0-.75,.14-1.01,.43-.26,.29-.38,.69-.38,1.21s.13,.94,.38,1.22,.59,.43,1.01,.43c.32,0,.59-.07,.8-.22,.21-.15,.36-.36,.44-.64h.78c-.12,.45-.35,.81-.7,1.08-.35,.27-.79,.4-1.32,.4-.42,0-.79-.09-1.11-.28s-.57-.45-.76-.79-.27-.74-.27-1.2,.09-.85,.27-1.19Z"/><path class="cls-2" d="M241.2,76.55c-.33-.19-.6-.45-.79-.8-.19-.34-.28-.74-.28-1.2s.1-.84,.29-1.19c.19-.34,.46-.61,.8-.79,.34-.18,.71-.28,1.13-.28s.79,.09,1.13,.28c.34,.18,.6,.45,.8,.79s.29,.74,.29,1.19-.1,.85-.3,1.2c-.2,.34-.47,.61-.81,.8-.34,.19-.72,.28-1.14,.28s-.78-.09-1.12-.28Zm1.85-.54c.23-.12,.41-.31,.56-.55,.14-.25,.21-.54,.21-.9s-.07-.65-.21-.9c-.14-.25-.32-.43-.54-.55-.22-.12-.47-.18-.73-.18s-.51,.06-.73,.18-.4,.3-.53,.55c-.13,.25-.2,.54-.2,.9s.06,.66,.2,.9,.31,.43,.52,.55,.46,.18,.72,.18,.51-.06,.74-.18Z"/></g><g><path class="cls-2" d="M203.41,364.77c-.32,.31-.8,.46-1.45,.46h-1.07v2.33h-.73v-5.58h1.8c.63,0,1.11,.15,1.44,.46,.33,.3,.49,.7,.49,1.18s-.16,.85-.48,1.16Zm-.56-.4c.19-.18,.29-.43,.29-.75,0-.69-.4-1.03-1.18-1.03h-1.07v2.05h1.07c.41,0,.7-.09,.9-.26Z"/><path class="cls-2" d="M206.07,363.31c.24-.14,.53-.21,.87-.21v.75h-.19c-.82,0-1.22,.44-1.22,1.33v2.38h-.73v-4.38h.73v.71c.13-.25,.31-.45,.55-.58Z"/><path class="cls-2" d="M211.75,365.64h-3.5c.03,.43,.17,.77,.44,1.01,.27,.24,.6,.36,.98,.36,.31,0,.58-.07,.79-.22,.21-.15,.36-.34,.44-.59h.78c-.12,.42-.35,.76-.7,1.03-.35,.26-.79,.4-1.31,.4-.42,0-.79-.09-1.12-.28s-.59-.45-.77-.8c-.19-.34-.28-.74-.28-1.2s.09-.85,.27-1.19c.18-.34,.44-.6,.76-.79,.33-.18,.71-.28,1.13-.28s.78,.09,1.1,.27c.32,.18,.57,.43,.74,.75,.17,.32,.26,.68,.26,1.08,0,.14,0,.29-.02,.44Zm-.91-1.31c-.12-.2-.29-.35-.5-.46-.21-.1-.44-.16-.7-.16-.37,0-.68,.12-.94,.35-.26,.23-.41,.56-.44,.97h2.77c0-.28-.06-.52-.18-.71Z"/><path class="cls-2" d="M214.37,366.89l1.36-3.71h.78l-1.72,4.38h-.85l-1.72-4.38h.78l1.37,3.71Z"/><path class="cls-2" d="M221.2,365.64h-3.5c.03,.43,.17,.77,.44,1.01,.27,.24,.6,.36,.98,.36,.31,0,.58-.07,.79-.22,.21-.15,.36-.34,.44-.59h.78c-.12,.42-.35,.76-.7,1.03-.35,.26-.79,.4-1.31,.4-.42,0-.79-.09-1.12-.28s-.59-.45-.77-.8c-.19-.34-.28-.74-.28-1.2s.09-.85,.27-1.19c.18-.34,.44-.6,.76-.79,.33-.18,.71-.28,1.13-.28s.78,.09,1.1,.27c.32,.18,.57,.43,.74,.75,.17,.32,.26,.68,.26,1.08,0,.14,0,.29-.02,.44Zm-.91-1.31c-.12-.2-.29-.35-.5-.46-.21-.1-.44-.16-.7-.16-.37,0-.68,.12-.94,.35-.26,.23-.41,.56-.44,.97h2.77c0-.28-.06-.52-.18-.71Z"/><path class="cls-2" d="M225.62,363.58c.33,.32,.5,.79,.5,1.4v2.58h-.72v-2.48c0-.44-.11-.77-.33-1-.22-.23-.52-.35-.9-.35s-.69,.12-.92,.36-.34,.59-.34,1.05v2.42h-.73v-4.38h.73v.62c.14-.22,.34-.4,.59-.52s.52-.18,.82-.18c.53,0,.96,.16,1.3,.48Z"/><path class="cls-2" d="M229.97,366.79c.21-.15,.36-.36,.44-.64h.78c-.11,.42-.32,.76-.63,1.02s-.7,.41-1.17,.45v.4c.31,0,.56,.06,.75,.2,.19,.14,.28,.34,.28,.59s-.09,.45-.27,.6c-.18,.15-.42,.22-.7,.22h-.92v-.47h.78c.18,0,.3-.03,.39-.08,.08-.05,.12-.14,.12-.27s-.04-.21-.12-.26-.21-.08-.39-.08h-.4v-.86c-.37-.04-.69-.15-.98-.35-.28-.2-.5-.46-.66-.78-.16-.33-.24-.7-.24-1.12,0-.45,.09-.85,.27-1.19,.18-.34,.43-.6,.76-.79s.69-.28,1.11-.28c.54,0,.98,.13,1.33,.39,.35,.26,.58,.62,.69,1.09h-.78c-.07-.27-.22-.48-.44-.63-.22-.15-.48-.23-.8-.23-.42,0-.75,.14-1.01,.43-.26,.29-.38,.69-.38,1.21s.13,.94,.38,1.22c.26,.29,.59,.43,1.01,.43,.32,0,.59-.07,.8-.22Z"/><path class="cls-2" d="M232.16,364.17c.18-.34,.43-.6,.75-.79s.67-.28,1.06-.28,.72,.08,1,.25c.28,.17,.49,.37,.63,.62v-.8h.74v4.38h-.74v-.82c-.14,.26-.36,.47-.64,.63-.29,.17-.62,.25-1,.25s-.74-.1-1.06-.29c-.31-.19-.56-.46-.74-.81-.18-.35-.27-.74-.27-1.18s.09-.84,.27-1.18Zm3.24,.32c-.13-.25-.31-.43-.54-.56s-.48-.2-.75-.2-.52,.06-.74,.19c-.22,.13-.4,.31-.54,.56-.13,.24-.2,.53-.2,.86s.07,.63,.2,.88c.13,.25,.31,.44,.54,.57,.22,.13,.47,.2,.74,.2s.52-.07,.75-.2c.23-.13,.41-.32,.54-.57s.2-.54,.2-.87-.07-.62-.2-.86Zm-2.05-2.42c.14-.14,.32-.22,.53-.22,.1,0,.19,.02,.26,.05,.07,.03,.16,.08,.26,.15,.07,.05,.14,.09,.2,.12,.06,.03,.12,.04,.19,.04,.09,0,.17-.03,.23-.09s.1-.14,.12-.26h.42c-.03,.27-.12,.47-.26,.62-.14,.14-.32,.22-.54,.22-.1,0-.19-.02-.27-.05-.08-.04-.16-.09-.26-.16-.09-.05-.15-.09-.2-.12s-.11-.04-.18-.04c-.09,0-.17,.03-.23,.09-.06,.06-.1,.15-.12,.26h-.42c.04-.27,.13-.48,.27-.62Z"/><path class="cls-2" d="M238.36,367.35c-.33-.19-.59-.45-.78-.8-.19-.34-.28-.74-.28-1.2s.1-.84,.29-1.19c.2-.34,.46-.61,.8-.79,.34-.18,.71-.28,1.13-.28s.79,.09,1.13,.28c.34,.18,.6,.45,.79,.79,.2,.34,.29,.74,.29,1.19s-.1,.85-.3,1.2c-.2,.34-.47,.61-.81,.8s-.72,.28-1.14,.28-.78-.09-1.12-.28Zm1.85-.54c.23-.12,.41-.31,.55-.55,.14-.25,.21-.54,.21-.9s-.07-.65-.21-.9c-.14-.24-.32-.43-.54-.55-.22-.12-.47-.18-.73-.18s-.51,.06-.73,.18c-.22,.12-.4,.3-.53,.55-.13,.25-.2,.54-.2,.9s.07,.66,.2,.9,.3,.43,.52,.55,.46,.18,.72,.18,.51-.06,.74-.18Z"/><path class="cls-2" d="M243.44,366.55l-.9,2.15h-.49l.58-2.15h.8Z"/><path class="cls-2" d="M198.91,372.96c.29-.17,.62-.25,1-.25s.74,.09,1.06,.28c.32,.19,.57,.45,.75,.79,.18,.34,.27,.73,.27,1.18s-.09,.84-.27,1.18-.43,.62-.75,.81c-.32,.19-.67,.29-1.06,.29s-.7-.08-.99-.25c-.29-.17-.5-.38-.65-.63v2.89h-.73v-6.46h.73v.81c.14-.25,.36-.46,.64-.63Zm2.13,1.13c-.13-.25-.31-.43-.54-.56-.23-.13-.48-.19-.75-.19s-.51,.06-.74,.2c-.23,.13-.41,.32-.54,.57-.14,.25-.2,.54-.2,.86s.07,.62,.2,.87c.14,.25,.32,.44,.54,.57,.23,.13,.47,.2,.74,.2s.52-.07,.75-.2c.23-.13,.41-.32,.54-.57s.2-.54,.2-.88-.07-.62-.2-.86Z"/><path class="cls-2" d="M204.23,372.91c.24-.14,.53-.21,.87-.21v.75h-.19c-.82,0-1.22,.44-1.22,1.33v2.38h-.73v-4.38h.73v.71c.13-.25,.31-.45,.55-.58Z"/><path class="cls-2" d="M206.73,376.95c-.33-.19-.59-.45-.78-.79-.19-.34-.28-.74-.28-1.2s.1-.84,.29-1.19c.19-.34,.46-.61,.8-.79,.34-.18,.71-.28,1.13-.28s.79,.09,1.13,.28c.34,.18,.6,.45,.8,.79s.29,.74,.29,1.19-.1,.85-.3,1.2c-.2,.34-.47,.61-.81,.79-.34,.19-.72,.28-1.14,.28s-.78-.09-1.12-.28Zm1.85-.54c.23-.12,.41-.31,.56-.55,.14-.25,.21-.54,.21-.9s-.07-.65-.21-.9c-.14-.25-.32-.43-.54-.55-.22-.12-.47-.18-.73-.18s-.51,.06-.73,.18-.4,.3-.53,.55-.2,.54-.2,.9,.07,.66,.2,.9c.13,.25,.31,.43,.52,.55,.22,.12,.46,.18,.72,.18s.51-.06,.74-.18Z"/><path class="cls-2" d="M217.24,372.91c.27,.14,.48,.35,.63,.63,.15,.28,.23,.63,.23,1.03v2.58h-.72v-2.48c0-.44-.11-.77-.32-1-.22-.23-.51-.35-.88-.35s-.68,.12-.9,.36c-.22,.24-.34,.59-.34,1.05v2.42h-.72v-2.48c0-.44-.11-.77-.32-1s-.51-.35-.88-.35-.68,.12-.9,.36c-.22,.24-.34,.59-.34,1.05v2.42h-.73v-4.38h.73v.63c.14-.23,.34-.41,.58-.53,.24-.12,.51-.18,.8-.18,.37,0,.69,.08,.98,.25,.28,.17,.49,.41,.63,.73,.12-.31,.33-.55,.61-.72,.28-.17,.6-.26,.94-.26s.65,.07,.91,.21Z"/><path class="cls-2" d="M220.09,376.95c-.33-.19-.59-.45-.78-.79-.19-.34-.28-.74-.28-1.2s.1-.84,.29-1.19c.19-.34,.46-.61,.8-.79,.34-.18,.71-.28,1.13-.28s.79,.09,1.13,.28c.34,.18,.6,.45,.8,.79,.2,.34,.29,.74,.29,1.19s-.1,.85-.3,1.2c-.2,.34-.47,.61-.81,.79-.34,.19-.72,.28-1.14,.28s-.78-.09-1.12-.28Zm1.85-.54c.23-.12,.41-.31,.56-.55,.14-.25,.21-.54,.21-.9s-.07-.65-.21-.9c-.14-.25-.32-.43-.54-.55-.22-.12-.47-.18-.73-.18s-.51,.06-.73,.18-.4,.3-.53,.55-.2,.54-.2,.9,.07,.66,.2,.9c.13,.25,.31,.43,.52,.55,.22,.12,.46,.18,.72,.18s.51-.06,.74-.18Z"/><path class="cls-2" d="M227.08,376.39c.21-.15,.36-.36,.44-.64h.78c-.11,.42-.32,.76-.63,1.02s-.7,.42-1.17,.45v.4c.31,0,.57,.06,.75,.2s.28,.34,.28,.59-.09,.45-.27,.6-.42,.22-.7,.22h-.92v-.47h.78c.18,0,.31-.03,.39-.08s.12-.14,.12-.27-.04-.21-.12-.26c-.08-.05-.21-.08-.39-.08h-.4v-.86c-.37-.04-.69-.15-.98-.35-.28-.19-.5-.46-.66-.78s-.24-.7-.24-1.12c0-.45,.09-.85,.27-1.19,.18-.34,.43-.6,.76-.79,.32-.19,.69-.28,1.11-.28,.54,0,.98,.13,1.33,.39,.35,.26,.58,.62,.69,1.09h-.78c-.08-.27-.22-.48-.44-.63s-.48-.23-.8-.23c-.42,0-.75,.14-1.01,.43-.26,.29-.38,.69-.38,1.21s.13,.94,.38,1.22c.26,.29,.59,.43,1.01,.43,.32,0,.59-.07,.8-.22Z"/><path class="cls-2" d="M229.27,373.77c.18-.34,.43-.6,.75-.79,.32-.19,.67-.28,1.06-.28s.72,.08,1,.25c.28,.17,.49,.37,.63,.62v-.8h.74v4.38h-.74v-.82c-.14,.26-.36,.47-.64,.64s-.62,.25-1,.25-.74-.1-1.06-.29c-.31-.19-.56-.46-.74-.81-.18-.35-.27-.74-.27-1.18s.09-.84,.27-1.18Zm3.24,.32c-.13-.25-.31-.43-.54-.56s-.48-.2-.75-.2-.52,.06-.74,.19c-.22,.13-.4,.31-.54,.56-.13,.25-.2,.53-.2,.86s.07,.63,.2,.88c.13,.25,.31,.44,.54,.57,.22,.13,.47,.2,.74,.2s.52-.07,.75-.2c.23-.13,.41-.32,.54-.57s.2-.54,.2-.87-.07-.62-.2-.86Zm-2.05-2.42c.14-.14,.32-.22,.53-.22,.1,0,.19,.02,.26,.05,.07,.04,.16,.08,.26,.15,.08,.05,.14,.09,.2,.12s.12,.04,.19,.04c.09,0,.17-.03,.23-.09s.1-.14,.12-.26h.42c-.03,.27-.12,.47-.26,.62-.14,.14-.32,.22-.54,.22-.1,0-.19-.02-.27-.05-.08-.04-.16-.09-.26-.16-.08-.05-.15-.09-.2-.12-.05-.03-.11-.04-.18-.04-.09,0-.17,.03-.23,.09-.06,.06-.1,.15-.12,.26h-.42c.04-.27,.13-.48,.27-.62Z"/><path class="cls-2" d="M235.47,376.95c-.33-.19-.59-.45-.78-.79-.19-.34-.28-.74-.28-1.2s.1-.84,.29-1.19c.19-.34,.46-.61,.79-.79,.34-.18,.71-.28,1.13-.28s.79,.09,1.13,.28c.34,.18,.6,.45,.8,.79,.19,.34,.29,.74,.29,1.19s-.1,.85-.3,1.2c-.2,.34-.47,.61-.81,.79-.34,.19-.72,.28-1.14,.28s-.78-.09-1.12-.28Zm1.85-.54c.23-.12,.42-.31,.56-.55,.14-.25,.21-.54,.21-.9s-.07-.65-.21-.9-.32-.43-.54-.55c-.22-.12-.47-.18-.73-.18s-.51,.06-.73,.18c-.22,.12-.4,.3-.53,.55s-.2,.54-.2,.9,.07,.66,.2,.9c.13,.25,.31,.43,.52,.55,.22,.12,.46,.18,.72,.18s.51-.06,.74-.18Z"/><path class="cls-2" d="M245.91,375.24h-3.5c.03,.43,.17,.77,.44,1.01,.27,.24,.6,.36,.98,.36,.31,0,.58-.07,.79-.22,.21-.15,.36-.34,.44-.59h.78c-.12,.42-.35,.76-.7,1.03s-.79,.4-1.31,.4c-.42,0-.79-.09-1.12-.28-.33-.19-.59-.45-.77-.79-.19-.34-.28-.74-.28-1.2s.09-.85,.27-1.19c.18-.34,.44-.6,.76-.79,.33-.18,.71-.28,1.13-.28s.78,.09,1.1,.27c.32,.18,.57,.43,.74,.75,.17,.32,.26,.68,.26,1.08,0,.14,0,.29-.02,.44Zm-.91-1.31c-.12-.2-.29-.35-.5-.46s-.44-.16-.7-.16c-.37,0-.68,.12-.94,.35s-.41,.56-.44,.98h2.77c0-.28-.06-.52-.18-.72Z"/><path class="cls-2" d="M190.99,382.51c.24-.14,.53-.21,.87-.21v.75h-.19c-.82,0-1.22,.44-1.22,1.33v2.38h-.73v-4.38h.73v.71c.13-.25,.31-.45,.55-.58Z"/><path class="cls-2" d="M196.67,384.84h-3.5c.03,.43,.17,.77,.44,1.01,.27,.24,.6,.36,.98,.36,.31,0,.58-.07,.79-.22,.21-.15,.36-.34,.44-.59h.78c-.12,.42-.35,.76-.7,1.03-.35,.26-.79,.4-1.31,.4-.42,0-.79-.09-1.12-.28s-.59-.45-.77-.8c-.19-.34-.28-.74-.28-1.2s.09-.85,.27-1.19c.18-.34,.44-.6,.76-.79s.71-.28,1.13-.28,.78,.09,1.1,.27c.32,.18,.57,.43,.74,.75,.17,.32,.26,.68,.26,1.08,0,.14,0,.29-.02,.44Zm-.91-1.31c-.12-.2-.29-.35-.5-.46-.21-.1-.44-.16-.7-.16-.37,0-.68,.12-.94,.35s-.41,.56-.44,.98h2.77c0-.28-.06-.52-.18-.72Z"/><path class="cls-2" d="M197.65,383.37c.18-.34,.43-.6,.76-.79,.32-.19,.69-.28,1.11-.28,.54,0,.98,.13,1.33,.39,.35,.26,.58,.62,.69,1.09h-.78c-.08-.27-.22-.48-.44-.63-.22-.16-.48-.23-.8-.23-.42,0-.75,.14-1.01,.43-.26,.29-.38,.69-.38,1.21s.13,.94,.38,1.22c.26,.29,.59,.43,1.01,.43,.32,0,.59-.08,.8-.22,.21-.15,.36-.36,.44-.64h.78c-.12,.45-.35,.81-.7,1.08-.35,.27-.79,.4-1.32,.4-.42,0-.79-.09-1.11-.28s-.57-.45-.76-.79c-.18-.34-.27-.74-.27-1.2s.09-.85,.27-1.19Z"/><path class="cls-2" d="M206.4,382.38v4.38h-.73v-.65c-.14,.22-.33,.4-.58,.52-.25,.13-.52,.19-.82,.19-.34,0-.65-.07-.92-.21-.27-.14-.49-.35-.64-.64s-.24-.63-.24-1.03v-2.57h.72v2.47c0,.43,.11,.76,.33,1s.52,.35,.9,.35,.7-.12,.92-.36,.34-.59,.34-1.05v-2.41h.73Z"/><path class="cls-2" d="M209,382.56c.29-.17,.62-.25,1-.25s.74,.09,1.06,.28c.32,.19,.57,.45,.75,.79,.18,.34,.27,.73,.27,1.18s-.09,.84-.27,1.18c-.18,.35-.43,.62-.75,.81s-.67,.29-1.06,.29-.7-.08-.99-.25c-.29-.17-.5-.38-.65-.63v2.89h-.73v-6.46h.73v.81c.14-.25,.36-.46,.64-.63Zm2.13,1.13c-.13-.25-.31-.43-.54-.56-.23-.13-.48-.19-.75-.19s-.51,.07-.74,.2c-.23,.13-.41,.32-.54,.57-.14,.25-.2,.54-.2,.86s.07,.62,.2,.87c.14,.25,.32,.44,.54,.57,.23,.13,.47,.2,.74,.2s.52-.06,.75-.2c.23-.13,.41-.32,.54-.57s.2-.54,.2-.88-.07-.62-.2-.86Z"/><path class="cls-2" d="M217.01,384.84h-3.5c.03,.43,.17,.77,.44,1.01,.27,.24,.6,.36,.98,.36,.31,0,.58-.07,.79-.22,.21-.15,.36-.34,.44-.59h.78c-.12,.42-.35,.76-.7,1.03-.35,.26-.79,.4-1.31,.4-.42,0-.79-.09-1.12-.28s-.59-.45-.77-.8c-.19-.34-.28-.74-.28-1.2s.09-.85,.27-1.19c.18-.34,.44-.6,.76-.79s.71-.28,1.13-.28,.78,.09,1.1,.27c.32,.18,.57,.43,.74,.75,.17,.32,.26,.68,.26,1.08,0,.14,0,.29-.02,.44Zm-.91-1.31c-.12-.2-.29-.35-.5-.46-.21-.1-.44-.16-.7-.16-.37,0-.68,.12-.94,.35s-.41,.56-.44,.98h2.77c0-.28-.06-.52-.18-.72Z"/><path class="cls-2" d="M219.27,382.51c.24-.14,.53-.21,.87-.21v.75h-.19c-.82,0-1.22,.44-1.22,1.33v2.38h-.73v-4.38h.73v.71c.13-.25,.31-.45,.55-.58Z"/><path class="cls-2" d="M220.98,383.37c.18-.34,.43-.6,.75-.79,.32-.19,.67-.28,1.06-.28s.72,.08,1,.25c.28,.17,.49,.37,.63,.62v-.8h.74v4.38h-.74v-.82c-.14,.26-.36,.47-.64,.64-.29,.17-.62,.25-1,.25s-.74-.1-1.06-.29c-.31-.19-.56-.46-.74-.81-.18-.35-.27-.74-.27-1.18s.09-.84,.27-1.18Zm3.24,.32c-.13-.24-.31-.43-.54-.56s-.48-.2-.75-.2-.52,.06-.74,.19c-.22,.13-.4,.31-.54,.56-.13,.25-.2,.53-.2,.86s.07,.63,.2,.88,.31,.44,.54,.57c.22,.13,.47,.2,.74,.2s.52-.06,.75-.2,.41-.32,.54-.57,.2-.54,.2-.87-.07-.62-.2-.86Z"/><path class="cls-2" d="M229.05,385.99c.21-.15,.36-.36,.44-.64h.78c-.11,.42-.32,.76-.63,1.02-.31,.26-.7,.42-1.17,.45v.4c.31,0,.56,.06,.75,.2,.19,.14,.28,.34,.28,.59s-.09,.45-.27,.6c-.18,.15-.42,.22-.7,.22h-.92v-.47h.78c.18,0,.3-.03,.39-.08,.08-.05,.12-.14,.12-.27s-.04-.21-.12-.26c-.08-.05-.21-.08-.39-.08h-.4v-.86c-.37-.04-.69-.15-.98-.35-.28-.19-.5-.46-.66-.78s-.24-.7-.24-1.12c0-.45,.09-.85,.27-1.19,.18-.34,.43-.6,.76-.79,.32-.19,.69-.28,1.11-.28,.54,0,.98,.13,1.33,.39,.35,.26,.58,.62,.69,1.09h-.78c-.07-.27-.22-.48-.44-.63-.22-.16-.48-.23-.8-.23-.42,0-.75,.14-1.01,.43s-.38,.69-.38,1.21,.13,.94,.38,1.22c.26,.29,.59,.43,1.01,.43,.32,0,.59-.08,.8-.22Z"/><path class="cls-2" d="M231.24,383.37c.18-.34,.43-.6,.75-.79,.32-.19,.67-.28,1.06-.28s.72,.08,1,.25c.28,.17,.49,.37,.63,.62v-.8h.74v4.38h-.74v-.82c-.14,.26-.36,.47-.64,.64-.29,.17-.62,.25-1,.25s-.74-.1-1.06-.29-.56-.46-.74-.81c-.18-.35-.27-.74-.27-1.18s.09-.84,.27-1.18Zm3.24,.32c-.13-.24-.31-.43-.54-.56s-.48-.2-.75-.2-.52,.06-.74,.19c-.22,.13-.4,.31-.54,.56-.13,.25-.2,.53-.2,.86s.07,.63,.2,.88c.13,.25,.31,.44,.54,.57,.22,.13,.47,.2,.74,.2s.52-.06,.75-.2,.41-.32,.54-.57,.2-.54,.2-.87-.07-.62-.2-.86Zm-2.05-2.42c.14-.14,.32-.21,.53-.21,.1,0,.19,.02,.26,.05,.07,.04,.16,.08,.26,.15,.07,.05,.14,.09,.2,.12,.06,.03,.12,.04,.19,.04,.09,0,.17-.03,.23-.09s.1-.14,.12-.26h.42c-.03,.27-.12,.47-.26,.62s-.32,.22-.54,.22c-.1,0-.19-.02-.27-.05-.08-.03-.16-.09-.26-.16-.09-.05-.15-.09-.2-.12s-.11-.04-.18-.04c-.09,0-.17,.03-.23,.09-.06,.06-.1,.15-.12,.26h-.42c.04-.27,.13-.48,.27-.62Z"/><path class="cls-2" d="M237.45,386.55c-.33-.19-.59-.45-.78-.8s-.28-.74-.28-1.2,.1-.84,.29-1.19c.2-.34,.46-.61,.8-.79s.71-.28,1.13-.28,.79,.09,1.13,.28,.6,.45,.79,.79c.2,.34,.29,.74,.29,1.19s-.1,.85-.3,1.2c-.2,.34-.47,.61-.81,.8s-.72,.28-1.14,.28-.78-.09-1.12-.28Zm1.85-.54c.23-.12,.41-.31,.55-.55,.14-.24,.21-.54,.21-.9s-.07-.65-.21-.9c-.14-.25-.32-.43-.54-.55-.22-.12-.47-.18-.73-.18s-.51,.06-.73,.18c-.22,.12-.4,.3-.53,.55-.13,.25-.2,.54-.2,.9s.07,.66,.2,.9,.3,.43,.52,.55,.46,.18,.72,.18,.51-.06,.74-.18Z"/><path class="cls-2" d="M243.91,383.37c.18-.34,.43-.6,.75-.79,.32-.19,.67-.28,1.07-.28,.34,0,.66,.08,.95,.24,.29,.16,.52,.37,.67,.62v-2.32h.74v5.92h-.74v-.82c-.14,.26-.36,.48-.64,.64s-.61,.25-.99,.25-.74-.1-1.06-.29c-.32-.19-.57-.46-.75-.81-.18-.35-.27-.74-.27-1.18s.09-.84,.27-1.18Zm3.24,.32c-.13-.24-.31-.43-.54-.56s-.48-.2-.75-.2-.52,.06-.74,.19-.4,.31-.54,.56c-.13,.25-.2,.53-.2,.86s.07,.63,.2,.88,.31,.44,.54,.57,.47,.2,.74,.2,.52-.06,.75-.2,.41-.32,.54-.57c.13-.25,.2-.54,.2-.87s-.07-.62-.2-.86Z"/><path class="cls-2" d="M249.32,383.37c.18-.34,.43-.6,.75-.79,.32-.19,.67-.28,1.06-.28s.72,.08,1,.25,.49,.37,.63,.62v-.8h.74v4.38h-.74v-.82c-.14,.26-.36,.47-.64,.64-.29,.17-.62,.25-1,.25s-.74-.1-1.06-.29-.56-.46-.74-.81c-.18-.35-.27-.74-.27-1.18s.09-.84,.27-1.18Zm3.24,.32c-.13-.24-.31-.43-.54-.56s-.48-.2-.75-.2-.52,.06-.74,.19-.4,.31-.54,.56c-.13,.25-.2,.53-.2,.86s.07,.63,.2,.88,.31,.44,.54,.57,.47,.2,.74,.2,.52-.06,.75-.2,.41-.32,.54-.57c.13-.25,.2-.54,.2-.87s-.07-.62-.2-.86Z"/><path class="cls-2" d="M210.33,396.26c-.27-.12-.48-.28-.63-.48s-.24-.44-.26-.71h.75c.02,.22,.12,.4,.31,.54s.43,.21,.72,.21c.28,0,.5-.06,.66-.18,.16-.12,.24-.28,.24-.46s-.09-.34-.26-.43c-.17-.09-.43-.18-.79-.28-.33-.08-.59-.17-.8-.26-.21-.09-.38-.22-.53-.39-.15-.17-.22-.4-.22-.68,0-.22,.07-.43,.2-.62,.13-.19,.32-.33,.57-.44s.53-.16,.84-.16c.49,0,.88,.12,1.18,.37,.3,.25,.46,.58,.48,1.01h-.73c-.02-.23-.11-.41-.28-.55s-.39-.21-.68-.21c-.26,0-.47,.06-.62,.17-.15,.11-.23,.26-.23,.44,0,.14,.05,.26,.14,.36s.21,.17,.35,.22c.14,.06,.34,.12,.59,.19,.31,.08,.57,.17,.77,.25s.37,.21,.51,.37c.14,.17,.21,.38,.22,.65,0,.24-.07,.46-.2,.65s-.32,.34-.56,.45-.52,.16-.84,.16c-.34,0-.64-.06-.9-.17Z"/><path class="cls-2" d="M213.86,392.97c.18-.34,.43-.6,.75-.79,.32-.19,.67-.28,1.06-.28s.72,.08,1,.25,.49,.37,.63,.62v-.8h.74v4.38h-.74v-.82c-.14,.26-.36,.47-.64,.64-.29,.17-.62,.25-1,.25s-.74-.1-1.06-.29c-.31-.19-.56-.46-.74-.81-.18-.35-.27-.74-.27-1.18s.09-.84,.27-1.18Zm3.24,.32c-.13-.24-.31-.43-.54-.56s-.48-.2-.75-.2-.52,.06-.74,.19c-.22,.13-.4,.31-.54,.56-.13,.25-.2,.53-.2,.86s.07,.63,.2,.88,.31,.44,.54,.57c.22,.13,.47,.2,.74,.2s.52-.06,.75-.2,.41-.32,.54-.57,.2-.54,.2-.87-.07-.62-.2-.86Z"/><path class="cls-2" d="M223.15,391.98v4.38h-.73v-.65c-.14,.22-.33,.4-.58,.52-.25,.13-.52,.19-.82,.19-.34,0-.65-.07-.92-.21-.27-.14-.49-.35-.64-.64s-.24-.63-.24-1.03v-2.57h.72v2.47c0,.43,.11,.76,.33,1s.52,.35,.9,.35,.7-.12,.92-.36,.34-.59,.34-1.05v-2.41h.73Zm-1.16-1.24l-1.7,.91v-.54l1.7-1v.63Z"/><path class="cls-2" d="M224.38,392.97c.18-.34,.43-.6,.75-.79,.32-.19,.67-.28,1.07-.28,.34,0,.66,.08,.95,.24,.29,.16,.52,.37,.67,.62v-2.32h.74v5.92h-.74v-.82c-.14,.26-.36,.48-.64,.64s-.61,.25-.99,.25-.74-.1-1.06-.29c-.32-.19-.57-.46-.75-.81-.18-.35-.27-.74-.27-1.18s.09-.84,.27-1.18Zm3.24,.32c-.13-.24-.31-.43-.54-.56s-.48-.2-.75-.2-.52,.06-.74,.19-.4,.31-.54,.56c-.13,.25-.2,.53-.2,.86s.07,.63,.2,.88,.31,.44,.54,.57,.47,.2,.74,.2,.52-.06,.75-.2,.41-.32,.54-.57c.13-.25,.2-.54,.2-.87s-.07-.62-.2-.86Z"/><path class="cls-2" d="M233.77,394.44h-3.5c.03,.43,.17,.77,.44,1.01,.27,.24,.6,.36,.98,.36,.31,0,.58-.07,.79-.22s.36-.34,.44-.59h.78c-.12,.42-.35,.76-.7,1.03-.35,.26-.79,.4-1.31,.4-.42,0-.79-.09-1.12-.28s-.58-.45-.77-.8c-.19-.34-.28-.74-.28-1.2s.09-.85,.27-1.19c.18-.34,.44-.6,.76-.79s.71-.28,1.13-.28,.78,.09,1.1,.27,.57,.43,.74,.75c.17,.32,.26,.68,.26,1.08,0,.14,0,.29-.02,.44Zm-.91-1.31c-.12-.2-.29-.35-.5-.46-.21-.1-.45-.16-.7-.16-.37,0-.68,.12-.94,.35s-.41,.56-.44,.98h2.77c0-.28-.06-.52-.18-.72Z"/></g><g><path class="cls-2" d="M307.2,90.99v5.58h-.73v-5.58h.73Z"/><path class="cls-2" d="M311.87,92.58c.33,.32,.5,.79,.5,1.4v2.58h-.72v-2.48c0-.44-.11-.77-.33-1s-.52-.35-.9-.35-.69,.12-.92,.36c-.23,.24-.34,.59-.34,1.05v2.42h-.73v-4.38h.73v.62c.14-.22,.34-.4,.59-.52,.25-.12,.52-.18,.82-.18,.53,0,.97,.16,1.3,.48Z"/><path class="cls-2" d="M314.45,92.78v2.58c0,.21,.04,.36,.14,.45s.25,.13,.47,.13h.54v.62h-.66c-.41,0-.71-.09-.91-.28-.2-.19-.3-.49-.3-.92v-2.58h-.57v-.6h.57v-1.1h.73v1.1h1.14v.6h-1.14Z"/><path class="cls-2" d="M320.45,94.64h-3.5c.03,.43,.17,.77,.44,1.01,.27,.24,.6,.36,.98,.36,.31,0,.58-.07,.79-.22,.21-.15,.36-.34,.45-.59h.78c-.12,.42-.35,.76-.7,1.03-.35,.26-.79,.4-1.31,.4-.42,0-.79-.09-1.12-.28s-.58-.45-.77-.8c-.19-.34-.28-.74-.28-1.2s.09-.85,.27-1.19,.44-.6,.76-.79c.33-.18,.71-.28,1.13-.28s.78,.09,1.1,.27c.32,.18,.57,.43,.74,.75s.26,.68,.26,1.08c0,.14,0,.29-.02,.44Zm-.91-1.31c-.12-.2-.29-.35-.5-.46s-.44-.16-.7-.16c-.37,0-.68,.12-.94,.35-.26,.23-.41,.56-.44,.98h2.77c0-.28-.06-.52-.18-.72Z"/><path class="cls-2" d="M324.23,92.35c.29,.17,.5,.37,.64,.62v-.8h.74v4.48c0,.4-.09,.76-.26,1.07-.17,.31-.42,.56-.73,.73-.32,.18-.69,.26-1.11,.26-.58,0-1.06-.14-1.44-.41-.38-.27-.61-.64-.68-1.11h.72c.08,.27,.24,.48,.5,.64,.25,.16,.55,.24,.9,.24,.4,0,.73-.12,.98-.38,.25-.25,.38-.6,.38-1.06v-.92c-.14,.26-.36,.47-.64,.64-.28,.17-.61,.26-.99,.26s-.74-.1-1.06-.29c-.32-.19-.57-.46-.75-.81-.18-.35-.27-.74-.27-1.18s.09-.84,.27-1.18c.18-.34,.43-.6,.75-.79,.32-.19,.67-.28,1.06-.28s.71,.08,1,.25Zm.44,1.14c-.13-.25-.31-.43-.54-.56s-.48-.2-.75-.2-.52,.06-.74,.19c-.22,.13-.4,.31-.54,.56-.13,.25-.2,.53-.2,.86s.07,.63,.2,.88c.13,.25,.31,.44,.54,.57,.22,.13,.47,.2,.74,.2s.52-.07,.75-.2c.23-.13,.41-.32,.54-.57s.2-.54,.2-.87-.07-.62-.2-.86Z"/><path class="cls-2" d="M328.11,92.31c.24-.14,.53-.21,.87-.21v.75h-.19c-.82,0-1.22,.44-1.22,1.33v2.38h-.73v-4.38h.73v.71c.13-.25,.31-.45,.55-.58Z"/><path class="cls-2" d="M329.82,93.17c.18-.34,.43-.6,.75-.79,.32-.19,.67-.28,1.06-.28s.72,.08,1,.25c.28,.17,.49,.37,.63,.62v-.8h.74v4.38h-.74v-.82c-.14,.26-.36,.47-.64,.64-.29,.17-.62,.25-1,.25s-.74-.1-1.06-.29c-.31-.19-.56-.46-.74-.81s-.27-.74-.27-1.18,.09-.84,.27-1.18Zm3.24,.32c-.13-.25-.31-.43-.54-.56s-.48-.2-.75-.2-.52,.06-.74,.19c-.22,.13-.4,.31-.54,.56-.13,.25-.2,.53-.2,.86s.07,.63,.2,.88c.13,.25,.31,.44,.54,.57,.22,.13,.47,.2,.74,.2s.52-.07,.75-.2c.23-.13,.41-.32,.54-.57s.2-.54,.2-.87-.07-.62-.2-.86Z"/><path class="cls-2" d="M337.89,95.79c.21-.15,.36-.36,.44-.64h.78c-.11,.42-.32,.76-.63,1.02-.31,.26-.7,.42-1.17,.45v.4c.31,0,.56,.06,.75,.2,.19,.14,.28,.34,.28,.59s-.09,.45-.27,.6-.42,.22-.7,.22h-.92v-.47h.78c.18,0,.3-.03,.39-.08s.12-.14,.12-.27-.04-.21-.12-.26c-.08-.05-.21-.08-.39-.08h-.4v-.86c-.37-.04-.69-.15-.98-.35-.28-.19-.5-.46-.66-.78-.16-.33-.24-.7-.24-1.12,0-.45,.09-.85,.27-1.19,.18-.34,.43-.6,.76-.79,.32-.19,.69-.28,1.11-.28,.54,0,.98,.13,1.33,.39s.58,.62,.69,1.09h-.78c-.07-.27-.22-.48-.44-.63-.22-.15-.48-.23-.8-.23-.42,0-.75,.14-1.01,.43-.26,.29-.38,.69-.38,1.21s.13,.94,.38,1.22,.59,.43,1.01,.43c.32,0,.59-.07,.8-.22Z"/><path class="cls-2" d="M340.08,93.17c.18-.34,.43-.6,.75-.79,.32-.19,.67-.28,1.06-.28s.72,.08,1,.25c.28,.17,.49,.37,.63,.62v-.8h.74v4.38h-.74v-.82c-.14,.26-.36,.47-.64,.64-.29,.17-.62,.25-1,.25s-.74-.1-1.06-.29c-.31-.19-.56-.46-.74-.81s-.27-.74-.27-1.18,.09-.84,.27-1.18Zm3.24,.32c-.13-.25-.31-.43-.54-.56s-.48-.2-.75-.2-.52,.06-.74,.19c-.22,.13-.4,.31-.54,.56-.13,.25-.2,.53-.2,.86s.07,.63,.2,.88c.13,.25,.31,.44,.54,.57,.22,.13,.47,.2,.74,.2s.52-.07,.75-.2c.23-.13,.41-.32,.54-.57s.2-.54,.2-.87-.07-.62-.2-.86Zm-2.05-2.42c.14-.14,.32-.22,.53-.22,.1,0,.19,.02,.26,.05s.16,.08,.26,.15c.07,.05,.14,.09,.2,.12,.06,.03,.12,.04,.19,.04,.09,0,.17-.03,.23-.09s.1-.14,.12-.26h.42c-.03,.27-.12,.47-.26,.62-.14,.14-.32,.22-.54,.22-.1,0-.19-.02-.27-.05-.08-.03-.16-.09-.26-.16-.09-.05-.15-.09-.2-.12s-.11-.04-.18-.04c-.09,0-.17,.03-.23,.09-.06,.06-.1,.15-.12,.26h-.42c.04-.27,.13-.48,.27-.62Z"/><path class="cls-2" d="M346.29,96.35c-.33-.19-.59-.45-.78-.8-.19-.34-.28-.74-.28-1.2s.1-.84,.29-1.19c.2-.34,.46-.61,.8-.79,.34-.18,.71-.28,1.13-.28s.79,.09,1.13,.28c.34,.18,.6,.45,.79,.79,.2,.34,.29,.74,.29,1.19s-.1,.85-.3,1.2c-.2,.34-.47,.61-.81,.8s-.72,.28-1.14,.28-.78-.09-1.12-.28Zm1.85-.54c.23-.12,.41-.31,.55-.55,.14-.25,.21-.54,.21-.9s-.07-.65-.21-.9c-.14-.25-.32-.43-.54-.55-.22-.12-.47-.18-.73-.18s-.51,.06-.73,.18c-.22,.12-.4,.3-.53,.55-.13,.25-.2,.54-.2,.9s.07,.66,.2,.9,.3,.43,.52,.55,.46,.18,.72,.18,.51-.06,.74-.18Z"/><path class="cls-2" d="M352.75,93.17c.18-.34,.43-.6,.76-.79,.32-.19,.69-.28,1.11-.28,.54,0,.98,.13,1.33,.39s.58,.62,.69,1.09h-.78c-.07-.27-.22-.48-.44-.63-.22-.15-.48-.23-.8-.23-.42,0-.75,.14-1.01,.43-.26,.29-.38,.69-.38,1.21s.13,.94,.38,1.22,.59,.43,1.01,.43c.32,0,.59-.07,.8-.22,.21-.15,.36-.36,.44-.64h.78c-.12,.45-.35,.81-.7,1.08-.35,.27-.79,.4-1.32,.4-.42,0-.79-.09-1.11-.28s-.57-.45-.76-.79-.27-.74-.27-1.2,.09-.85,.27-1.19Z"/><path class="cls-2" d="M358.4,96.35c-.33-.19-.6-.45-.79-.8-.19-.34-.28-.74-.28-1.2s.1-.84,.29-1.19c.19-.34,.46-.61,.8-.79,.34-.18,.71-.28,1.13-.28s.79,.09,1.13,.28c.34,.18,.6,.45,.8,.79s.29,.74,.29,1.19-.1,.85-.3,1.2c-.2,.34-.47,.61-.81,.8-.34,.19-.72,.28-1.14,.28s-.78-.09-1.12-.28Zm1.85-.54c.23-.12,.41-.31,.56-.55,.14-.25,.21-.54,.21-.9s-.07-.65-.21-.9c-.14-.25-.32-.43-.54-.55-.22-.12-.47-.18-.73-.18s-.51,.06-.73,.18-.4,.3-.53,.55c-.13,.25-.2,.54-.2,.9s.06,.66,.2,.9,.31,.43,.52,.55,.46,.18,.72,.18,.51-.06,.74-.18Z"/><path class="cls-2" d="M368.91,92.31c.27,.14,.48,.35,.63,.64,.15,.28,.23,.63,.23,1.03v2.58h-.72v-2.48c0-.44-.11-.77-.32-1-.22-.23-.51-.35-.88-.35s-.68,.12-.9,.36c-.22,.24-.34,.59-.34,1.05v2.42h-.72v-2.48c0-.44-.11-.77-.32-1-.22-.23-.51-.35-.88-.35s-.68,.12-.9,.36-.34,.59-.34,1.05v2.42h-.73v-4.38h.73v.63c.14-.23,.34-.41,.58-.53,.24-.12,.51-.18,.8-.18,.37,0,.69,.08,.98,.25,.28,.17,.49,.41,.63,.73,.12-.31,.33-.55,.61-.72,.28-.17,.6-.26,.94-.26s.64,.07,.91,.21Z"/><path class="cls-2" d="M313.59,102.77c.18-.34,.43-.6,.75-.79,.32-.19,.67-.28,1.06-.28s.72,.08,1,.25c.28,.17,.49,.37,.63,.62v-.8h.74v4.38h-.74v-.82c-.14,.26-.36,.47-.64,.64s-.62,.25-1,.25-.74-.1-1.06-.29c-.31-.19-.56-.46-.74-.81-.18-.35-.27-.74-.27-1.18s.09-.84,.27-1.18Zm3.24,.32c-.13-.25-.31-.43-.54-.56s-.48-.2-.75-.2-.52,.06-.74,.19c-.22,.13-.4,.31-.54,.56-.13,.25-.2,.53-.2,.86s.07,.63,.2,.88,.31,.44,.54,.57c.22,.13,.47,.2,.74,.2s.52-.07,.75-.2c.23-.13,.41-.32,.54-.57,.13-.25,.2-.54,.2-.87s-.07-.62-.2-.86Z"/><path class="cls-2" d="M321.13,102.77c.18-.34,.43-.6,.76-.79,.32-.19,.69-.28,1.11-.28,.54,0,.98,.13,1.33,.39s.58,.62,.69,1.09h-.78c-.07-.27-.22-.48-.44-.63-.22-.15-.48-.23-.8-.23-.42,0-.75,.14-1.01,.43-.26,.29-.38,.69-.38,1.21s.13,.94,.38,1.22,.59,.43,1.01,.43c.32,0,.59-.07,.8-.22,.21-.15,.36-.36,.44-.64h.78c-.12,.45-.35,.81-.7,1.08-.35,.27-.79,.4-1.32,.4-.42,0-.79-.09-1.11-.28s-.57-.45-.76-.79-.27-.74-.27-1.2,.09-.85,.27-1.19Z"/><path class="cls-2" d="M329.87,101.78v4.38h-.73v-.65c-.14,.22-.33,.4-.58,.52-.25,.13-.52,.19-.82,.19-.34,0-.65-.07-.92-.21-.27-.14-.49-.35-.64-.64-.16-.28-.24-.63-.24-1.03v-2.57h.72v2.47c0,.43,.11,.76,.33,1s.52,.35,.9,.35,.7-.12,.92-.36c.22-.24,.34-.59,.34-1.05v-2.41h.73Z"/><path class="cls-2" d="M331.83,100.24v5.92h-.73v-5.92h.73Z"/><path class="cls-2" d="M333.96,102.38v2.58c0,.21,.04,.36,.14,.45s.25,.13,.47,.13h.54v.62h-.66c-.41,0-.71-.09-.91-.28-.2-.19-.3-.49-.3-.92v-2.58h-.57v-.6h.57v-1.1h.73v1.1h1.14v.6h-1.14Z"/><path class="cls-2" d="M339.87,101.78v4.38h-.73v-.65c-.14,.22-.33,.4-.58,.52-.25,.13-.52,.19-.82,.19-.34,0-.65-.07-.92-.21-.27-.14-.49-.35-.64-.64-.16-.28-.24-.63-.24-1.03v-2.57h.72v2.47c0,.43,.11,.76,.33,1s.52,.35,.9,.35,.7-.12,.92-.36c.22-.24,.34-.59,.34-1.05v-2.41h.73Z"/><path class="cls-2" d="M342.38,101.91c.24-.14,.53-.21,.87-.21v.75h-.19c-.82,0-1.22,.44-1.22,1.33v2.38h-.73v-4.38h.73v.71c.13-.25,.31-.45,.55-.58Z"/><path class="cls-2" d="M344.09,102.77c.18-.34,.43-.6,.75-.79,.32-.19,.67-.28,1.06-.28s.72,.08,1,.25c.28,.17,.49,.37,.63,.62v-.8h.74v4.38h-.74v-.82c-.14,.26-.36,.47-.64,.64s-.62,.25-1,.25-.74-.1-1.06-.29c-.31-.19-.56-.46-.74-.81-.18-.35-.27-.74-.27-1.18s.09-.84,.27-1.18Zm3.24,.32c-.13-.25-.31-.43-.54-.56s-.48-.2-.75-.2-.52,.06-.74,.19c-.22,.13-.4,.31-.54,.56-.13,.25-.2,.53-.2,.86s.07,.63,.2,.88,.31,.44,.54,.57c.22,.13,.47,.2,.74,.2s.52-.07,.75-.2c.23-.13,.41-.32,.54-.57,.13-.25,.2-.54,.2-.87s-.07-.62-.2-.86Z"/><path class="cls-2" d="M355.61,104.24h-3.5c.03,.43,.17,.77,.44,1.01,.27,.24,.6,.36,.98,.36,.31,0,.58-.07,.79-.22,.21-.15,.36-.34,.44-.59h.78c-.12,.42-.35,.76-.7,1.03-.35,.26-.79,.4-1.31,.4-.42,0-.79-.09-1.12-.28s-.58-.45-.77-.8c-.19-.34-.28-.74-.28-1.2s.09-.85,.27-1.19,.44-.6,.76-.79c.33-.18,.71-.28,1.13-.28s.78,.09,1.1,.27c.32,.18,.57,.43,.74,.75,.17,.32,.26,.68,.26,1.08,0,.14,0,.29-.02,.44Zm-.91-1.31c-.12-.2-.29-.35-.5-.46-.21-.1-.45-.16-.7-.16-.37,0-.68,.12-.94,.35-.26,.23-.41,.56-.44,.98h2.77c0-.28-.06-.52-.18-.72Z"/><path class="cls-2" d="M359.52,105.95c-.33-.19-.59-.45-.78-.8-.19-.34-.28-.74-.28-1.2s.1-.84,.29-1.19c.2-.34,.46-.61,.8-.79,.34-.18,.71-.28,1.13-.28s.79,.09,1.13,.28c.34,.18,.6,.45,.79,.79,.2,.34,.29,.74,.29,1.19s-.1,.85-.3,1.2c-.2,.34-.47,.61-.81,.8s-.72,.28-1.14,.28-.78-.09-1.12-.28Zm1.85-.54c.23-.12,.41-.31,.55-.55,.14-.25,.21-.54,.21-.9s-.07-.65-.21-.9c-.14-.25-.32-.43-.54-.55-.22-.12-.47-.18-.73-.18s-.51,.06-.73,.18c-.22,.12-.4,.3-.53,.55-.13,.25-.2,.54-.2,.9s.07,.66,.2,.9,.3,.43,.52,.55,.46,.18,.72,.18,.51-.06,.74-.18Z"/><path class="cls-2" d="M306.41,112.37c.18-.34,.43-.6,.75-.79,.32-.19,.67-.28,1.06-.28s.72,.08,1,.25c.28,.17,.49,.37,.63,.62v-.8h.74v4.38h-.74v-.82c-.14,.26-.36,.47-.64,.64s-.62,.25-1,.25-.74-.1-1.06-.29c-.31-.19-.56-.46-.74-.81-.18-.35-.27-.74-.27-1.18s.09-.84,.27-1.18Zm3.24,.32c-.13-.25-.31-.43-.54-.56s-.48-.2-.75-.2-.52,.06-.74,.19c-.22,.13-.4,.31-.54,.56-.13,.25-.2,.53-.2,.86s.07,.63,.2,.88,.31,.44,.54,.57c.22,.13,.47,.2,.74,.2s.52-.07,.75-.2c.23-.13,.41-.32,.54-.57,.13-.25,.2-.54,.2-.87s-.07-.62-.2-.86Z"/><path class="cls-2" d="M318.01,111.51c.27,.14,.48,.35,.63,.64,.15,.28,.23,.63,.23,1.03v2.58h-.72v-2.48c0-.44-.11-.77-.32-1s-.51-.35-.88-.35-.68,.12-.9,.36c-.22,.24-.34,.59-.34,1.05v2.42h-.72v-2.48c0-.44-.11-.77-.32-1s-.51-.35-.88-.35-.68,.12-.9,.36c-.22,.24-.34,.59-.34,1.05v2.42h-.73v-4.38h.73v.63c.14-.23,.34-.41,.58-.53,.24-.12,.51-.18,.8-.18,.37,0,.69,.08,.98,.25,.28,.17,.49,.41,.63,.73,.12-.31,.33-.55,.61-.72,.28-.17,.6-.26,.95-.26s.64,.07,.91,.21Z"/><path class="cls-2" d="M321.45,111.55c.29-.17,.62-.25,.98-.25,.39,0,.75,.09,1.06,.28,.32,.19,.56,.45,.74,.79,.18,.34,.27,.73,.27,1.18s-.09,.84-.27,1.18-.43,.62-.75,.81c-.32,.19-.67,.29-1.06,.29s-.71-.08-1-.25c-.29-.17-.5-.38-.64-.63v.81h-.73v-5.92h.73v2.35c.15-.26,.37-.47,.66-.64Zm2.12,1.14c-.13-.25-.31-.43-.54-.56s-.48-.19-.75-.19-.51,.07-.74,.2-.41,.32-.54,.57-.2,.53-.2,.86,.07,.62,.2,.87,.32,.44,.54,.57c.23,.13,.47,.2,.74,.2s.52-.07,.75-.2c.23-.13,.41-.32,.54-.57s.2-.54,.2-.88-.07-.62-.2-.86Z"/><path class="cls-2" d="M325.49,110.52c-.1-.1-.14-.21-.14-.35s.05-.26,.14-.35c.1-.1,.21-.14,.35-.14s.25,.05,.34,.14c.09,.1,.14,.21,.14,.35s-.05,.26-.14,.35c-.09,.1-.21,.14-.34,.14s-.26-.05-.35-.14Zm.7,.86v4.38h-.73v-4.38h.73Z"/><path class="cls-2" d="M331.41,113.84h-3.5c.03,.43,.17,.77,.44,1.01,.27,.24,.6,.36,.98,.36,.31,0,.58-.07,.79-.22,.21-.15,.36-.34,.44-.59h.78c-.12,.42-.35,.76-.7,1.03-.35,.26-.79,.4-1.31,.4-.42,0-.79-.09-1.12-.28s-.58-.45-.77-.8c-.19-.34-.28-.74-.28-1.2s.09-.85,.27-1.19,.44-.6,.76-.79c.33-.18,.71-.28,1.13-.28s.78,.09,1.1,.27c.32,.18,.57,.43,.74,.75,.17,.32,.26,.68,.26,1.08,0,.14,0,.29-.02,.44Zm-.91-1.31c-.12-.2-.29-.35-.5-.46-.21-.1-.45-.16-.7-.16-.37,0-.68,.12-.94,.35-.26,.23-.41,.56-.44,.98h2.77c0-.28-.06-.52-.18-.72Z"/><path class="cls-2" d="M335.83,111.78c.33,.32,.5,.79,.5,1.4v2.58h-.72v-2.48c0-.44-.11-.77-.33-1s-.52-.35-.9-.35-.69,.12-.92,.36c-.23,.24-.34,.59-.34,1.05v2.42h-.73v-4.38h.73v.62c.14-.22,.34-.4,.59-.52,.25-.12,.52-.18,.82-.18,.53,0,.96,.16,1.3,.48Z"/><path class="cls-2" d="M338.41,111.98v2.58c0,.21,.05,.36,.14,.45,.09,.09,.25,.13,.47,.13h.54v.62h-.66c-.41,0-.71-.09-.91-.28-.2-.19-.3-.49-.3-.92v-2.58h-.57v-.6h.57v-1.1h.73v1.1h1.14v.6h-1.14Z"/><path class="cls-2" d="M344.41,113.84h-3.5c.03,.43,.17,.77,.44,1.01,.27,.24,.6,.36,.98,.36,.31,0,.58-.07,.79-.22,.21-.15,.36-.34,.44-.59h.78c-.12,.42-.35,.76-.7,1.03-.35,.26-.79,.4-1.31,.4-.42,0-.79-.09-1.12-.28s-.58-.45-.77-.8c-.19-.34-.28-.74-.28-1.2s.09-.85,.27-1.19,.44-.6,.76-.79c.33-.18,.71-.28,1.13-.28s.78,.09,1.1,.27c.32,.18,.57,.43,.74,.75,.17,.32,.26,.68,.26,1.08,0,.14,0,.29-.02,.44Zm-.91-1.31c-.12-.2-.29-.35-.5-.46-.21-.1-.45-.16-.7-.16-.37,0-.68,.12-.94,.35-.26,.23-.41,.56-.44,.98h2.77c0-.28-.06-.52-.18-.72Z"/><path class="cls-2" d="M348.25,109.84v5.92h-.73v-5.92h.73Z"/><path class="cls-2" d="M350.29,115.55c-.33-.19-.59-.45-.78-.8-.19-.34-.28-.74-.28-1.2s.1-.84,.29-1.19c.19-.34,.46-.61,.79-.79,.34-.18,.71-.28,1.13-.28s.79,.09,1.13,.28c.34,.18,.6,.45,.8,.79,.19,.34,.29,.74,.29,1.19s-.1,.85-.3,1.2c-.2,.34-.47,.61-.81,.8s-.72,.28-1.14,.28-.78-.09-1.12-.28Zm1.85-.54c.23-.12,.42-.31,.56-.55,.14-.25,.21-.54,.21-.9s-.07-.65-.21-.9c-.14-.25-.32-.43-.54-.55-.22-.12-.47-.18-.73-.18s-.51,.06-.73,.18c-.22,.12-.4,.3-.53,.55-.13,.25-.2,.54-.2,.9s.07,.66,.2,.9c.13,.25,.31,.43,.52,.55s.46,.18,.72,.18,.51-.06,.74-.18Z"/><path class="cls-2" d="M354.61,112.37c.18-.34,.43-.6,.76-.79,.32-.19,.69-.28,1.11-.28,.54,0,.98,.13,1.33,.39s.58,.62,.69,1.09h-.78c-.07-.27-.22-.48-.44-.63-.22-.15-.48-.23-.8-.23-.42,0-.75,.14-1.01,.43-.26,.29-.38,.69-.38,1.21s.13,.94,.38,1.22,.59,.43,1.01,.43c.32,0,.59-.07,.8-.22,.21-.15,.36-.36,.44-.64h.78c-.12,.45-.35,.81-.7,1.08-.35,.27-.79,.4-1.32,.4-.42,0-.79-.09-1.11-.28s-.57-.45-.76-.79-.27-.74-.27-1.2,.09-.85,.27-1.19Z"/><path class="cls-2" d="M359.47,112.37c.18-.34,.43-.6,.75-.79,.32-.19,.67-.28,1.06-.28s.72,.08,1,.25c.28,.17,.49,.37,.63,.62v-.8h.74v4.38h-.74v-.82c-.14,.26-.36,.47-.64,.64-.29,.17-.62,.25-1,.25s-.74-.1-1.06-.29c-.31-.19-.56-.46-.74-.81s-.27-.74-.27-1.18,.09-.84,.27-1.18Zm3.24,.32c-.13-.25-.31-.43-.54-.56s-.48-.2-.75-.2-.52,.06-.74,.19c-.22,.13-.4,.31-.54,.56-.13,.25-.2,.53-.2,.86s.07,.63,.2,.88c.13,.25,.31,.44,.54,.57,.22,.13,.47,.2,.74,.2s.52-.07,.75-.2c.23-.13,.41-.32,.54-.57s.2-.54,.2-.87-.07-.62-.2-.86Z"/><path class="cls-2" d="M364.9,110.52c-.1-.1-.14-.21-.14-.35s.05-.26,.14-.35c.1-.1,.21-.14,.35-.14s.25,.05,.34,.14c.09,.1,.14,.21,.14,.35s-.05,.26-.14,.35c-.09,.1-.21,.14-.34,.14s-.26-.05-.35-.14Zm.71,.86v4.38h-.73v-4.38h.73Z"/><path class="cls-2" d="M367.49,115.66c-.27-.11-.48-.27-.63-.48-.16-.21-.24-.44-.26-.71h.75c.02,.22,.12,.4,.31,.54,.18,.14,.43,.21,.72,.21,.28,0,.5-.06,.66-.18s.24-.28,.24-.46-.09-.33-.26-.43-.43-.19-.79-.28c-.33-.09-.59-.17-.8-.26-.21-.09-.38-.22-.53-.39s-.22-.4-.22-.68c0-.22,.07-.43,.2-.62,.13-.19,.32-.33,.57-.44,.24-.11,.53-.16,.84-.16,.48,0,.88,.12,1.18,.37s.46,.58,.48,1.01h-.73c-.02-.23-.11-.41-.28-.55s-.39-.21-.68-.21c-.26,0-.47,.06-.62,.17-.15,.11-.23,.26-.23,.44,0,.14,.05,.26,.14,.36s.21,.17,.35,.22c.14,.06,.34,.12,.59,.19,.31,.09,.57,.17,.77,.25s.37,.21,.51,.37c.14,.17,.21,.38,.22,.65,0,.24-.07,.46-.2,.65-.13,.19-.32,.34-.56,.45-.24,.11-.52,.16-.84,.16-.34,0-.64-.06-.9-.17Z"/></g><g><path class="cls-5" d="M317.51,335.77c-.32,.31-.8,.46-1.45,.46h-1.07v2.33h-.73v-5.58h1.8c.63,0,1.11,.15,1.44,.46,.33,.3,.49,.7,.49,1.18s-.16,.85-.48,1.16Zm-.56-.4c.19-.18,.29-.43,.29-.75,0-.69-.39-1.03-1.18-1.03h-1.07v2.05h1.07c.41,0,.7-.09,.9-.26Z"/><path class="cls-5" d="M318.88,335.17c.18-.34,.43-.6,.75-.79,.32-.19,.67-.28,1.06-.28s.72,.08,1,.25c.28,.17,.49,.37,.63,.62v-.8h.74v4.38h-.74v-.82c-.14,.26-.36,.47-.64,.63-.29,.17-.62,.25-1,.25s-.74-.1-1.06-.29c-.31-.19-.56-.46-.74-.81-.18-.35-.27-.74-.27-1.18s.09-.84,.27-1.18Zm3.24,.32c-.13-.25-.31-.43-.54-.56s-.48-.2-.75-.2-.52,.06-.74,.19-.4,.31-.54,.56c-.13,.24-.2,.53-.2,.86s.07,.63,.2,.88,.31,.44,.54,.57c.22,.13,.47,.2,.74,.2s.52-.07,.75-.2c.23-.13,.41-.32,.54-.57,.13-.25,.2-.54,.2-.87s-.07-.62-.2-.86Z"/><path class="cls-5" d="M325.57,334.31c.24-.14,.53-.21,.87-.21v.75h-.19c-.82,0-1.22,.44-1.22,1.33v2.38h-.73v-4.38h.73v.71c.13-.25,.31-.45,.55-.58Z"/><path class="cls-5" d="M328.16,334.78v2.58c0,.21,.05,.36,.14,.45,.09,.09,.25,.13,.47,.13h.54v.62h-.66c-.41,0-.71-.09-.91-.28-.2-.19-.3-.49-.3-.92v-2.58h-.57v-.6h.57v-1.1h.73v1.1h1.14v.6h-1.14Z"/><path class="cls-5" d="M330.21,333.32c-.1-.1-.14-.21-.14-.35s.05-.26,.14-.35,.21-.14,.35-.14,.25,.05,.34,.14c.09,.1,.14,.21,.14,.35s-.05,.26-.14,.35c-.09,.1-.21,.14-.34,.14s-.26-.05-.35-.14Zm.7,.86v4.38h-.73v-4.38h.73Z"/><path class="cls-5" d="M332.16,335.17c.18-.34,.43-.6,.76-.79,.32-.19,.69-.28,1.11-.28,.54,0,.98,.13,1.33,.39,.35,.26,.58,.62,.69,1.09h-.78c-.08-.27-.22-.48-.44-.63-.22-.15-.48-.23-.8-.23-.42,0-.75,.14-1.01,.43-.26,.29-.38,.69-.38,1.21s.13,.94,.38,1.22c.26,.29,.59,.43,1.01,.43,.32,0,.59-.07,.8-.22,.21-.15,.36-.36,.44-.64h.78c-.12,.45-.35,.81-.71,1.08-.35,.27-.79,.4-1.32,.4-.42,0-.79-.09-1.11-.28-.32-.19-.57-.45-.76-.79s-.27-.74-.27-1.2,.09-.85,.27-1.19Z"/><path class="cls-5" d="M337.04,333.32c-.1-.1-.14-.21-.14-.35s.05-.26,.14-.35c.1-.1,.21-.14,.35-.14s.25,.05,.34,.14,.14,.21,.14,.35-.05,.26-.14,.35c-.09,.1-.21,.14-.34,.14s-.26-.05-.35-.14Zm.7,.86v4.38h-.73v-4.38h.73Z"/><path class="cls-5" d="M340.35,334.36c.29-.17,.62-.25,1-.25s.74,.09,1.06,.28,.57,.45,.75,.79c.18,.34,.27,.73,.27,1.18s-.09,.84-.27,1.18c-.18,.35-.43,.62-.75,.81-.32,.19-.67,.29-1.06,.29s-.7-.08-.99-.25c-.29-.17-.5-.38-.65-.63v2.89h-.73v-6.46h.73v.81c.14-.25,.36-.46,.64-.63Zm2.13,1.13c-.13-.25-.31-.43-.54-.56-.23-.13-.48-.19-.75-.19s-.51,.07-.74,.2c-.23,.13-.41,.32-.54,.57-.14,.25-.2,.53-.2,.86s.07,.62,.2,.87c.14,.25,.32,.44,.54,.57,.23,.13,.47,.2,.74,.2s.52-.07,.75-.2c.23-.13,.41-.32,.54-.57s.2-.54,.2-.88-.07-.62-.2-.86Z"/><path class="cls-5" d="M344.39,335.17c.18-.34,.43-.6,.75-.79,.32-.19,.67-.28,1.06-.28s.72,.08,1,.25c.28,.17,.49,.37,.63,.62v-.8h.74v4.38h-.74v-.82c-.14,.26-.36,.47-.64,.63-.29,.17-.62,.25-1,.25s-.74-.1-1.06-.29c-.31-.19-.56-.46-.74-.81-.18-.35-.27-.74-.27-1.18s.09-.84,.27-1.18Zm3.24,.32c-.13-.25-.31-.43-.54-.56s-.48-.2-.75-.2-.52,.06-.74,.19-.4,.31-.54,.56c-.13,.24-.2,.53-.2,.86s.07,.63,.2,.88,.31,.44,.54,.57c.22,.13,.47,.2,.74,.2s.52-.07,.75-.2c.23-.13,.41-.32,.54-.57,.13-.25,.2-.54,.2-.87s-.07-.62-.2-.86Z"/><path class="cls-5" d="M352.46,337.79c.21-.15,.36-.36,.44-.64h.78c-.11,.42-.32,.76-.63,1.02s-.7,.41-1.17,.45v.4c.31,0,.56,.06,.75,.2,.19,.14,.28,.34,.28,.59s-.09,.45-.27,.6c-.18,.15-.42,.22-.7,.22h-.92v-.47h.78c.18,0,.3-.03,.39-.08,.08-.05,.12-.14,.12-.27s-.04-.21-.12-.26-.21-.08-.39-.08h-.4v-.86c-.37-.04-.69-.15-.98-.35-.28-.2-.5-.46-.66-.78-.16-.33-.24-.7-.24-1.12,0-.45,.09-.85,.27-1.19,.18-.34,.43-.6,.76-.79s.69-.28,1.11-.28c.54,0,.98,.13,1.33,.39,.35,.26,.58,.62,.69,1.09h-.78c-.07-.27-.22-.48-.44-.63-.22-.15-.48-.23-.8-.23-.42,0-.75,.14-1.01,.43-.26,.29-.38,.69-.38,1.21s.13,.94,.38,1.22c.26,.29,.59,.43,1.01,.43,.32,0,.59-.07,.8-.22Z"/><path class="cls-5" d="M354.65,335.17c.18-.34,.43-.6,.75-.79s.67-.28,1.06-.28,.72,.08,1,.25c.28,.17,.49,.37,.63,.62v-.8h.74v4.38h-.74v-.82c-.14,.26-.36,.47-.64,.63-.29,.17-.62,.25-1,.25s-.74-.1-1.06-.29c-.31-.19-.56-.46-.74-.81-.18-.35-.27-.74-.27-1.18s.09-.84,.27-1.18Zm3.24,.32c-.13-.25-.31-.43-.54-.56s-.48-.2-.75-.2-.52,.06-.74,.19c-.22,.13-.4,.31-.54,.56-.13,.24-.2,.53-.2,.86s.07,.63,.2,.88c.13,.25,.31,.44,.54,.57,.22,.13,.47,.2,.74,.2s.52-.07,.75-.2c.23-.13,.41-.32,.54-.57s.2-.54,.2-.87-.07-.62-.2-.86Zm-2.05-2.42c.14-.14,.32-.22,.53-.22,.1,0,.19,.02,.26,.05,.07,.03,.16,.08,.26,.15,.07,.05,.14,.09,.2,.12,.06,.03,.12,.04,.19,.04,.09,0,.17-.03,.23-.09s.1-.14,.12-.26h.42c-.03,.27-.12,.47-.26,.62-.14,.14-.32,.22-.54,.22-.1,0-.19-.02-.27-.05-.08-.04-.16-.09-.26-.16-.09-.05-.15-.09-.2-.12s-.11-.04-.18-.04c-.09,0-.17,.03-.23,.09-.06,.06-.1,.15-.12,.26h-.42c.04-.27,.13-.48,.27-.62Z"/><path class="cls-5" d="M360.86,338.35c-.33-.19-.59-.45-.78-.8-.19-.34-.28-.74-.28-1.2s.1-.84,.29-1.19c.2-.34,.46-.61,.8-.79,.34-.18,.71-.28,1.13-.28s.79,.09,1.13,.28c.34,.18,.6,.45,.79,.79,.2,.34,.29,.74,.29,1.19s-.1,.85-.3,1.2c-.2,.34-.47,.61-.81,.8s-.72,.28-1.14,.28-.78-.09-1.12-.28Zm1.85-.54c.23-.12,.41-.31,.55-.55,.14-.25,.21-.54,.21-.9s-.07-.65-.21-.9c-.14-.24-.32-.43-.54-.55-.22-.12-.47-.18-.73-.18s-.51,.06-.73,.18c-.22,.12-.4,.3-.53,.55-.13,.25-.2,.54-.2,.9s.07,.66,.2,.9,.3,.43,.52,.55,.46,.18,.72,.18,.51-.06,.74-.18Z"/><path class="cls-5" d="M328.62,348.06c-.27-.11-.48-.27-.63-.48s-.24-.44-.26-.71h.75c.02,.22,.12,.4,.31,.54,.18,.14,.42,.21,.72,.21,.28,0,.5-.06,.66-.18s.24-.28,.24-.46-.08-.33-.26-.43c-.17-.09-.43-.18-.79-.28-.33-.09-.59-.17-.8-.26s-.38-.22-.53-.39c-.15-.17-.22-.4-.22-.68,0-.22,.07-.43,.2-.62s.32-.33,.57-.44c.25-.11,.53-.16,.84-.16,.49,0,.88,.12,1.18,.37,.3,.24,.46,.58,.48,1.01h-.73c-.02-.23-.11-.41-.28-.55s-.39-.21-.68-.21c-.26,0-.47,.05-.62,.17-.16,.11-.23,.26-.23,.44,0,.14,.05,.26,.14,.36,.09,.09,.21,.17,.35,.22,.14,.06,.34,.12,.59,.19,.31,.09,.57,.17,.77,.25,.2,.08,.37,.21,.51,.37,.14,.16,.21,.38,.22,.65,0,.24-.07,.46-.2,.65-.13,.19-.32,.34-.56,.45-.24,.11-.52,.16-.84,.16-.34,0-.64-.06-.9-.17Z"/><path class="cls-5" d="M332.94,347.95c-.33-.19-.59-.45-.78-.79-.19-.34-.28-.74-.28-1.2s.1-.84,.29-1.19c.2-.34,.46-.61,.8-.79,.34-.18,.71-.28,1.13-.28s.79,.09,1.13,.28c.34,.18,.6,.45,.79,.79,.2,.34,.29,.74,.29,1.19s-.1,.85-.3,1.2c-.2,.34-.47,.61-.81,.79-.34,.19-.72,.28-1.14,.28s-.78-.09-1.12-.28Zm1.85-.54c.23-.12,.41-.31,.55-.55,.14-.25,.21-.54,.21-.9s-.07-.65-.21-.9c-.14-.25-.32-.43-.54-.55-.22-.12-.47-.18-.73-.18s-.51,.06-.73,.18c-.22,.12-.4,.3-.53,.55s-.2,.54-.2,.9,.07,.66,.2,.9c.13,.25,.3,.43,.52,.55,.22,.12,.46,.18,.72,.18s.51-.06,.74-.18Z"/><path class="cls-5" d="M337.26,344.77c.18-.34,.43-.6,.76-.79,.32-.19,.69-.28,1.11-.28,.54,0,.98,.13,1.33,.39,.35,.26,.58,.62,.69,1.09h-.78c-.08-.27-.22-.48-.44-.63s-.48-.23-.8-.23c-.42,0-.75,.14-1.01,.43-.26,.29-.38,.69-.38,1.21s.13,.94,.38,1.22c.26,.29,.59,.43,1.01,.43,.32,0,.59-.07,.8-.22,.21-.15,.36-.36,.44-.64h.78c-.12,.45-.35,.81-.7,1.08-.35,.27-.79,.4-1.32,.4-.42,0-.79-.09-1.11-.28-.32-.19-.58-.45-.76-.79-.18-.34-.27-.74-.27-1.2s.09-.85,.27-1.19Z"/><path class="cls-5" d="M342.14,342.92c-.1-.1-.14-.21-.14-.35s.05-.26,.14-.35c.1-.1,.21-.14,.35-.14s.25,.05,.34,.14c.09,.1,.14,.21,.14,.35s-.05,.26-.14,.35c-.09,.1-.21,.14-.34,.14s-.26-.05-.35-.14Zm.7,.86v4.38h-.73v-4.38h.73Z"/><path class="cls-5" d="M344.09,344.77c.18-.34,.43-.6,.75-.79,.32-.19,.67-.28,1.06-.28s.72,.08,1,.25c.28,.17,.49,.37,.63,.62v-.8h.74v4.38h-.74v-.82c-.14,.26-.36,.47-.64,.64-.29,.17-.62,.25-1,.25s-.74-.1-1.06-.29c-.31-.19-.56-.46-.74-.81s-.27-.74-.27-1.18,.09-.84,.27-1.18Zm3.24,.32c-.13-.25-.31-.43-.54-.56s-.48-.2-.75-.2-.52,.06-.74,.19c-.22,.13-.4,.31-.54,.56-.13,.25-.2,.53-.2,.86s.07,.63,.2,.88c.13,.25,.31,.44,.54,.57,.22,.13,.47,.2,.74,.2s.52-.07,.75-.2c.23-.13,.41-.32,.54-.57s.2-.54,.2-.87-.07-.62-.2-.86Z"/><path class="cls-5" d="M350.22,342.24v5.92h-.73v-5.92h.73Z"/></g><g><path class="cls-2" d="M351.69,218.99v5.58h-.73v-5.58h.73Z"/><path class="cls-2" d="M356.37,220.58c.33,.32,.5,.79,.5,1.4v2.58h-.72v-2.48c0-.44-.11-.77-.33-1s-.52-.35-.9-.35-.69,.12-.92,.36c-.23,.24-.34,.59-.34,1.05v2.42h-.73v-4.38h.73v.62c.14-.22,.34-.4,.59-.52,.25-.12,.52-.18,.82-.18,.53,0,.97,.16,1.3,.48Z"/><path class="cls-2" d="M358.05,221.17c.18-.34,.43-.6,.76-.79,.32-.19,.69-.28,1.11-.28,.54,0,.98,.13,1.33,.39,.35,.26,.58,.62,.69,1.09h-.78c-.08-.27-.22-.48-.44-.63s-.48-.23-.8-.23c-.42,0-.75,.14-1.01,.43-.26,.29-.38,.69-.38,1.21s.13,.94,.38,1.22c.26,.29,.59,.43,1.01,.43,.32,0,.59-.07,.8-.22,.21-.15,.36-.36,.44-.64h.78c-.12,.45-.35,.81-.7,1.08-.35,.27-.79,.4-1.32,.4-.42,0-.79-.09-1.11-.28-.32-.19-.58-.45-.76-.79-.18-.34-.27-.74-.27-1.2s.09-.85,.27-1.19Z"/><path class="cls-2" d="M363.64,218.64v5.92h-.73v-5.92h.73Z"/><path class="cls-2" d="M368.77,220.18v4.38h-.73v-.65c-.14,.22-.33,.4-.58,.52-.25,.13-.52,.19-.82,.19-.34,0-.65-.07-.92-.21-.27-.14-.49-.35-.64-.64-.16-.28-.24-.63-.24-1.03v-2.57h.72v2.47c0,.43,.11,.76,.33,1,.22,.23,.52,.35,.9,.35s.7-.12,.92-.36c.22-.24,.34-.59,.34-1.05v-2.41h.73Z"/><path class="cls-2" d="M370.65,224.46c-.27-.11-.48-.27-.63-.48-.16-.21-.24-.44-.26-.71h.75c.02,.22,.12,.4,.31,.54s.42,.21,.72,.21c.28,0,.5-.06,.66-.18s.24-.28,.24-.46-.09-.33-.26-.43c-.17-.09-.44-.19-.79-.28-.32-.09-.59-.17-.79-.26-.21-.09-.38-.22-.53-.39-.15-.17-.22-.4-.22-.68,0-.22,.07-.43,.2-.62,.13-.19,.32-.33,.57-.44s.53-.16,.84-.16c.49,0,.88,.12,1.18,.37s.46,.58,.48,1.01h-.73c-.02-.23-.11-.41-.28-.55s-.39-.21-.68-.21c-.26,0-.47,.06-.62,.17-.15,.11-.23,.26-.23,.44,0,.14,.05,.26,.14,.36,.09,.09,.21,.17,.35,.22,.14,.06,.34,.12,.59,.19,.31,.09,.57,.17,.77,.25s.37,.21,.51,.37c.14,.17,.21,.38,.22,.65,0,.24-.07,.46-.2,.65-.13,.19-.32,.34-.56,.45-.24,.11-.52,.16-.84,.16-.34,0-.64-.06-.9-.17Z"/><path class="cls-2" d="M374.17,221.17c.18-.34,.43-.6,.75-.79,.32-.19,.67-.28,1.06-.28s.72,.08,1,.25c.28,.17,.49,.37,.63,.62v-.8h.74v4.38h-.74v-.82c-.14,.26-.36,.47-.64,.64s-.62,.25-1,.25-.74-.1-1.06-.29c-.31-.19-.56-.46-.74-.81-.18-.35-.27-.74-.27-1.18s.09-.84,.27-1.18Zm3.24,.32c-.13-.25-.31-.43-.54-.56s-.48-.2-.75-.2-.52,.06-.74,.19c-.22,.13-.4,.31-.54,.56-.13,.25-.2,.53-.2,.86s.07,.63,.2,.88c.13,.25,.31,.44,.54,.57,.22,.13,.47,.2,.74,.2s.52-.07,.75-.2c.23-.13,.41-.32,.54-.57s.2-.54,.2-.87-.07-.62-.2-.86Zm-2.05-2.42c.14-.14,.32-.22,.53-.22,.1,0,.19,.02,.26,.05,.07,.03,.16,.08,.26,.15,.08,.05,.14,.09,.2,.12s.12,.04,.19,.04c.09,0,.17-.03,.23-.09s.1-.14,.12-.26h.42c-.03,.27-.12,.47-.26,.62-.14,.14-.32,.22-.54,.22-.1,0-.19-.02-.27-.05-.08-.03-.16-.09-.26-.16-.08-.05-.15-.09-.2-.12s-.11-.04-.18-.04c-.09,0-.17,.03-.23,.09-.06,.06-.1,.15-.12,.26h-.42c.04-.27,.13-.48,.27-.62Z"/><path class="cls-2" d="M380.38,224.35c-.33-.19-.59-.45-.78-.79-.19-.34-.28-.74-.28-1.2s.1-.84,.29-1.19c.19-.34,.46-.61,.79-.79,.34-.18,.71-.28,1.13-.28s.79,.09,1.13,.28c.34,.18,.6,.45,.8,.79,.19,.34,.29,.74,.29,1.19s-.1,.85-.3,1.2c-.2,.34-.47,.61-.81,.79-.34,.19-.72,.28-1.14,.28s-.78-.09-1.12-.28Zm1.85-.54c.23-.12,.42-.31,.56-.55,.14-.25,.21-.54,.21-.9s-.07-.65-.21-.9c-.14-.25-.32-.43-.54-.55-.22-.12-.47-.18-.73-.18s-.51,.06-.73,.18c-.22,.12-.4,.3-.53,.55-.13,.25-.2,.54-.2,.9s.07,.66,.2,.9c.13,.25,.31,.43,.52,.55,.22,.12,.46,.18,.72,.18s.51-.06,.74-.18Z"/><path class="cls-2" d="M387.48,224.46c-.27-.11-.48-.27-.63-.48s-.24-.44-.26-.71h.75c.02,.22,.12,.4,.31,.54,.18,.14,.43,.21,.72,.21,.28,0,.5-.06,.66-.18s.24-.28,.24-.46-.09-.33-.26-.43-.43-.19-.79-.28c-.33-.09-.59-.17-.8-.26-.21-.09-.38-.22-.53-.39s-.22-.4-.22-.68c0-.22,.07-.43,.2-.62,.13-.19,.32-.33,.57-.44,.24-.11,.53-.16,.84-.16,.48,0,.88,.12,1.18,.37s.46,.58,.48,1.01h-.73c-.02-.23-.11-.41-.28-.55s-.39-.21-.68-.21c-.26,0-.47,.06-.62,.17-.15,.11-.23,.26-.23,.44,0,.14,.05,.26,.14,.36s.21,.17,.35,.22c.14,.06,.34,.12,.59,.19,.31,.09,.57,.17,.77,.25s.37,.21,.51,.37c.14,.17,.21,.38,.22,.65,0,.24-.07,.46-.2,.65-.13,.19-.32,.34-.56,.45-.24,.11-.52,.16-.84,.16-.34,0-.64-.06-.9-.17Z"/><path class="cls-2" d="M391.81,224.35c-.33-.19-.59-.45-.78-.79-.19-.34-.28-.74-.28-1.2s.1-.84,.29-1.19c.19-.34,.46-.61,.79-.79,.34-.18,.71-.28,1.13-.28s.79,.09,1.13,.28c.34,.18,.6,.45,.8,.79,.19,.34,.29,.74,.29,1.19s-.1,.85-.3,1.2c-.2,.34-.47,.61-.81,.79-.34,.19-.72,.28-1.14,.28s-.78-.09-1.12-.28Zm1.85-.54c.23-.12,.42-.31,.56-.55,.14-.25,.21-.54,.21-.9s-.07-.65-.21-.9c-.14-.25-.32-.43-.54-.55-.22-.12-.47-.18-.73-.18s-.51,.06-.73,.18c-.22,.12-.4,.3-.53,.55-.13,.25-.2,.54-.2,.9s.07,.66,.2,.9c.13,.25,.31,.43,.52,.55,.22,.12,.46,.18,.72,.18s.51-.06,.74-.18Z"/><path class="cls-2" d="M396.13,221.17c.18-.34,.43-.6,.76-.79,.32-.19,.69-.28,1.11-.28,.54,0,.98,.13,1.33,.39s.58,.62,.69,1.09h-.78c-.07-.27-.22-.48-.44-.63-.22-.15-.48-.23-.8-.23-.42,0-.75,.14-1.01,.43-.26,.29-.38,.69-.38,1.21s.13,.94,.38,1.22,.59,.43,1.01,.43c.32,0,.59-.07,.8-.22,.21-.15,.36-.36,.44-.64h.78c-.12,.45-.35,.81-.7,1.08s-.79,.4-1.32,.4c-.42,0-.79-.09-1.11-.28-.32-.19-.57-.45-.76-.79-.18-.34-.27-.74-.27-1.2s.09-.85,.27-1.19Z"/><path class="cls-2" d="M401.01,219.32c-.1-.1-.14-.21-.14-.35s.05-.26,.14-.35c.1-.1,.21-.14,.35-.14s.25,.05,.34,.14c.09,.1,.14,.21,.14,.35s-.05,.26-.14,.35c-.09,.1-.21,.14-.34,.14-.14,0-.26-.05-.35-.14Zm.7,.86v4.38h-.73v-4.38h.73Z"/><path class="cls-2" d="M402.96,221.17c.18-.34,.43-.6,.75-.79,.32-.19,.67-.28,1.06-.28s.72,.08,1,.25c.28,.17,.49,.37,.63,.62v-.8h.74v4.38h-.74v-.82c-.14,.26-.36,.47-.64,.64s-.62,.25-1,.25-.74-.1-1.06-.29c-.31-.19-.56-.46-.74-.81-.18-.35-.27-.74-.27-1.18s.09-.84,.27-1.18Zm3.24,.32c-.13-.25-.31-.43-.54-.56s-.48-.2-.75-.2-.52,.06-.74,.19c-.22,.13-.4,.31-.54,.56-.13,.25-.2,.53-.2,.86s.07,.63,.2,.88c.13,.25,.31,.44,.54,.57,.22,.13,.47,.2,.74,.2s.52-.07,.75-.2c.23-.13,.41-.32,.54-.57s.2-.54,.2-.87-.07-.62-.2-.86Z"/><path class="cls-2" d="M409.09,218.64v5.92h-.73v-5.92h.73Z"/></g><g><path class="cls-5" d="M43.26,224.32h-2.43l-.45,1.24h-.77l2.02-5.54h.84l2.01,5.54h-.77l-.45-1.24Zm-.21-.59l-1.01-2.82-1.01,2.82h2.02Z"/><path class="cls-5" d="M45.36,222.17c.18-.34,.43-.6,.76-.79,.32-.19,.69-.28,1.11-.28,.54,0,.98,.13,1.33,.39,.35,.26,.58,.62,.69,1.09h-.78c-.08-.27-.22-.48-.44-.63-.22-.15-.48-.23-.8-.23-.42,0-.75,.14-1.01,.43-.26,.29-.38,.69-.38,1.21s.13,.94,.38,1.22c.26,.29,.59,.43,1.01,.43,.32,0,.59-.07,.8-.22s.36-.36,.44-.64h.78c-.12,.45-.35,.81-.7,1.08-.35,.27-.79,.4-1.32,.4-.42,0-.79-.09-1.11-.28-.32-.19-.57-.45-.76-.79-.18-.34-.27-.74-.27-1.2s.09-.85,.27-1.19Z"/><path class="cls-5" d="M51.01,225.35c-.33-.19-.59-.45-.78-.79-.19-.34-.28-.74-.28-1.2s.1-.84,.29-1.19c.19-.34,.46-.61,.8-.79,.34-.18,.71-.28,1.13-.28s.79,.09,1.13,.28c.34,.18,.6,.45,.8,.79s.29,.74,.29,1.19-.1,.85-.3,1.2c-.2,.34-.47,.61-.81,.79-.34,.19-.72,.28-1.14,.28s-.78-.09-1.12-.28Zm1.85-.54c.23-.12,.41-.31,.56-.55,.14-.25,.21-.54,.21-.9s-.07-.65-.21-.9c-.14-.25-.32-.43-.54-.55-.22-.12-.47-.18-.73-.18s-.51,.06-.73,.18-.4,.3-.53,.55c-.13,.25-.2,.54-.2,.9s.07,.66,.2,.9c.13,.25,.31,.43,.52,.55,.22,.12,.46,.18,.72,.18s.51-.06,.74-.18Z"/><path class="cls-5" d="M56.06,219.64v5.92h-.73v-5.92h.73Z"/><path class="cls-5" d="M60.37,221.31c.27,.14,.48,.35,.63,.64,.15,.28,.23,.63,.23,1.03v2.58h-.72v-2.48c0-.44-.11-.77-.33-1s-.52-.35-.9-.35-.69,.12-.92,.36c-.23,.24-.34,.59-.34,1.05v2.42h-.73v-5.92h.73v2.16c.14-.22,.34-.4,.6-.52,.25-.12,.54-.18,.85-.18,.33,0,.63,.07,.9,.21Z"/><path class="cls-5" d="M62.45,220.32c-.1-.1-.14-.21-.14-.35s.05-.26,.14-.35c.1-.1,.21-.14,.35-.14s.25,.05,.34,.14c.09,.1,.14,.21,.14,.35s-.05,.26-.14,.35c-.09,.1-.21,.14-.34,.14s-.26-.05-.35-.14Zm.7,.86v4.38h-.73v-4.38h.73Z"/><path class="cls-5" d="M70.57,221.31c.27,.14,.48,.35,.63,.64,.15,.28,.23,.63,.23,1.03v2.58h-.72v-2.48c0-.44-.11-.77-.32-1-.22-.23-.51-.35-.88-.35s-.68,.12-.9,.36c-.22,.24-.34,.59-.34,1.05v2.42h-.72v-2.48c0-.44-.11-.77-.32-1s-.51-.35-.88-.35-.68,.12-.9,.36c-.22,.24-.34,.59-.34,1.05v2.42h-.73v-4.38h.73v.63c.14-.23,.34-.41,.58-.53,.24-.12,.51-.18,.8-.18,.37,0,.69,.08,.98,.25,.28,.17,.49,.41,.63,.73,.12-.31,.33-.55,.61-.72,.28-.17,.6-.26,.94-.26s.65,.07,.91,.21Z"/><path class="cls-5" d="M76.61,223.64h-3.5c.03,.43,.17,.77,.44,1.01,.27,.24,.6,.36,.98,.36,.31,0,.58-.07,.79-.22,.21-.15,.36-.34,.44-.59h.78c-.12,.42-.35,.76-.7,1.03-.35,.26-.79,.4-1.31,.4-.42,0-.79-.09-1.12-.28-.33-.19-.59-.45-.77-.79-.19-.34-.28-.74-.28-1.2s.09-.85,.27-1.19c.18-.34,.44-.6,.76-.79,.33-.18,.71-.28,1.13-.28s.78,.09,1.1,.27c.32,.18,.57,.43,.74,.75s.26,.68,.26,1.08c0,.14,0,.29-.02,.44Zm-.91-1.31c-.12-.2-.29-.35-.5-.46-.21-.1-.44-.16-.7-.16-.37,0-.68,.12-.94,.35-.26,.23-.41,.56-.44,.98h2.77c0-.28-.06-.52-.18-.72Z"/><path class="cls-5" d="M81.02,221.58c.33,.32,.5,.79,.5,1.4v2.58h-.72v-2.48c0-.44-.11-.77-.33-1s-.52-.35-.9-.35-.69,.12-.92,.36c-.23,.24-.34,.59-.34,1.05v2.42h-.73v-4.38h.73v.62c.14-.22,.34-.4,.59-.52,.25-.12,.52-.18,.82-.18,.53,0,.97,.16,1.3,.48Z"/><path class="cls-5" d="M83.6,221.78v2.58c0,.21,.05,.37,.14,.45,.09,.09,.25,.13,.47,.13h.54v.62h-.66c-.41,0-.71-.09-.91-.28s-.3-.49-.3-.92v-2.58h-.57v-.6h.57v-1.1h.73v1.1h1.14v.6h-1.14Z"/><path class="cls-5" d="M86.42,225.35c-.33-.19-.59-.45-.78-.79-.19-.34-.28-.74-.28-1.2s.1-.84,.29-1.19c.19-.34,.46-.61,.8-.79,.34-.18,.71-.28,1.13-.28s.79,.09,1.13,.28c.34,.18,.6,.45,.8,.79s.29,.74,.29,1.19-.1,.85-.3,1.2c-.2,.34-.47,.61-.81,.79-.34,.19-.72,.28-1.14,.28s-.78-.09-1.12-.28Zm1.85-.54c.23-.12,.41-.31,.56-.55,.14-.25,.21-.54,.21-.9s-.07-.65-.21-.9c-.14-.25-.32-.43-.54-.55-.22-.12-.47-.18-.73-.18s-.51,.06-.73,.18-.4,.3-.53,.55c-.13,.25-.2,.54-.2,.9s.07,.66,.2,.9c.13,.25,.31,.43,.52,.55,.22,.12,.46,.18,.72,.18s.51-.06,.74-.18Z"/></g></svg>