<?xml version="1.0" encoding="UTF-8"?><svg id="Object" xmlns="http://www.w3.org/2000/svg" xmlns:xlink="http://www.w3.org/1999/xlink" viewBox="0 0 181.67 181.67"><defs><style>.cls-1{fill:url(#New_Gradient_Swatch);}.cls-2{fill:url(#linear-gradient);}.cls-3{fill:#f1f1f2;opacity:.25;}</style><linearGradient id="linear-gradient" x1=".58" y1=".58" x2="117.83" y2="117.83" gradientTransform="matrix(1, 0, 0, 1, 0, 0)" gradientUnits="userSpaceOnUse"><stop offset="0" stop-color="#14b0b6"/><stop offset=".82" stop-color="#86cdd3"/></linearGradient><linearGradient id="New_Gradient_Swatch" x1="98.08" y1="98.08" x2="178.09" y2="178.09" gradientTransform="matrix(1, 0, 0, 1, 0, 0)" gradientUnits="userSpaceOnUse"><stop offset="0" stop-color="#14b0b6"/><stop offset=".82" stop-color="#86cdd3"/></linearGradient></defs><g><path class="cls-2" d="M90.8,100.73c2.59-4.54,4.27-9.53,6.06-14.81,1.85-5.49,3.76-11.16,6.81-16.38,4-6.87,9.89-12.57,16.77-16.54V9.87c0-5.45-4.42-9.87-9.87-9.87h-39.46c-5.45,0-9.87,4.42-9.87,9.87V61.24H9.87c-5.45,0-9.87,4.42-9.87,9.87v39.46c0,5.45,4.42,9.87,9.87,9.87H60.84c12.3-1.46,23.81-8.92,29.96-19.7Z"/><path class="cls-1" d="M171.81,61.24h-51.28c-4.37,3.15-8.1,7.16-10.81,11.82-2.68,4.61-4.4,9.71-6.22,15.1-1.81,5.37-3.68,10.91-6.61,16.04-7.3,12.8-21.02,21.63-35.64,23.23v44.37c0,5.45,4.42,9.87,9.87,9.87h39.46c5.45,0,9.87-4.42,9.87-9.87v-51.37h51.37c5.45,0,9.87-4.42,9.87-9.87v-39.46c0-5.45-4.42-9.87-9.87-9.87Z"/></g><path class="cls-3" d="M120.19,7.72c-.98-4.41-4.91-7.72-9.62-7.72h-39.46c-5.45,0-9.87,4.42-9.87,9.87V61.24H9.87c-5.45,0-9.87,4.42-9.87,9.87v39.46c0,1.24,.24,2.42,.66,3.51,23.09,.07,46.12-10.78,60.39-29.01,6.16-7.88,10.73-16.85,15.56-26.36,5.02-9.87,10.22-20.08,17.42-29.12,7.14-8.96,16.12-16.37,26.16-21.88Z"/></svg>