<?xml version="1.0" encoding="UTF-8"?><svg id="Object" xmlns="http://www.w3.org/2000/svg" viewBox="0 0 181.67 181.67"><defs><style>.cls-1{fill:#4d4d4d;opacity:.1;}.cls-2{fill:#f1f1f1;}.cls-3{fill:#e4e4e4;}.cls-4{fill:#92cf9a;}.cls-5{fill:#acacac;}.cls-6{fill:#cacaca;}.cls-7{fill:#537f59;}.cls-8{fill:#609a66;}</style></defs><path class="cls-6" d="M139.26,162.62c0,7.42-4.52,13.43-10.09,13.43H54.16c-5.57,0-10.09-6.01-10.09-13.43h0c0-7.42,4.52-13.43,10.09-13.43h75.01c5.57,0,10.09,6.01,10.09,13.43h0Z"/><path class="cls-5" d="M180.86,76.64c0,.19-.01,.37-.05,.56-.85,4.82-12.68,9.12-30.99,12.07-1.34,.22-2.72,.43-4.13,.63-9.06,1.3-19.49,2.28-30.82,2.86-.26,.02-.52,.03-.78,.04l-1.01,.05c-4.04,.19-8.19,.33-12.42,.41-.64,.01-1.28,.03-1.93,.04-2.6,.04-5.23,.07-7.88,.07-.88,0-1.75,0-2.62-.01-.45,0-.9,0-1.34,0-5.34-.04-10.56-.17-15.62-.38-.73-.03-1.47-.06-2.2-.09-.1,0-.19,0-.29-.01-2.1-.1-4.17-.21-6.21-.33-6.13-.38-11.97-.87-17.44-1.47-25.71-2.82-43.22-7.95-44.26-13.84-.03-.18-.05-.37-.05-.56,0-.27,.03-.54,.11-.81,1.22-4.74,13.06-8.96,31.2-11.86,6.8-1.09,14.48-1.99,22.83-2.66,1.97-.16,3.98-.31,6.02-.44,.8-.05,1.61-.1,2.43-.15,4.07-.24,8.26-.43,12.56-.57,4.84-.15,9.81-.23,14.88-.23,2.38,0,4.74,.02,7.07,.05,.28,0,.55,0,.82,.01,3.88,.06,7.7,.17,11.42,.32,.91,.04,1.81,.07,2.71,.12,3.25,.15,6.44,.33,9.54,.55,3.82,.27,7.51,.58,11.06,.93,.34,.04,.68,.07,1.02,.1,9.88,1.02,18.62,2.38,25.78,3.98,.73,.16,1.44,.33,2.14,.5,10.76,2.61,17.46,5.83,18.35,9.33,.08,.27,.11,.54,.11,.81"/><g><path class="cls-8" d="M106.14,107.21c-2.32,.84-4.74,1.61-7.45,2.26-.92,.21-1.88,.41-2.88,.58-.34-.81-.66-1.6-.94-2.39-1.01-2.74-1.71-5.31-2.31-7.81-.76-3.23-1.31-6.34-1.64-9.34-.68-5.99-.69-11.65-.12-16.96,1.06-10.68,4.22-20.22,8.95-28.93,4.75-8.67,11.02-16.53,19.4-23.25,4.15-3.37,8.89-6.44,14.25-9.16,2.7-1.35,5.59-2.59,8.69-3.72,3.12-1.14,6.42-2.17,10.3-2.88,1.52,3.64,2.46,6.97,3.23,10.19,.73,3.21,1.28,6.33,1.61,9.32,.68,5.99,.68,11.63,.12,16.96-1.06,10.68-4.22,20.22-8.89,28.95-4.71,8.7-10.96,16.56-19.31,23.3-4.15,3.37-8.89,6.44-14.28,9.15-2.7,1.35-5.61,2.6-8.72,3.71"/><path class="cls-4" d="M135.9,42.77c-20.27,28.73-36.23,60.31-47.82,93.31l-4.01-1.49c12.94-32.89,30.18-64.05,51.52-92.04l.31,.23Z"/></g><g><path class="cls-7" d="M105.27,106.87c-1.1,1.69-2.3,3.39-3.76,5.15-.5,.59-1.03,1.2-1.6,1.8-.62-.36-1.22-.72-1.8-1.1-2.01-1.29-3.73-2.63-5.35-3.97-2.09-1.73-3.98-3.5-5.67-5.3-3.39-3.58-6.19-7.27-8.43-11.02-4.57-7.5-7.2-15.3-8.4-23.32-1.17-8.01-.94-16.23,1.23-24.76,1.06-4.25,2.64-8.59,4.8-13.01,1.1-2.21,2.38-4.45,3.85-6.71,1.48-2.28,3.13-4.58,5.31-6.95,2.78,1.63,5.04,3.34,7.13,5.07,2.06,1.74,3.95,3.5,5.65,5.3,3.39,3.58,6.17,7.26,8.43,11.02,4.57,7.51,7.2,15.3,8.45,23.31,1.2,8.01,1,16.23-1.14,24.75-1.05,4.25-2.64,8.59-4.83,13.02-1.1,2.21-2.39,4.46-3.87,6.72"/><path class="cls-4" d="M92.98,50.08c.9,28.76,6.02,57.26,14.7,84.55l-3.36,.99c-7.74-27.87-11.81-56.74-11.65-85.54h.31Z"/></g><path class="cls-2" d="M149.82,89.26c-1.34,.22-2.72,.43-4.13,.63-9.06,1.3-19.49,2.28-30.82,2.86-.26,.02-.52,.03-.78,.04l-1.01,.05c-4.04,.19-8.19,.33-12.42,.41-.64,.01-1.28,.03-1.93,.04-2.6,.04-5.23,.07-7.88,.07-.88,0-1.75,0-2.62-.01-.45,0-.9,0-1.34,0-5.34-.04-10.56-.17-15.62-.38-.73-.03-1.47-.06-2.2-.09-.1,0-.19,0-.29-.01-2.1-.1-4.17-.21-6.21-.33-6.13-.38-11.97-.87-17.44-1.47-25.71-2.82-43.22-7.95-44.26-13.84h0c-.03,1-.05,2-.05,3,0,36.82,22.1,68.48,53.77,82.43,24.37,3.07,48.54,3.13,72.51,0,31.66-13.95,53.77-45.6,53.77-82.42,0-1-.02-2-.05-2.99-.86,4.81-12.69,9.11-30.99,12.06Z"/><path class="cls-3" d="M68.77,92.85c-8.42-.39-16.36-1.01-23.65-1.81l-13-27.07-14.74-30.7c-4.34-9.04,.37-20.1,10.62-23.76,2.16-.77,4.34-1.13,6.45-1.13,7.92,0,14.95,5.09,16.83,12.77l9.69,39.73,7.8,31.98Z"/><path class="cls-1" d="M38.85,98.03c6.22,.68,12.86,1.24,19.83,1.67,2.32,.14,4.67,.27,7.06,.38,.11,0,.22,.01,.33,.01,.83,.04,1.66,.07,2.5,.11,5.75,.24,11.69,.39,17.76,.44,.51,0,1.02,0,1.53,0,.99,0,1.98,.01,2.98,.01,3.02,0,6.01-.03,8.96-.07,.74-.01,1.46-.03,2.2-.04,4.82-.1,9.53-.25,14.12-.47,.38-.02,.77-.04,1.15-.06,.3-.01,.6-.03,.89-.05,12.88-.66,24.74-1.77,35.05-3.25,1.6-.23,3.17-.47,4.7-.71,8.93-1.44,16.5-3.16,22.31-5.09,.42-3.52,.64-7.1,.64-10.73,0-1-.02-2-.05-2.99-.86,4.81-12.69,9.11-30.99,12.06-1.34,.22-2.72,.43-4.13,.63-9.06,1.3-19.49,2.28-30.82,2.86-.26,.02-.52,.03-.78,.04l-1.01,.05c-4.04,.19-8.19,.33-12.42,.41-.64,.01-1.28,.03-1.93,.04-2.6,.04-5.23,.07-7.88,.07-.88,0-1.75,0-2.62-.01-.45,0-.9,0-1.34,0-5.34-.04-10.56-.17-15.62-.38-.73-.03-1.47-.06-2.2-.09-.1,0-.19,0-.29-.01-2.1-.1-4.17-.21-6.21-.33-6.13-.38-11.97-.87-17.44-1.47-25.71-2.82-43.22-7.95-44.26-13.84h0c-.03,1-.05,2-.05,3,0,3.63,.22,7.21,.64,10.73,8.86,2.94,21.8,5.4,37.4,7.11Z"/></svg>